%TF.GenerationSoftware,KiCad,Pcbnew,9.0.4*%
%TF.CreationDate,2026-05-08T12:34:36-04:00*%
%TF.ProjectId,ECET 230 - Design Option 3 - Panchal,45434554-2032-4333-9020-2d2044657369,rev?*%
%TF.SameCoordinates,Original*%
%TF.FileFunction,Copper,L1,Top*%
%TF.FilePolarity,Positive*%
%FSLAX46Y46*%
G04 Gerber Fmt 4.6, Leading zero omitted, Abs format (unit mm)*
G04 Created by KiCad (PCBNEW 9.0.4) date 2026-05-08 12:34:36*
%MOMM*%
%LPD*%
G01*
G04 APERTURE LIST*
G04 Aperture macros list*
%AMRoundRect*
0 Rectangle with rounded corners*
0 $1 Rounding radius*
0 $2 $3 $4 $5 $6 $7 $8 $9 X,Y pos of 4 corners*
0 Add a 4 corners polygon primitive as box body*
4,1,4,$2,$3,$4,$5,$6,$7,$8,$9,$2,$3,0*
0 Add four circle primitives for the rounded corners*
1,1,$1+$1,$2,$3*
1,1,$1+$1,$4,$5*
1,1,$1+$1,$6,$7*
1,1,$1+$1,$8,$9*
0 Add four rect primitives between the rounded corners*
20,1,$1+$1,$2,$3,$4,$5,0*
20,1,$1+$1,$4,$5,$6,$7,0*
20,1,$1+$1,$6,$7,$8,$9,0*
20,1,$1+$1,$8,$9,$2,$3,0*%
G04 Aperture macros list end*
%TA.AperFunction,SMDPad,CuDef*%
%ADD10RoundRect,0.225000X-0.225000X-0.250000X0.225000X-0.250000X0.225000X0.250000X-0.225000X0.250000X0*%
%TD*%
%TA.AperFunction,SMDPad,CuDef*%
%ADD11RoundRect,0.375000X0.625000X0.375000X-0.625000X0.375000X-0.625000X-0.375000X0.625000X-0.375000X0*%
%TD*%
%TA.AperFunction,SMDPad,CuDef*%
%ADD12RoundRect,0.500000X0.500000X1.400000X-0.500000X1.400000X-0.500000X-1.400000X0.500000X-1.400000X0*%
%TD*%
%TA.AperFunction,SMDPad,CuDef*%
%ADD13R,0.350000X0.500000*%
%TD*%
%TA.AperFunction,SMDPad,CuDef*%
%ADD14RoundRect,0.225000X-0.250000X0.225000X-0.250000X-0.225000X0.250000X-0.225000X0.250000X0.225000X0*%
%TD*%
%TA.AperFunction,SMDPad,CuDef*%
%ADD15RoundRect,0.150000X-0.825000X-0.150000X0.825000X-0.150000X0.825000X0.150000X-0.825000X0.150000X0*%
%TD*%
%TA.AperFunction,SMDPad,CuDef*%
%ADD16RoundRect,0.200000X-0.275000X0.200000X-0.275000X-0.200000X0.275000X-0.200000X0.275000X0.200000X0*%
%TD*%
%TA.AperFunction,SMDPad,CuDef*%
%ADD17RoundRect,0.200000X0.200000X0.275000X-0.200000X0.275000X-0.200000X-0.275000X0.200000X-0.275000X0*%
%TD*%
%TA.AperFunction,SMDPad,CuDef*%
%ADD18RoundRect,0.162500X0.637500X-0.162500X0.637500X0.162500X-0.637500X0.162500X-0.637500X-0.162500X0*%
%TD*%
%TA.AperFunction,SMDPad,CuDef*%
%ADD19RoundRect,0.100000X0.295000X-0.100000X0.295000X0.100000X-0.295000X0.100000X-0.295000X-0.100000X0*%
%TD*%
%TA.AperFunction,SMDPad,CuDef*%
%ADD20RoundRect,0.175000X0.175000X0.425000X-0.175000X0.425000X-0.175000X-0.425000X0.175000X-0.425000X0*%
%TD*%
%TA.AperFunction,SMDPad,CuDef*%
%ADD21RoundRect,0.190000X-0.190000X-0.410000X0.190000X-0.410000X0.190000X0.410000X-0.190000X0.410000X0*%
%TD*%
%TA.AperFunction,SMDPad,CuDef*%
%ADD22RoundRect,0.200000X-0.200000X-0.400000X0.200000X-0.400000X0.200000X0.400000X-0.200000X0.400000X0*%
%TD*%
%TA.AperFunction,SMDPad,CuDef*%
%ADD23RoundRect,0.175000X-0.175000X-0.425000X0.175000X-0.425000X0.175000X0.425000X-0.175000X0.425000X0*%
%TD*%
%TA.AperFunction,SMDPad,CuDef*%
%ADD24RoundRect,0.190000X0.190000X0.410000X-0.190000X0.410000X-0.190000X-0.410000X0.190000X-0.410000X0*%
%TD*%
%TA.AperFunction,SMDPad,CuDef*%
%ADD25RoundRect,0.200000X0.200000X0.400000X-0.200000X0.400000X-0.200000X-0.400000X0.200000X-0.400000X0*%
%TD*%
%TA.AperFunction,HeatsinkPad*%
%ADD26O,1.100000X1.700000*%
%TD*%
%TA.AperFunction,SMDPad,CuDef*%
%ADD27RoundRect,0.225000X0.225000X0.250000X-0.225000X0.250000X-0.225000X-0.250000X0.225000X-0.250000X0*%
%TD*%
%TA.AperFunction,ComponentPad*%
%ADD28C,2.800000*%
%TD*%
%TA.AperFunction,SMDPad,CuDef*%
%ADD29RoundRect,0.218750X0.218750X0.256250X-0.218750X0.256250X-0.218750X-0.256250X0.218750X-0.256250X0*%
%TD*%
%TA.AperFunction,SMDPad,CuDef*%
%ADD30RoundRect,0.250000X0.450000X0.350000X-0.450000X0.350000X-0.450000X-0.350000X0.450000X-0.350000X0*%
%TD*%
%TA.AperFunction,ComponentPad*%
%ADD31R,1.700000X1.700000*%
%TD*%
%TA.AperFunction,ComponentPad*%
%ADD32C,1.700000*%
%TD*%
%TA.AperFunction,SMDPad,CuDef*%
%ADD33RoundRect,0.137500X-0.600000X-0.137500X0.600000X-0.137500X0.600000X0.137500X-0.600000X0.137500X0*%
%TD*%
%TA.AperFunction,SMDPad,CuDef*%
%ADD34RoundRect,0.137500X-0.137500X-0.600000X0.137500X-0.600000X0.137500X0.600000X-0.137500X0.600000X0*%
%TD*%
%TA.AperFunction,SMDPad,CuDef*%
%ADD35RoundRect,0.225000X0.250000X-0.225000X0.250000X0.225000X-0.250000X0.225000X-0.250000X-0.225000X0*%
%TD*%
%TA.AperFunction,ComponentPad*%
%ADD36C,1.397000*%
%TD*%
%TA.AperFunction,ViaPad*%
%ADD37C,0.600000*%
%TD*%
%TA.AperFunction,Conductor*%
%ADD38C,0.200000*%
%TD*%
G04 APERTURE END LIST*
D10*
%TO.P,C9,1*%
%TO.N,Net-(U1-VDD)*%
X104725000Y-72010000D03*
%TO.P,C9,2*%
%TO.N,GND*%
X106275000Y-72010000D03*
%TD*%
%TO.P,C8,1*%
%TO.N,VCC*%
X104725000Y-69500000D03*
%TO.P,C8,2*%
%TO.N,GND*%
X106275000Y-69500000D03*
%TD*%
D11*
%TO.P,U4,1,GND*%
%TO.N,GND*%
X102150000Y-74300000D03*
%TO.P,U4,2,VO*%
%TO.N,Net-(U1-VDD)*%
X102150000Y-72000000D03*
D12*
X95850000Y-72000000D03*
D11*
%TO.P,U4,3,VI*%
%TO.N,VCC*%
X102150000Y-69700000D03*
%TD*%
D13*
%TO.P,U1,8,VDD*%
%TO.N,Net-(U1-VDD)*%
X91550000Y-73050000D03*
%TO.P,U1,7,GND*%
%TO.N,GND*%
X92200000Y-73050000D03*
%TO.P,U1,6,VDDIO*%
%TO.N,Net-(U1-VDD)*%
X92850000Y-73050000D03*
%TO.P,U1,5,SDO*%
%TO.N,GND*%
X93500000Y-73050000D03*
%TO.P,U1,4,SCK*%
%TO.N,Net-(U1-SCK)*%
X93500000Y-71000000D03*
%TO.P,U1,3,SDI*%
%TO.N,Net-(U1-SDI)*%
X92850000Y-71000000D03*
%TO.P,U1,2,CSB*%
%TO.N,VCC*%
X92200000Y-71000000D03*
%TO.P,U1,1,GND*%
%TO.N,GND*%
X91550000Y-71000000D03*
%TD*%
D10*
%TO.P,C5,2*%
%TO.N,GND*%
X93000000Y-74500000D03*
%TO.P,C5,1*%
%TO.N,Net-(U1-VDD)*%
X91450000Y-74500000D03*
%TD*%
D14*
%TO.P,C7,2*%
%TO.N,Net-(U3-V3)*%
X90055000Y-51750000D03*
%TO.P,C7,1*%
%TO.N,GND*%
X90055000Y-50200000D03*
%TD*%
D15*
%TO.P,U3,16,VCC*%
%TO.N,VCC*%
X96975000Y-48555000D03*
%TO.P,U3,15,R232*%
%TO.N,unconnected-(U3-R232-Pad15)*%
X96975000Y-49825000D03*
%TO.P,U3,14,~{RTS}*%
%TO.N,unconnected-(U3-~{RTS}-Pad14)*%
X96975000Y-51095000D03*
%TO.P,U3,13,~{DTR}*%
%TO.N,unconnected-(U3-~{DTR}-Pad13)*%
X96975000Y-52365000D03*
%TO.P,U3,12,~{DCD}*%
%TO.N,unconnected-(U3-~{DCD}-Pad12)*%
X96975000Y-53635000D03*
%TO.P,U3,11,~{RI}*%
%TO.N,unconnected-(U3-~{RI}-Pad11)*%
X96975000Y-54905000D03*
%TO.P,U3,10,~{DSR}*%
%TO.N,unconnected-(U3-~{DSR}-Pad10)*%
X96975000Y-56175000D03*
%TO.P,U3,9,~{CTS}*%
%TO.N,unconnected-(U3-~{CTS}-Pad9)*%
X96975000Y-57445000D03*
%TO.P,U3,8,NC*%
%TO.N,unconnected-(U3-NC-Pad8)*%
X92025000Y-57445000D03*
%TO.P,U3,7,NC*%
%TO.N,unconnected-(U3-NC-Pad7)*%
X92025000Y-56175000D03*
%TO.P,U3,6,UD-*%
%TO.N,Net-(P1-D-)*%
X92025000Y-54905000D03*
%TO.P,U3,5,UD+*%
%TO.N,Net-(P1-D+)*%
X92025000Y-53635000D03*
%TO.P,U3,4,V3*%
%TO.N,Net-(U3-V3)*%
X92025000Y-52365000D03*
%TO.P,U3,3,RXD*%
%TO.N,Net-(U2-PD1)*%
X92025000Y-51095000D03*
%TO.P,U3,2,TXD*%
%TO.N,Net-(U2-PD0)*%
X92025000Y-49825000D03*
%TO.P,U3,1,GND*%
%TO.N,GND*%
X92025000Y-48555000D03*
%TD*%
D16*
%TO.P,R7,1*%
%TO.N,Net-(J1-CC1)*%
X109500000Y-55500000D03*
%TO.P,R7,2*%
%TO.N,GND*%
X109500000Y-57150000D03*
%TD*%
%TO.P,R6,1*%
%TO.N,Net-(J1-CC2)*%
X108000000Y-55350000D03*
%TO.P,R6,2*%
%TO.N,GND*%
X108000000Y-57000000D03*
%TD*%
D17*
%TO.P,R5,1*%
%TO.N,Net-(P1-CC)*%
X82380000Y-51475000D03*
%TO.P,R5,2*%
%TO.N,GND*%
X80730000Y-51475000D03*
%TD*%
D18*
%TO.P,P1,S1,SHIELD*%
%TO.N,GND*%
X85555000Y-56975000D03*
X85555000Y-49075000D03*
D19*
%TO.P,P1,B12,GND*%
X86825000Y-50225000D03*
%TO.P,P1,B9,VBUS*%
%TO.N,VCC*%
X86825000Y-51025000D03*
%TO.P,P1,B8*%
%TO.N,N/C*%
X86825000Y-51825000D03*
%TO.P,P1,B7*%
X86825000Y-52625000D03*
%TO.P,P1,B6*%
X86825000Y-53425000D03*
%TO.P,P1,B5,VCONN*%
%TO.N,unconnected-(P1-VCONN-PadB5)*%
X86825000Y-54225000D03*
%TO.P,P1,B4,VBUS*%
%TO.N,VCC*%
X86825000Y-55025000D03*
%TO.P,P1,B1,GND*%
%TO.N,GND*%
X86825000Y-55825000D03*
%TO.P,P1,A12,GND*%
X84285000Y-55825000D03*
%TO.P,P1,A9,VBUS*%
%TO.N,VCC*%
X84285000Y-55025000D03*
%TO.P,P1,A8*%
%TO.N,N/C*%
X84285000Y-54225000D03*
%TO.P,P1,A7,D-*%
%TO.N,Net-(P1-D-)*%
X84285000Y-53425000D03*
%TO.P,P1,A6,D+*%
%TO.N,Net-(P1-D+)*%
X84285000Y-52625000D03*
%TO.P,P1,A5,CC*%
%TO.N,Net-(P1-CC)*%
X84285000Y-51825000D03*
%TO.P,P1,A4,VBUS*%
%TO.N,VCC*%
X84285000Y-51025000D03*
%TO.P,P1,A1,GND*%
%TO.N,GND*%
X84285000Y-50225000D03*
%TD*%
D20*
%TO.P,J1,A5,CC1*%
%TO.N,Net-(J1-CC1)*%
X109000000Y-53080000D03*
D21*
%TO.P,J1,A9,VBUS*%
%TO.N,VCC*%
X106980000Y-53080000D03*
D22*
%TO.P,J1,A12,GND*%
%TO.N,GND*%
X105750000Y-53080000D03*
D23*
%TO.P,J1,B5,CC2*%
%TO.N,Net-(J1-CC2)*%
X108000000Y-53080000D03*
D24*
%TO.P,J1,B9,VBUS*%
%TO.N,VCC*%
X110020000Y-53080000D03*
D25*
%TO.P,J1,B12,GND*%
%TO.N,GND*%
X111250000Y-53080000D03*
D26*
%TO.P,J1,S1,SHIELD*%
X112820000Y-53000000D03*
X112820000Y-49200000D03*
X104180000Y-53000000D03*
X104180000Y-49200000D03*
%TD*%
D27*
%TO.P,C6,1*%
%TO.N,GND*%
X103150000Y-67625000D03*
%TO.P,C6,2*%
%TO.N,VCC*%
X101600000Y-67625000D03*
%TD*%
D28*
%TO.P,TP3,1,1*%
%TO.N,Net-(U2-PD4)*%
X63000000Y-69650000D03*
%TD*%
D29*
%TO.P,D1,1,K*%
%TO.N,GND*%
X98287500Y-65000000D03*
%TO.P,D1,2,A*%
%TO.N,Net-(D1-A)*%
X96712500Y-65000000D03*
%TD*%
D30*
%TO.P,Y1,1,1*%
%TO.N,Net-(U2-PD7)*%
X81100000Y-77150000D03*
%TO.P,Y1,2,2*%
%TO.N,Net-(U2-PD6)*%
X78900000Y-77150000D03*
%TO.P,Y1,3*%
%TO.N,N/C*%
X78900000Y-78850000D03*
%TO.P,Y1,4*%
X81100000Y-78850000D03*
%TD*%
D28*
%TO.P,TP4,1,1*%
%TO.N,GND*%
X107000000Y-80000000D03*
%TD*%
%TO.P,TP2,1,1*%
%TO.N,Net-(U2-PD3)*%
X63000000Y-65250000D03*
%TD*%
D10*
%TO.P,C4,1*%
%TO.N,Net-(U2-PD7)*%
X83225000Y-77500000D03*
%TO.P,C4,2*%
%TO.N,GND*%
X84775000Y-77500000D03*
%TD*%
D16*
%TO.P,R3,1*%
%TO.N,VCC*%
X80500000Y-61175000D03*
%TO.P,R3,2*%
%TO.N,Net-(U1-SCK)*%
X80500000Y-62825000D03*
%TD*%
%TO.P,R1,1*%
%TO.N,VCC*%
X69500000Y-64675000D03*
%TO.P,R1,2*%
%TO.N,Net-(J2-Pin_5)*%
X69500000Y-66325000D03*
%TD*%
D17*
%TO.P,R4,1*%
%TO.N,Net-(D1-A)*%
X94287500Y-65000000D03*
%TO.P,R4,2*%
%TO.N,Net-(J2-Pin_4)*%
X92637500Y-65000000D03*
%TD*%
D31*
%TO.P,J2,1,Pin_1*%
%TO.N,Net-(J2-Pin_1)*%
X71340000Y-51460000D03*
D32*
%TO.P,J2,2,Pin_2*%
%TO.N,VCC*%
X73880000Y-51460000D03*
%TO.P,J2,3,Pin_3*%
%TO.N,Net-(J2-Pin_3)*%
X71340000Y-54000000D03*
%TO.P,J2,4,Pin_4*%
%TO.N,Net-(J2-Pin_4)*%
X73880000Y-54000000D03*
%TO.P,J2,5,Pin_5*%
%TO.N,Net-(J2-Pin_5)*%
X71340000Y-56540000D03*
%TO.P,J2,6,Pin_6*%
%TO.N,GND*%
X73880000Y-56540000D03*
%TD*%
D33*
%TO.P,U2,1,PD3*%
%TO.N,Net-(U2-PD3)*%
X77337500Y-67037500D03*
%TO.P,U2,2,PD4*%
%TO.N,Net-(U2-PD4)*%
X77337500Y-67837500D03*
%TO.P,U2,3,GND*%
%TO.N,GND*%
X77337500Y-68637500D03*
%TO.P,U2,4,VCC*%
%TO.N,VCC*%
X77337500Y-69437500D03*
%TO.P,U2,5,GND*%
%TO.N,GND*%
X77337500Y-70237500D03*
%TO.P,U2,6,VCC*%
%TO.N,VCC*%
X77337500Y-71037500D03*
%TO.P,U2,7,XTAL1/PB6*%
%TO.N,unconnected-(U2-XTAL1{slash}PB6-Pad7)*%
X77337500Y-71837500D03*
%TO.P,U2,8,XTAL2/PB7*%
%TO.N,unconnected-(U2-XTAL2{slash}PB7-Pad8)*%
X77337500Y-72637500D03*
D34*
%TO.P,U2,9,PD5*%
%TO.N,unconnected-(U2-PD5-Pad9)*%
X78700000Y-74000000D03*
%TO.P,U2,10,PD6*%
%TO.N,Net-(U2-PD6)*%
X79500000Y-74000000D03*
%TO.P,U2,11,PD7*%
%TO.N,Net-(U2-PD7)*%
X80300000Y-74000000D03*
%TO.P,U2,12,PB0*%
%TO.N,Net-(U2-PB0)*%
X81100000Y-74000000D03*
%TO.P,U2,13,PB1*%
%TO.N,unconnected-(U2-PB1-Pad13)*%
X81900000Y-74000000D03*
%TO.P,U2,14,PB2*%
%TO.N,unconnected-(U2-PB2-Pad14)*%
X82700000Y-74000000D03*
%TO.P,U2,15,PB3*%
%TO.N,Net-(J2-Pin_1)*%
X83500000Y-74000000D03*
%TO.P,U2,16,PB4*%
%TO.N,Net-(J2-Pin_3)*%
X84300000Y-74000000D03*
D33*
%TO.P,U2,17,PB5*%
%TO.N,Net-(J2-Pin_4)*%
X85662500Y-72637500D03*
%TO.P,U2,18,AVCC*%
%TO.N,VCC*%
X85662500Y-71837500D03*
%TO.P,U2,19,ADC6*%
%TO.N,unconnected-(U2-ADC6-Pad19)*%
X85662500Y-71037500D03*
%TO.P,U2,20,AREF*%
%TO.N,unconnected-(U2-AREF-Pad20)*%
X85662500Y-70237500D03*
%TO.P,U2,21,GND*%
%TO.N,GND*%
X85662500Y-69437500D03*
%TO.P,U2,22,ADC7*%
%TO.N,unconnected-(U2-ADC7-Pad22)*%
X85662500Y-68637500D03*
%TO.P,U2,23,PC0*%
%TO.N,unconnected-(U2-PC0-Pad23)*%
X85662500Y-67837500D03*
%TO.P,U2,24,PC1*%
%TO.N,unconnected-(U2-PC1-Pad24)*%
X85662500Y-67037500D03*
D34*
%TO.P,U2,25,PC2*%
%TO.N,unconnected-(U2-PC2-Pad25)*%
X84300000Y-65675000D03*
%TO.P,U2,26,PC3*%
%TO.N,unconnected-(U2-PC3-Pad26)*%
X83500000Y-65675000D03*
%TO.P,U2,27,PC4*%
%TO.N,Net-(U1-SDI)*%
X82700000Y-65675000D03*
%TO.P,U2,28,PC5*%
%TO.N,Net-(U1-SCK)*%
X81900000Y-65675000D03*
%TO.P,U2,29,~{RESET}/PC6*%
%TO.N,Net-(J2-Pin_5)*%
X81100000Y-65675000D03*
%TO.P,U2,30,PD0*%
%TO.N,Net-(U2-PD0)*%
X80300000Y-65675000D03*
%TO.P,U2,31,PD1*%
%TO.N,Net-(U2-PD1)*%
X79500000Y-65675000D03*
%TO.P,U2,32,PD2*%
%TO.N,Net-(U2-PD2)*%
X78700000Y-65675000D03*
%TD*%
D35*
%TO.P,C1,1*%
%TO.N,VCC*%
X88500000Y-71275000D03*
%TO.P,C1,2*%
%TO.N,GND*%
X88500000Y-69725000D03*
%TD*%
D16*
%TO.P,R2,1*%
%TO.N,VCC*%
X84675000Y-61175000D03*
%TO.P,R2,2*%
%TO.N,Net-(U1-SDI)*%
X84675000Y-62825000D03*
%TD*%
D10*
%TO.P,C3,1*%
%TO.N,GND*%
X74725000Y-77500000D03*
%TO.P,C3,2*%
%TO.N,Net-(U2-PD6)*%
X76275000Y-77500000D03*
%TD*%
D35*
%TO.P,C2,1*%
%TO.N,VCC*%
X73000000Y-71275000D03*
%TO.P,C2,2*%
%TO.N,GND*%
X73000000Y-69725000D03*
%TD*%
D36*
%TO.P,SW1,1,1*%
%TO.N,Net-(U2-PB0)*%
X61945000Y-75680000D03*
X69565000Y-75680000D03*
%TO.P,SW1,2,2*%
%TO.N,GND*%
X61945000Y-80760000D03*
X69565000Y-80760000D03*
%TD*%
D28*
%TO.P,TP1,1,1*%
%TO.N,Net-(U2-PD2)*%
X63000000Y-60200000D03*
%TD*%
D37*
%TO.N,GND*%
X85500000Y-56000000D03*
%TO.N,VCC*%
X82939000Y-55004786D03*
X84285000Y-55025000D03*
%TO.N,GND*%
X91524998Y-71000000D03*
X75000000Y-56000000D03*
X80730000Y-51475000D03*
%TO.N,VCC*%
X72000000Y-65000000D03*
X80500000Y-61175000D03*
%TO.N,Net-(U2-PD0)*%
X92025000Y-49825000D03*
%TO.N,Net-(U2-PD1)*%
X92025000Y-51095000D03*
%TO.N,Net-(U2-PD0)*%
X80300000Y-65675000D03*
%TO.N,Net-(U2-PD1)*%
X79477196Y-65536261D03*
%TO.N,Net-(U1-SCK)*%
X80500000Y-62825000D03*
X81503394Y-64492761D03*
%TO.N,VCC*%
X80000000Y-71000000D03*
%TO.N,GND*%
X81744614Y-71650000D03*
X90055000Y-50200000D03*
X86825000Y-50225000D03*
%TO.N,Net-(U2-PD4)*%
X77337500Y-67837500D03*
%TO.N,Net-(U2-PD3)*%
X77646025Y-67012500D03*
%TO.N,Net-(U2-PD2)*%
X78640422Y-65685635D03*
%TO.N,GND*%
X99500000Y-65000000D03*
X103000000Y-66000000D03*
%TO.N,VCC*%
X105500000Y-57500000D03*
X106000000Y-55500000D03*
%TO.N,Net-(U1-SCK)*%
X82000000Y-67500000D03*
%TO.N,Net-(U1-SDI)*%
X92670114Y-70316170D03*
%TO.N,Net-(U1-SCK)*%
X93500000Y-70500000D03*
%TO.N,VCC*%
X85555000Y-47475000D03*
X85555000Y-51025000D03*
X74606048Y-70300000D03*
X75627880Y-68627880D03*
%TO.N,GND*%
X92200000Y-73700000D03*
X73880000Y-66325000D03*
X86000000Y-76000000D03*
X73880000Y-60880000D03*
X72000000Y-68000000D03*
%TO.N,Net-(U2-PD6)*%
X79500000Y-73850000D03*
X79994329Y-75924911D03*
%TO.N,Net-(U2-PD7)*%
X80772980Y-75688488D03*
X80500000Y-72500000D03*
%TO.N,Net-(J2-Pin_3)*%
X68500000Y-54000000D03*
%TO.N,Net-(U1-SDI)*%
X83500000Y-62500000D03*
X83500000Y-62500000D03*
X82700000Y-65675000D03*
%TO.N,Net-(U2-PB0)*%
X81100000Y-74000000D03*
%TO.N,Net-(J2-Pin_5)*%
X73000000Y-68000000D03*
X77649954Y-64850000D03*
%TO.N,VCC*%
X87702000Y-72000000D03*
X85500000Y-71862500D03*
%TD*%
D38*
%TO.N,GND*%
X106275000Y-69500000D02*
X105950110Y-69500000D01*
X105950110Y-69500000D02*
X105476000Y-69025890D01*
X106275000Y-69500000D02*
X106275000Y-72010000D01*
X105476000Y-69025890D02*
X104075110Y-67625000D01*
X105174110Y-70276000D02*
X105476000Y-69974110D01*
%TO.N,Net-(U1-VDD)*%
X104715000Y-72000000D02*
X104725000Y-72010000D01*
%TO.N,GND*%
X105174110Y-71234000D02*
X105174110Y-70276000D01*
X105476000Y-71535890D02*
X105174110Y-71234000D01*
X104075110Y-67625000D02*
X103150000Y-67625000D01*
X105476000Y-72484110D02*
X105476000Y-71535890D01*
%TO.N,Net-(U1-VDD)*%
X102150000Y-72000000D02*
X104715000Y-72000000D01*
%TO.N,GND*%
X105174110Y-72786000D02*
X105476000Y-72484110D01*
X104275890Y-72786000D02*
X105174110Y-72786000D01*
X103150000Y-74300000D02*
X103900000Y-73550000D01*
X103900000Y-73550000D02*
X103900000Y-73161890D01*
X105476000Y-69974110D02*
X105476000Y-69025890D01*
X103900000Y-73161890D02*
X104275890Y-72786000D01*
X102150000Y-74300000D02*
X103150000Y-74300000D01*
%TO.N,VCC*%
X102150000Y-69700000D02*
X104525000Y-69700000D01*
X104525000Y-69700000D02*
X104725000Y-69500000D01*
%TO.N,GND*%
X84285000Y-55825000D02*
X85325000Y-55825000D01*
X85325000Y-55825000D02*
X85500000Y-56000000D01*
%TO.N,Net-(P1-D-)*%
X83890001Y-53425000D02*
X83589000Y-53726001D01*
%TO.N,VCC*%
X84675000Y-61175000D02*
X82939000Y-59439000D01*
%TO.N,Net-(P1-D-)*%
X91050001Y-54905000D02*
X92025000Y-54905000D01*
X88354001Y-57601000D02*
X91050001Y-54905000D01*
X84721010Y-57601000D02*
X88354001Y-57601000D01*
%TO.N,VCC*%
X82939000Y-59439000D02*
X82939000Y-55004786D01*
%TO.N,Net-(P1-D-)*%
X84285000Y-53425000D02*
X83890001Y-53425000D01*
X83589000Y-56468990D02*
X84721010Y-57601000D01*
X83589000Y-53726001D02*
X83589000Y-56468990D01*
%TO.N,VCC*%
X89350000Y-71650000D02*
X92000000Y-71650000D01*
X88500000Y-71275000D02*
X88975000Y-71275000D01*
X88975000Y-71275000D02*
X89350000Y-71650000D01*
X92000000Y-71650000D02*
X92200000Y-71450000D01*
X92200000Y-71450000D02*
X92200000Y-71000000D01*
X106980000Y-53080000D02*
X106980000Y-52480000D01*
X106980000Y-52480000D02*
X107281000Y-52179000D01*
X110020000Y-52480000D02*
X110020000Y-53080000D01*
X107281000Y-52179000D02*
X109719000Y-52179000D01*
X109719000Y-52179000D02*
X110020000Y-52480000D01*
%TO.N,GND*%
X73880000Y-56540000D02*
X74460000Y-56540000D01*
X74460000Y-56540000D02*
X75000000Y-56000000D01*
%TO.N,Net-(J2-Pin_3)*%
X68500000Y-54000000D02*
X68500000Y-62067100D01*
X72830000Y-66759925D02*
X73445076Y-67375000D01*
X68500000Y-62067100D02*
X71350000Y-64917100D01*
X73807900Y-67375000D02*
X74977880Y-68544980D01*
X76271400Y-71098530D02*
X76271400Y-72932844D01*
X71350000Y-64917100D02*
X71350000Y-65269239D01*
X71350000Y-65269239D02*
X71730761Y-65650000D01*
X71730761Y-65650000D02*
X72082900Y-65650000D01*
X83998999Y-75038500D02*
X84300000Y-74737499D01*
X74977880Y-68897119D02*
X75899000Y-69818239D01*
X72830000Y-66397100D02*
X72830000Y-66759925D01*
X73445076Y-67375000D02*
X73807900Y-67375000D01*
X75899000Y-70726130D02*
X76271400Y-71098530D01*
X75899000Y-69818239D02*
X75899000Y-70726130D01*
X78377056Y-75038500D02*
X83998999Y-75038500D01*
X74977880Y-68544980D02*
X74977880Y-68897119D01*
X76271400Y-72932844D02*
X78377056Y-75038500D01*
X72082900Y-65650000D02*
X72830000Y-66397100D01*
X84300000Y-74737499D02*
X84300000Y-74000000D01*
%TO.N,Net-(J2-Pin_5)*%
X80334314Y-64600000D02*
X80297814Y-64636500D01*
%TO.N,Net-(U2-PD1)*%
X79500000Y-65513457D02*
X79477196Y-65536261D01*
%TO.N,Net-(J2-Pin_5)*%
X80762499Y-64600000D02*
X80334314Y-64600000D01*
X80297814Y-64636500D02*
X79702185Y-64636500D01*
%TO.N,Net-(U2-PD2)*%
X78700000Y-65745213D02*
X78640422Y-65685635D01*
%TO.N,Net-(J2-Pin_5)*%
X81100000Y-64937501D02*
X80762499Y-64600000D01*
X79665685Y-64600000D02*
X79334315Y-64600000D01*
%TO.N,Net-(U2-PD0)*%
X80275000Y-65703633D02*
X80275000Y-66063540D01*
%TO.N,Net-(J2-Pin_5)*%
X79297815Y-64636500D02*
X77863454Y-64636500D01*
X81100000Y-65675000D02*
X81100000Y-64937501D01*
%TO.N,Net-(U2-PD1)*%
X79500000Y-66500000D02*
X79500000Y-65559065D01*
%TO.N,Net-(J2-Pin_5)*%
X79702185Y-64636500D02*
X79665685Y-64600000D01*
X77863454Y-64636500D02*
X77649954Y-64850000D01*
%TO.N,Net-(U2-PD2)*%
X78850000Y-66562499D02*
X78700000Y-66412499D01*
%TO.N,Net-(U2-PD1)*%
X79500000Y-65559065D02*
X79477196Y-65536261D01*
X79500000Y-65000000D02*
X79500000Y-65513457D01*
%TO.N,Net-(J2-Pin_5)*%
X79334315Y-64600000D02*
X79297815Y-64636500D01*
%TO.N,Net-(U2-PD2)*%
X78700000Y-66412499D02*
X78700000Y-65745213D01*
X78850000Y-66769239D02*
X78850000Y-66562499D01*
%TO.N,Net-(U2-PD0)*%
X80300000Y-65675000D02*
X80300000Y-65678633D01*
X80300000Y-65678633D02*
X80275000Y-65703633D01*
%TO.N,Net-(J2-Pin_4)*%
X81772633Y-63842761D02*
X81920484Y-63990612D01*
X83977056Y-63990612D02*
X86701000Y-66714556D01*
X79177056Y-63990612D02*
X81086304Y-63990612D01*
X81920484Y-63990612D02*
X83977056Y-63990612D01*
X81086304Y-63990612D02*
X81234155Y-63842761D01*
X86701000Y-66714556D02*
X86701000Y-69000000D01*
%TO.N,Net-(U1-SCK)*%
X81900000Y-65675000D02*
X81900000Y-64889367D01*
X81900000Y-64889367D02*
X81503394Y-64492761D01*
%TO.N,Net-(J2-Pin_4)*%
X79177056Y-59297056D02*
X79177056Y-63990612D01*
X81234155Y-63842761D02*
X81772633Y-63842761D01*
X73880000Y-54000000D02*
X79177056Y-59297056D01*
%TO.N,GND*%
X80332114Y-70237500D02*
X81744614Y-71650000D01*
X77337500Y-70237500D02*
X80332114Y-70237500D01*
%TO.N,VCC*%
X79962500Y-71037500D02*
X80000000Y-71000000D01*
X77337500Y-71037500D02*
X79962500Y-71037500D01*
X76299000Y-69738501D02*
X76299000Y-70560444D01*
X76600001Y-69437500D02*
X76299000Y-69738501D01*
X76299000Y-70560444D02*
X76776056Y-71037500D01*
X77337500Y-69437500D02*
X76600001Y-69437500D01*
X76776056Y-71037500D02*
X77337500Y-71037500D01*
%TO.N,Net-(P1-D+)*%
X90714890Y-53635000D02*
X92025000Y-53635000D01*
X88114000Y-51034110D02*
X90714890Y-53635000D01*
X88114000Y-50549130D02*
X88114000Y-51034110D01*
X86656000Y-48716010D02*
X86656000Y-49091130D01*
X80029000Y-51963064D02*
X80029000Y-50986936D01*
X86388990Y-48449000D02*
X86656000Y-48716010D01*
X84721010Y-48449000D02*
X86388990Y-48449000D01*
X83446010Y-49724000D02*
X84721010Y-48449000D01*
X81291936Y-49724000D02*
X83446010Y-49724000D01*
X86656000Y-49091130D02*
X88114000Y-50549130D01*
X80029000Y-50986936D02*
X81291936Y-49724000D01*
X80690936Y-52625000D02*
X80029000Y-51963064D01*
X84285000Y-52625000D02*
X80690936Y-52625000D01*
%TO.N,VCC*%
X73230000Y-66594239D02*
X73610761Y-66975000D01*
X77337500Y-69437500D02*
X76437500Y-69437500D01*
X76437500Y-69437500D02*
X75627880Y-68627880D01*
X70189000Y-53500000D02*
X70189000Y-63189000D01*
X73610761Y-66975000D02*
X73975000Y-66975000D01*
X70189000Y-63189000D02*
X73230000Y-66230000D01*
X73975000Y-66975000D02*
X75627880Y-68627880D01*
X73230000Y-66230000D02*
X73230000Y-66594239D01*
X73000000Y-71275000D02*
X73631048Y-71275000D01*
X73631048Y-71275000D02*
X74606048Y-70300000D01*
%TO.N,GND*%
X77337500Y-68637500D02*
X76600001Y-68637500D01*
X74287501Y-66325000D02*
X73880000Y-66325000D01*
X76600001Y-68637500D02*
X74287501Y-66325000D01*
X102150000Y-74300000D02*
X102150000Y-75150000D01*
X102150000Y-75150000D02*
X107000000Y-80000000D01*
X99500000Y-65000000D02*
X99500000Y-61500000D01*
X99500000Y-61500000D02*
X104000000Y-57000000D01*
X98287500Y-65000000D02*
X99500000Y-65000000D01*
X103000000Y-66000000D02*
X103000000Y-67475000D01*
X103000000Y-67475000D02*
X103150000Y-67625000D01*
X105080761Y-57000000D02*
X105230761Y-56850000D01*
X105230761Y-56850000D02*
X105769239Y-56850000D01*
X104000000Y-57000000D02*
X105080761Y-57000000D01*
X103430000Y-56430000D02*
X104000000Y-57000000D01*
X103430000Y-53450000D02*
X103430000Y-56430000D01*
X104180000Y-53000000D02*
X103880000Y-53000000D01*
X103880000Y-53000000D02*
X103430000Y-53450000D01*
%TO.N,VCC*%
X101600000Y-67625000D02*
X101600000Y-61400000D01*
%TO.N,GND*%
X105919239Y-57000000D02*
X108000000Y-57000000D01*
X105769239Y-56850000D02*
X105919239Y-57000000D01*
%TO.N,VCC*%
X101600000Y-61400000D02*
X105500000Y-57500000D01*
X106000000Y-55500000D02*
X106980000Y-54520000D01*
X106980000Y-54520000D02*
X106980000Y-53080000D01*
%TO.N,GND*%
X112820000Y-53000000D02*
X112820000Y-49200000D01*
X104180000Y-53000000D02*
X104180000Y-49200000D01*
X104180000Y-53000000D02*
X105670000Y-53000000D01*
X105670000Y-53000000D02*
X105750000Y-53080000D01*
X108000000Y-57000000D02*
X109350000Y-57000000D01*
X109350000Y-57000000D02*
X109500000Y-57150000D01*
X111250000Y-53080000D02*
X111250000Y-55400000D01*
X111250000Y-55400000D02*
X109500000Y-57150000D01*
X112820000Y-53000000D02*
X111330000Y-53000000D01*
X111330000Y-53000000D02*
X111250000Y-53080000D01*
%TO.N,Net-(J1-CC1)*%
X109500000Y-55500000D02*
X109000000Y-55000000D01*
X109000000Y-55000000D02*
X109000000Y-53080000D01*
%TO.N,Net-(J1-CC2)*%
X108000000Y-55350000D02*
X108000000Y-53080000D01*
%TO.N,Net-(U1-SCK)*%
X82000000Y-65775000D02*
X81900000Y-65675000D01*
X82000000Y-67500000D02*
X82000000Y-65775000D01*
X93500000Y-71000000D02*
X93500000Y-70500000D01*
%TO.N,GND*%
X88500000Y-69725000D02*
X88725000Y-69725000D01*
X88725000Y-69725000D02*
X90000000Y-71000000D01*
X90000000Y-71000000D02*
X91550000Y-71000000D01*
%TO.N,Net-(U1-VDD)*%
X95850000Y-72000000D02*
X93450000Y-72000000D01*
X93450000Y-72000000D02*
X92850000Y-72600000D01*
X92850000Y-72600000D02*
X92850000Y-73050000D01*
X102150000Y-72000000D02*
X95850000Y-72000000D01*
%TO.N,GND*%
X93000000Y-74500000D02*
X101950000Y-74500000D01*
X101950000Y-74500000D02*
X102150000Y-74300000D01*
%TO.N,VCC*%
X85555000Y-47475000D02*
X95895000Y-47475000D01*
X95895000Y-47475000D02*
X96975000Y-48555000D01*
X87521000Y-51441000D02*
X87521000Y-51975000D01*
X84285000Y-51025000D02*
X85555000Y-51025000D01*
X87521000Y-51975000D02*
X87521000Y-51326001D01*
X87521000Y-51326001D02*
X87219999Y-51025000D01*
X87219999Y-51025000D02*
X85555000Y-51025000D01*
%TO.N,Net-(U3-V3)*%
X90055000Y-51750000D02*
X91410000Y-51750000D01*
X91410000Y-51750000D02*
X92025000Y-52365000D01*
%TO.N,GND*%
X90055000Y-50200000D02*
X90055000Y-49750000D01*
X90055000Y-49750000D02*
X91250000Y-48555000D01*
X91250000Y-48555000D02*
X92025000Y-48555000D01*
%TO.N,VCC*%
X86825000Y-51025000D02*
X87105000Y-51025000D01*
X87105000Y-51025000D02*
X87521000Y-51441000D01*
X87521000Y-51975000D02*
X87521000Y-54493870D01*
X86989870Y-55025000D02*
X86825000Y-55025000D01*
X87521000Y-54493870D02*
X86989870Y-55025000D01*
%TO.N,GND*%
X86825000Y-50225000D02*
X86705000Y-50225000D01*
X86705000Y-50225000D02*
X85555000Y-49075000D01*
X84285000Y-50225000D02*
X84405000Y-50225000D01*
X84405000Y-50225000D02*
X85555000Y-49075000D01*
X85555000Y-56975000D02*
X85435000Y-56975000D01*
X85435000Y-56975000D02*
X84285000Y-55825000D01*
X85555000Y-56975000D02*
X85675000Y-56975000D01*
X85675000Y-56975000D02*
X86825000Y-55825000D01*
%TO.N,VCC*%
X84285000Y-55025000D02*
X86825000Y-55025000D01*
X85555000Y-51025000D02*
X86825000Y-51025000D01*
%TO.N,GND*%
X80730000Y-51475000D02*
X81980000Y-50225000D01*
X81980000Y-50225000D02*
X84285000Y-50225000D01*
%TO.N,Net-(P1-CC)*%
X84285000Y-51825000D02*
X82730000Y-51825000D01*
X82730000Y-51825000D02*
X82380000Y-51475000D01*
%TO.N,GND*%
X92200000Y-73050000D02*
X92200000Y-73700000D01*
X93000000Y-74500000D02*
X92200000Y-73700000D01*
X93000000Y-74500000D02*
X93500000Y-74000000D01*
X93500000Y-74000000D02*
X93500000Y-73050000D01*
%TO.N,Net-(U1-VDD)*%
X92850000Y-73050000D02*
X92850000Y-72673000D01*
X92676000Y-72499000D02*
X91651000Y-72499000D01*
X91651000Y-72499000D02*
X91550000Y-72600000D01*
X92850000Y-72673000D02*
X92676000Y-72499000D01*
X91550000Y-72600000D02*
X91550000Y-73050000D01*
X91550000Y-73050000D02*
X91550000Y-74400000D01*
X91550000Y-74400000D02*
X91450000Y-74500000D01*
%TO.N,VCC*%
X102150000Y-69700000D02*
X101850000Y-69700000D01*
X101850000Y-69700000D02*
X101600000Y-69450000D01*
X101600000Y-69450000D02*
X101600000Y-67625000D01*
%TO.N,GND*%
X79112443Y-70237500D02*
X79601000Y-69748943D01*
X84877056Y-73213500D02*
X84624000Y-72960444D01*
X88500000Y-69725000D02*
X87102000Y-71123000D01*
X84877056Y-74000000D02*
X84877056Y-73213500D01*
X78987443Y-68637500D02*
X77337500Y-68637500D01*
X74725000Y-77500000D02*
X72825000Y-77500000D01*
X74000000Y-61000000D02*
X73880000Y-60880000D01*
X87102000Y-71123000D02*
X87102000Y-72559444D01*
X84925001Y-69437500D02*
X85662500Y-69437500D01*
X73000000Y-69000000D02*
X73000000Y-69725000D01*
X72825000Y-77500000D02*
X69565000Y-80760000D01*
X79601000Y-69251057D02*
X78987443Y-68637500D01*
X84877056Y-76000000D02*
X84877056Y-74000000D01*
X74725000Y-77500000D02*
X72000000Y-74775000D01*
X79601000Y-69748943D02*
X79601000Y-69251057D01*
X84624000Y-69738501D02*
X84925001Y-69437500D01*
X77337500Y-70237500D02*
X79112443Y-70237500D01*
X72000000Y-68000000D02*
X73000000Y-69000000D01*
X87102000Y-72559444D02*
X85661444Y-74000000D01*
X72000000Y-74775000D02*
X72000000Y-68000000D01*
X73880000Y-56540000D02*
X73880000Y-60880000D01*
X84624000Y-72960444D02*
X84624000Y-69738501D01*
X85661444Y-74000000D02*
X84877056Y-74000000D01*
X84877056Y-77397944D02*
X84877056Y-76000000D01*
X61945000Y-80760000D02*
X69565000Y-80760000D01*
X86000000Y-76000000D02*
X84877056Y-76000000D01*
X84775000Y-77500000D02*
X84877056Y-77397944D01*
%TO.N,VCC*%
X80500000Y-61175000D02*
X84675000Y-61175000D01*
X69689000Y-53000000D02*
X70189000Y-53500000D01*
X73880000Y-51460000D02*
X72729000Y-50309000D01*
X70189000Y-50309000D02*
X70189000Y-53500000D01*
X68650057Y-53000000D02*
X69689000Y-53000000D01*
X72729000Y-50309000D02*
X70189000Y-50309000D01*
X69500000Y-64675000D02*
X67899000Y-63074000D01*
X67899000Y-63074000D02*
X67899000Y-53751057D01*
X67899000Y-53751057D02*
X68650057Y-53000000D01*
%TO.N,Net-(U2-PD6)*%
X78900000Y-77150000D02*
X79600000Y-77150000D01*
X79600000Y-77150000D02*
X79994329Y-76755671D01*
X78419240Y-77500000D02*
X79994329Y-75924911D01*
X76275000Y-77500000D02*
X78419240Y-77500000D01*
X79994329Y-76755671D02*
X79994329Y-75924911D01*
%TO.N,Net-(U2-PD7)*%
X80750000Y-75750000D02*
X80772980Y-75727020D01*
X83225000Y-77500000D02*
X82584492Y-77500000D01*
X80500000Y-73800000D02*
X80300000Y-74000000D01*
X81100000Y-77150000D02*
X81100000Y-76100000D01*
X82584492Y-77500000D02*
X80772980Y-75688488D01*
X80500000Y-72500000D02*
X80500000Y-73800000D01*
X81100000Y-76100000D02*
X80750000Y-75750000D01*
X80750000Y-75750000D02*
X80500000Y-75500000D01*
X80772980Y-75727020D02*
X80772980Y-75688488D01*
%TO.N,Net-(D1-A)*%
X94287500Y-65000000D02*
X96712500Y-65000000D01*
%TO.N,Net-(J2-Pin_1)*%
X72491000Y-60827444D02*
X78450000Y-66786444D01*
X78450000Y-66934925D02*
X82394614Y-70879539D01*
X82394614Y-71733093D02*
X83500000Y-72838479D01*
X71340000Y-51460000D02*
X72491000Y-52611000D01*
X83500000Y-72838479D02*
X83500000Y-74000000D01*
X72491000Y-52611000D02*
X72491000Y-60827444D01*
X82394614Y-70879539D02*
X82394614Y-71733093D01*
X78450000Y-66786444D02*
X78450000Y-66934925D01*
%TO.N,Net-(J2-Pin_4)*%
X90787500Y-68500000D02*
X92637500Y-66650000D01*
X86701000Y-72336499D02*
X86399999Y-72637500D01*
X92637500Y-66650000D02*
X92637500Y-65000000D01*
X86701000Y-69000000D02*
X86701000Y-72336499D01*
X86399999Y-72637500D02*
X85662500Y-72637500D01*
X87201000Y-68500000D02*
X86701000Y-69000000D01*
X90787500Y-68500000D02*
X87201000Y-68500000D01*
%TO.N,Net-(U1-SDI)*%
X83675000Y-62825000D02*
X84675000Y-62825000D01*
X83500000Y-62500000D02*
X83500000Y-62650000D01*
X83500000Y-62650000D02*
X83675000Y-62825000D01*
%TO.N,Net-(J2-Pin_5)*%
X71325000Y-66325000D02*
X73000000Y-68000000D01*
X69500000Y-66325000D02*
X71325000Y-66325000D01*
%TO.N,VCC*%
X85637500Y-71862500D02*
X85662500Y-71837500D01*
X87503000Y-72000000D02*
X87702000Y-72000000D01*
X88025000Y-71275000D02*
X87503000Y-71797000D01*
X88500000Y-71275000D02*
X88025000Y-71275000D01*
X85500000Y-71862500D02*
X85637500Y-71862500D01*
X87503000Y-71797000D02*
X87503000Y-72000000D01*
%TO.N,Net-(U1-SDI)*%
X92850000Y-70496056D02*
X92670114Y-70316170D01*
X92850000Y-71000000D02*
X92850000Y-70496056D01*
%TO.N,VCC*%
X102150000Y-69700000D02*
X92367045Y-69700000D01*
X92020114Y-70585409D02*
X92200000Y-70765295D01*
X92367045Y-69700000D02*
X92020114Y-70046931D01*
X92020114Y-70046931D02*
X92020114Y-70585409D01*
X92200000Y-70765295D02*
X92200000Y-71000000D01*
%TD*%
M02*
