M48
; DRILL file {KiCad 9.0.4} date 2026-05-08T12:34:48-0400
; FORMAT={-:-/ absolute / metric / decimal}
; #@! TF.CreationDate,2026-05-08T12:34:48-04:00
; #@! TF.GenerationSoftware,Kicad,Pcbnew,9.0.4
; #@! TF.FileFunction,Plated,1,4,PTH
FMAT,2
METRIC
; #@! TA.AperFunction,Plated,PTH,ViaDrill
T1C0.300
; #@! TA.AperFunction,Plated,PTH,ComponentDrill
T2C0.600
; #@! TA.AperFunction,Plated,PTH,ComponentDrill
T3C0.813
; #@! TA.AperFunction,Plated,PTH,ComponentDrill
T4C1.000
; #@! TA.AperFunction,Plated,PTH,ComponentDrill
T5C1.600
%
G90
G05
T1
X68.5Y-54.0
X72.0Y-65.0
X72.0Y-68.0
X73.0Y-68.0
X73.88Y-60.88
X73.88Y-66.325
X74.606Y-70.3
X75.0Y-56.0
X75.628Y-68.628
X77.65Y-64.85
X79.477Y-65.536
X79.5Y-73.85
X79.994Y-75.925
X80.0Y-71.0
X80.3Y-65.675
X80.5Y-61.175
X80.5Y-62.825
X80.5Y-72.5
X80.73Y-51.475
X80.773Y-75.688
X81.503Y-64.493
X81.745Y-71.65
X82.0Y-67.5
X82.7Y-65.675
X82.939Y-55.005
X83.5Y-62.5
X83.5Y-62.5
X84.285Y-55.025
X85.5Y-71.862
X85.555Y-47.475
X85.555Y-51.025
X86.0Y-76.0
X86.825Y-50.225
X87.702Y-72.0
X90.055Y-50.2
X91.525Y-71.0
X92.025Y-49.825
X92.025Y-51.095
X92.2Y-73.7
X92.67Y-70.316
X99.5Y-65.0
X103.0Y-66.0
X105.5Y-57.5
X106.0Y-55.5
T3
X61.945Y-75.68
X61.945Y-80.76
X69.565Y-75.68
X69.565Y-80.76
T4
X71.34Y-51.46
X71.34Y-54.0
X71.34Y-56.54
X73.88Y-51.46
X73.88Y-54.0
X73.88Y-56.54
T5
X63.0Y-60.2
X63.0Y-65.25
X63.0Y-69.65
X107.0Y-80.0
T2
G00X104.18Y-49.5
M15
G01X104.18Y-48.9
M16
G05
G00X104.18Y-53.3
M15
G01X104.18Y-52.7
M16
G05
G00X112.82Y-49.5
M15
G01X112.82Y-48.9
M16
G05
G00X112.82Y-53.3
M15
G01X112.82Y-52.7
M16
G05
M30
