%TF.GenerationSoftware,KiCad,Pcbnew,9.0.4*%
%TF.CreationDate,2026-05-12T14:01:29-04:00*%
%TF.ProjectId,ECET 230 - Design Option 3 - Panchal,45434554-2032-4333-9020-2d2044657369,rev?*%
%TF.SameCoordinates,Original*%
%TF.FileFunction,Legend,Top*%
%TF.FilePolarity,Positive*%
%FSLAX46Y46*%
G04 Gerber Fmt 4.6, Leading zero omitted, Abs format (unit mm)*
G04 Created by KiCad (PCBNEW 9.0.4) date 2026-05-12 14:01:29*
%MOMM*%
%LPD*%
G01*
G04 APERTURE LIST*
%ADD10C,0.300000*%
%ADD11C,0.150000*%
%ADD12C,0.120000*%
%ADD13C,0.100000*%
G04 APERTURE END LIST*
D10*
G36*
X84037086Y-58995535D02*
G01*
X84074090Y-59032539D01*
X84118796Y-59121951D01*
X84118796Y-59479704D01*
X84074089Y-59569117D01*
X84037084Y-59606122D01*
X83947672Y-59650828D01*
X83804206Y-59650828D01*
X83714792Y-59606121D01*
X83677787Y-59569116D01*
X83633082Y-59479704D01*
X83633082Y-59121951D01*
X83677787Y-59032540D01*
X83714792Y-58995535D01*
X83804206Y-58950828D01*
X83947672Y-58950828D01*
X84037086Y-58995535D01*
G37*
G36*
X89799749Y-60117495D02*
G01*
X81666415Y-60117495D01*
X81666415Y-58943685D01*
X81833082Y-58943685D01*
X81833082Y-59157971D01*
X81833584Y-59163074D01*
X81833259Y-59165262D01*
X81834878Y-59176212D01*
X81835964Y-59187235D01*
X81836811Y-59189279D01*
X81837561Y-59194351D01*
X81908989Y-59480065D01*
X81909760Y-59482223D01*
X81909837Y-59483304D01*
X81914495Y-59495478D01*
X81918882Y-59507756D01*
X81919526Y-59508626D01*
X81920346Y-59510767D01*
X81991775Y-59653624D01*
X81999702Y-59666217D01*
X82001218Y-59669877D01*
X82004599Y-59673996D01*
X82007440Y-59678510D01*
X82010433Y-59681106D01*
X82019873Y-59692608D01*
X82162730Y-59835466D01*
X82185460Y-59854121D01*
X82190439Y-59856183D01*
X82194511Y-59859715D01*
X82221362Y-59871703D01*
X82435648Y-59943131D01*
X82450160Y-59946430D01*
X82453818Y-59947946D01*
X82459120Y-59948468D01*
X82464322Y-59949651D01*
X82468276Y-59949369D01*
X82483082Y-59950828D01*
X82625939Y-59950828D01*
X82640744Y-59949369D01*
X82644699Y-59949651D01*
X82649900Y-59948468D01*
X82655203Y-59947946D01*
X82658860Y-59946430D01*
X82673373Y-59943131D01*
X82887659Y-59871703D01*
X82914510Y-59859715D01*
X82918583Y-59856181D01*
X82923561Y-59854120D01*
X82946292Y-59835465D01*
X83017720Y-59764036D01*
X83036374Y-59741306D01*
X83058771Y-59687233D01*
X83058770Y-59628707D01*
X83036373Y-59574635D01*
X82994987Y-59533250D01*
X82940915Y-59510853D01*
X82882389Y-59510854D01*
X82828317Y-59533251D01*
X82805586Y-59551906D01*
X82759198Y-59598294D01*
X82601596Y-59650828D01*
X82507425Y-59650828D01*
X82349822Y-59598294D01*
X82249217Y-59497688D01*
X82196036Y-59391328D01*
X82133082Y-59139507D01*
X82133082Y-59086542D01*
X83333082Y-59086542D01*
X83333082Y-59515114D01*
X83335964Y-59544378D01*
X83338026Y-59549356D01*
X83338408Y-59554732D01*
X83348918Y-59582196D01*
X83420346Y-59725053D01*
X83428273Y-59737646D01*
X83429789Y-59741306D01*
X83433170Y-59745425D01*
X83436011Y-59749939D01*
X83439004Y-59752535D01*
X83448444Y-59764037D01*
X83519873Y-59835466D01*
X83531377Y-59844907D01*
X83533972Y-59847899D01*
X83538481Y-59850737D01*
X83542604Y-59854121D01*
X83546265Y-59855637D01*
X83558857Y-59863564D01*
X83701715Y-59934992D01*
X83729178Y-59945502D01*
X83734553Y-59945883D01*
X83739532Y-59947946D01*
X83768796Y-59950828D01*
X83983082Y-59950828D01*
X84012346Y-59947946D01*
X84017324Y-59945883D01*
X84022700Y-59945502D01*
X84050164Y-59934992D01*
X84193021Y-59863564D01*
X84205614Y-59855636D01*
X84209274Y-59854121D01*
X84213393Y-59850739D01*
X84217907Y-59847899D01*
X84220503Y-59844905D01*
X84232005Y-59835466D01*
X84303434Y-59764037D01*
X84312875Y-59752532D01*
X84315867Y-59749938D01*
X84318705Y-59745428D01*
X84322089Y-59741306D01*
X84323605Y-59737644D01*
X84331532Y-59725053D01*
X84402960Y-59582195D01*
X84413470Y-59554732D01*
X84413851Y-59549356D01*
X84415914Y-59544378D01*
X84418796Y-59515114D01*
X84418796Y-59086542D01*
X84415914Y-59057278D01*
X84413851Y-59052299D01*
X84413470Y-59046924D01*
X84402960Y-59019461D01*
X84331532Y-58876603D01*
X84323603Y-58864008D01*
X84322088Y-58860349D01*
X84318706Y-58856228D01*
X84315867Y-58851718D01*
X84312875Y-58849123D01*
X84303433Y-58837618D01*
X84266642Y-58800828D01*
X84761653Y-58800828D01*
X84761653Y-59800828D01*
X84764535Y-59830092D01*
X84786933Y-59884164D01*
X84828317Y-59925548D01*
X84882389Y-59947946D01*
X84940917Y-59947946D01*
X84994989Y-59925548D01*
X85036373Y-59884164D01*
X85058771Y-59830092D01*
X85061653Y-59800828D01*
X85061653Y-59005817D01*
X85071935Y-58995535D01*
X85161349Y-58950828D01*
X85304815Y-58950828D01*
X85371279Y-58984060D01*
X85404511Y-59050524D01*
X85404511Y-59800828D01*
X85407393Y-59830092D01*
X85429791Y-59884164D01*
X85471175Y-59925548D01*
X85525247Y-59947946D01*
X85583775Y-59947946D01*
X85637847Y-59925548D01*
X85679231Y-59884164D01*
X85701629Y-59830092D01*
X85704511Y-59800828D01*
X85704511Y-59050523D01*
X85737742Y-58984060D01*
X85804206Y-58950828D01*
X85947672Y-58950828D01*
X86014136Y-58984060D01*
X86047368Y-59050524D01*
X86047368Y-59800828D01*
X86050250Y-59830092D01*
X86072648Y-59884164D01*
X86114032Y-59925548D01*
X86168104Y-59947946D01*
X86226632Y-59947946D01*
X86280704Y-59925548D01*
X86322088Y-59884164D01*
X86344486Y-59830092D01*
X86347368Y-59800828D01*
X86347368Y-59015114D01*
X86344486Y-58985850D01*
X86342422Y-58980869D01*
X86342041Y-58975495D01*
X86331532Y-58948031D01*
X86260103Y-58805175D01*
X86257367Y-58800828D01*
X86761653Y-58800828D01*
X86761653Y-59800828D01*
X86764535Y-59830092D01*
X86786933Y-59884164D01*
X86828317Y-59925548D01*
X86882389Y-59947946D01*
X86940917Y-59947946D01*
X86994989Y-59925548D01*
X87036373Y-59884164D01*
X87058771Y-59830092D01*
X87061653Y-59800828D01*
X87061653Y-59005817D01*
X87071935Y-58995535D01*
X87161349Y-58950828D01*
X87304815Y-58950828D01*
X87371279Y-58984060D01*
X87404511Y-59050524D01*
X87404511Y-59800828D01*
X87407393Y-59830092D01*
X87429791Y-59884164D01*
X87471175Y-59925548D01*
X87525247Y-59947946D01*
X87583775Y-59947946D01*
X87637847Y-59925548D01*
X87679231Y-59884164D01*
X87701629Y-59830092D01*
X87704511Y-59800828D01*
X87704511Y-59050523D01*
X87737742Y-58984060D01*
X87804206Y-58950828D01*
X87947672Y-58950828D01*
X88014136Y-58984060D01*
X88047368Y-59050524D01*
X88047368Y-59800828D01*
X88050250Y-59830092D01*
X88072648Y-59884164D01*
X88114032Y-59925548D01*
X88168104Y-59947946D01*
X88226632Y-59947946D01*
X88280704Y-59925548D01*
X88322088Y-59884164D01*
X88344486Y-59830092D01*
X88347368Y-59800828D01*
X88347368Y-59015114D01*
X88690225Y-59015114D01*
X88690225Y-59086542D01*
X88693107Y-59115806D01*
X88695169Y-59120784D01*
X88695551Y-59126160D01*
X88706061Y-59153623D01*
X88777489Y-59296482D01*
X88780568Y-59301374D01*
X88781339Y-59303685D01*
X88783834Y-59306562D01*
X88793154Y-59321367D01*
X88807360Y-59333688D01*
X88819686Y-59347900D01*
X88834490Y-59357218D01*
X88837368Y-59359714D01*
X88839679Y-59360484D01*
X88844572Y-59363564D01*
X88987430Y-59434993D01*
X89014893Y-59445502D01*
X89020268Y-59445883D01*
X89025247Y-59447946D01*
X89054511Y-59450828D01*
X89233386Y-59450828D01*
X89299850Y-59484060D01*
X89333082Y-59550524D01*
X89333082Y-59551132D01*
X89299849Y-59617596D01*
X89233386Y-59650828D01*
X89018492Y-59650828D01*
X88907307Y-59595236D01*
X88879843Y-59584726D01*
X88821463Y-59580578D01*
X88765941Y-59599086D01*
X88721726Y-59637433D01*
X88695551Y-59689782D01*
X88691403Y-59748162D01*
X88709911Y-59803684D01*
X88748258Y-59847899D01*
X88773143Y-59863564D01*
X88916001Y-59934992D01*
X88943464Y-59945502D01*
X88948839Y-59945883D01*
X88953818Y-59947946D01*
X88983082Y-59950828D01*
X89268796Y-59950828D01*
X89298060Y-59947946D01*
X89303038Y-59945883D01*
X89308414Y-59945502D01*
X89335878Y-59934992D01*
X89478735Y-59863564D01*
X89483629Y-59860483D01*
X89485937Y-59859714D01*
X89488811Y-59857221D01*
X89503621Y-59847899D01*
X89515943Y-59833690D01*
X89530152Y-59821368D01*
X89539474Y-59806558D01*
X89541967Y-59803684D01*
X89542736Y-59801376D01*
X89545817Y-59796482D01*
X89617246Y-59653624D01*
X89627756Y-59626161D01*
X89628138Y-59620783D01*
X89630200Y-59615806D01*
X89633082Y-59586542D01*
X89633082Y-59515114D01*
X89630200Y-59485850D01*
X89628136Y-59480869D01*
X89627755Y-59475495D01*
X89617246Y-59448031D01*
X89545817Y-59305175D01*
X89542736Y-59300280D01*
X89541967Y-59297973D01*
X89539474Y-59295098D01*
X89530152Y-59280289D01*
X89515942Y-59267965D01*
X89503621Y-59253758D01*
X89488815Y-59244438D01*
X89485937Y-59241942D01*
X89483625Y-59241171D01*
X89478735Y-59238093D01*
X89335878Y-59166664D01*
X89308415Y-59156155D01*
X89303040Y-59155773D01*
X89298060Y-59153710D01*
X89268796Y-59150828D01*
X89089920Y-59150828D01*
X89023457Y-59117597D01*
X88990225Y-59051133D01*
X88990225Y-59050523D01*
X89023456Y-58984060D01*
X89089921Y-58950828D01*
X89233386Y-58950828D01*
X89344570Y-59006421D01*
X89372034Y-59016930D01*
X89430414Y-59021079D01*
X89485936Y-59002572D01*
X89530152Y-58964225D01*
X89556326Y-58911876D01*
X89560475Y-58853496D01*
X89541967Y-58797973D01*
X89503621Y-58753758D01*
X89478735Y-58738093D01*
X89335878Y-58666664D01*
X89308415Y-58656155D01*
X89303040Y-58655773D01*
X89298060Y-58653710D01*
X89268796Y-58650828D01*
X89054511Y-58650828D01*
X89025247Y-58653710D01*
X89020269Y-58655771D01*
X89014892Y-58656154D01*
X88987429Y-58666664D01*
X88844571Y-58738093D01*
X88839676Y-58741173D01*
X88837369Y-58741943D01*
X88834494Y-58744435D01*
X88819685Y-58753758D01*
X88807362Y-58767966D01*
X88793154Y-58780289D01*
X88783831Y-58795098D01*
X88781339Y-58797973D01*
X88780569Y-58800280D01*
X88777489Y-58805175D01*
X88706061Y-58948032D01*
X88695551Y-58975496D01*
X88695169Y-58980871D01*
X88693107Y-58985850D01*
X88690225Y-59015114D01*
X88347368Y-59015114D01*
X88344486Y-58985850D01*
X88342422Y-58980869D01*
X88342041Y-58975495D01*
X88331532Y-58948031D01*
X88260103Y-58805175D01*
X88257022Y-58800280D01*
X88256253Y-58797973D01*
X88253760Y-58795098D01*
X88244438Y-58780289D01*
X88230228Y-58767965D01*
X88217907Y-58753758D01*
X88203101Y-58744438D01*
X88200223Y-58741942D01*
X88197911Y-58741171D01*
X88193021Y-58738093D01*
X88050164Y-58666664D01*
X88022701Y-58656155D01*
X88017326Y-58655773D01*
X88012346Y-58653710D01*
X87983082Y-58650828D01*
X87768796Y-58650828D01*
X87739532Y-58653710D01*
X87734551Y-58655773D01*
X87729177Y-58656155D01*
X87701713Y-58666664D01*
X87558857Y-58738093D01*
X87554510Y-58740828D01*
X87550164Y-58738093D01*
X87407307Y-58666664D01*
X87379844Y-58656155D01*
X87374469Y-58655773D01*
X87369489Y-58653710D01*
X87340225Y-58650828D01*
X87125939Y-58650828D01*
X87096675Y-58653710D01*
X87091694Y-58655773D01*
X87086320Y-58656155D01*
X87058856Y-58666664D01*
X87009982Y-58691101D01*
X86994989Y-58676108D01*
X86940917Y-58653710D01*
X86882389Y-58653710D01*
X86828317Y-58676108D01*
X86786933Y-58717492D01*
X86764535Y-58771564D01*
X86761653Y-58800828D01*
X86257367Y-58800828D01*
X86257022Y-58800280D01*
X86256253Y-58797973D01*
X86253760Y-58795098D01*
X86244438Y-58780289D01*
X86230228Y-58767965D01*
X86217907Y-58753758D01*
X86203101Y-58744438D01*
X86200223Y-58741942D01*
X86197911Y-58741171D01*
X86193021Y-58738093D01*
X86050164Y-58666664D01*
X86022701Y-58656155D01*
X86017326Y-58655773D01*
X86012346Y-58653710D01*
X85983082Y-58650828D01*
X85768796Y-58650828D01*
X85739532Y-58653710D01*
X85734551Y-58655773D01*
X85729177Y-58656155D01*
X85701713Y-58666664D01*
X85558857Y-58738093D01*
X85554510Y-58740828D01*
X85550164Y-58738093D01*
X85407307Y-58666664D01*
X85379844Y-58656155D01*
X85374469Y-58655773D01*
X85369489Y-58653710D01*
X85340225Y-58650828D01*
X85125939Y-58650828D01*
X85096675Y-58653710D01*
X85091694Y-58655773D01*
X85086320Y-58656155D01*
X85058856Y-58666664D01*
X85009982Y-58691101D01*
X84994989Y-58676108D01*
X84940917Y-58653710D01*
X84882389Y-58653710D01*
X84828317Y-58676108D01*
X84786933Y-58717492D01*
X84764535Y-58771564D01*
X84761653Y-58800828D01*
X84266642Y-58800828D01*
X84232004Y-58766190D01*
X84220504Y-58756752D01*
X84217907Y-58753758D01*
X84213390Y-58750915D01*
X84209273Y-58747536D01*
X84205616Y-58746021D01*
X84193021Y-58738093D01*
X84050164Y-58666664D01*
X84022701Y-58656155D01*
X84017326Y-58655773D01*
X84012346Y-58653710D01*
X83983082Y-58650828D01*
X83768796Y-58650828D01*
X83739532Y-58653710D01*
X83734551Y-58655773D01*
X83729177Y-58656155D01*
X83701713Y-58666664D01*
X83558857Y-58738093D01*
X83546263Y-58746020D01*
X83542604Y-58747536D01*
X83538483Y-58750917D01*
X83533971Y-58753758D01*
X83531374Y-58756751D01*
X83519874Y-58766190D01*
X83448445Y-58837618D01*
X83439005Y-58849120D01*
X83436011Y-58851717D01*
X83433169Y-58856231D01*
X83429790Y-58860349D01*
X83428274Y-58864007D01*
X83420346Y-58876603D01*
X83348918Y-59019460D01*
X83338408Y-59046924D01*
X83338026Y-59052299D01*
X83335964Y-59057278D01*
X83333082Y-59086542D01*
X82133082Y-59086542D01*
X82133082Y-58962148D01*
X82196036Y-58710327D01*
X82249217Y-58603967D01*
X82349823Y-58503361D01*
X82507425Y-58450828D01*
X82601599Y-58450828D01*
X82759197Y-58503361D01*
X82805587Y-58549751D01*
X82828317Y-58568406D01*
X82882390Y-58590802D01*
X82940916Y-58590802D01*
X82994988Y-58568406D01*
X83036374Y-58527020D01*
X83058770Y-58472948D01*
X83058770Y-58414422D01*
X83036374Y-58360349D01*
X83017719Y-58337619D01*
X82946291Y-58266191D01*
X82923560Y-58247536D01*
X82918580Y-58245473D01*
X82914510Y-58241943D01*
X82887659Y-58229954D01*
X82673373Y-58158526D01*
X82658865Y-58155227D01*
X82655203Y-58153710D01*
X82649894Y-58153187D01*
X82644700Y-58152006D01*
X82640750Y-58152286D01*
X82625939Y-58150828D01*
X82483082Y-58150828D01*
X82468270Y-58152286D01*
X82464321Y-58152006D01*
X82459126Y-58153187D01*
X82453818Y-58153710D01*
X82450156Y-58155226D01*
X82435647Y-58158526D01*
X82221362Y-58229955D01*
X82194511Y-58241943D01*
X82190441Y-58245472D01*
X82185460Y-58247536D01*
X82162730Y-58266191D01*
X82019873Y-58409048D01*
X82010433Y-58420549D01*
X82007440Y-58423146D01*
X82004599Y-58427659D01*
X82001218Y-58431779D01*
X81999702Y-58435438D01*
X81991775Y-58448032D01*
X81920346Y-58590889D01*
X81919526Y-58593029D01*
X81918882Y-58593900D01*
X81914495Y-58606177D01*
X81909837Y-58618352D01*
X81909760Y-58619432D01*
X81908989Y-58621591D01*
X81837561Y-58907305D01*
X81836811Y-58912376D01*
X81835964Y-58914421D01*
X81834878Y-58925443D01*
X81833259Y-58936394D01*
X81833584Y-58938581D01*
X81833082Y-58943685D01*
X81666415Y-58943685D01*
X81666415Y-57984161D01*
X89799749Y-57984161D01*
X89799749Y-60117495D01*
G37*
G36*
X105537086Y-58995535D02*
G01*
X105574090Y-59032539D01*
X105618796Y-59121951D01*
X105618796Y-59479704D01*
X105574089Y-59569117D01*
X105537084Y-59606122D01*
X105447672Y-59650828D01*
X105304206Y-59650828D01*
X105214792Y-59606121D01*
X105177787Y-59569116D01*
X105133082Y-59479704D01*
X105133082Y-59121951D01*
X105177787Y-59032540D01*
X105214792Y-58995535D01*
X105304206Y-58950828D01*
X105447672Y-58950828D01*
X105537086Y-58995535D01*
G37*
G36*
X108442708Y-58984060D02*
G01*
X108468883Y-59036411D01*
X108061654Y-59117857D01*
X108061654Y-59050523D01*
X108094885Y-58984060D01*
X108161350Y-58950828D01*
X108376244Y-58950828D01*
X108442708Y-58984060D01*
G37*
G36*
X104179943Y-58495535D02*
G01*
X104216947Y-58532539D01*
X104261653Y-58621951D01*
X104261653Y-58765418D01*
X104216946Y-58854831D01*
X104179941Y-58891836D01*
X104090529Y-58936542D01*
X103704510Y-58936542D01*
X103704510Y-58450828D01*
X104090529Y-58450828D01*
X104179943Y-58495535D01*
G37*
G36*
X113014035Y-60117495D02*
G01*
X103237843Y-60117495D01*
X103237843Y-58300828D01*
X103404510Y-58300828D01*
X103404510Y-59800828D01*
X103407392Y-59830092D01*
X103429790Y-59884164D01*
X103471174Y-59925548D01*
X103525246Y-59947946D01*
X103583774Y-59947946D01*
X103637846Y-59925548D01*
X103679230Y-59884164D01*
X103701628Y-59830092D01*
X103704510Y-59800828D01*
X103704510Y-59236542D01*
X104125939Y-59236542D01*
X104155203Y-59233660D01*
X104160181Y-59231597D01*
X104165557Y-59231216D01*
X104193021Y-59220706D01*
X104335878Y-59149278D01*
X104348471Y-59141350D01*
X104352131Y-59139835D01*
X104356250Y-59136453D01*
X104360764Y-59133613D01*
X104363360Y-59130619D01*
X104374862Y-59121180D01*
X104409500Y-59086542D01*
X104833082Y-59086542D01*
X104833082Y-59515114D01*
X104835964Y-59544378D01*
X104838026Y-59549356D01*
X104838408Y-59554732D01*
X104848918Y-59582196D01*
X104920346Y-59725053D01*
X104928273Y-59737646D01*
X104929789Y-59741306D01*
X104933170Y-59745425D01*
X104936011Y-59749939D01*
X104939004Y-59752535D01*
X104948444Y-59764037D01*
X105019873Y-59835466D01*
X105031377Y-59844907D01*
X105033972Y-59847899D01*
X105038481Y-59850737D01*
X105042604Y-59854121D01*
X105046265Y-59855637D01*
X105058857Y-59863564D01*
X105201715Y-59934992D01*
X105229178Y-59945502D01*
X105234553Y-59945883D01*
X105239532Y-59947946D01*
X105268796Y-59950828D01*
X105483082Y-59950828D01*
X105512346Y-59947946D01*
X105517324Y-59945883D01*
X105522700Y-59945502D01*
X105550164Y-59934992D01*
X105693021Y-59863564D01*
X105705614Y-59855636D01*
X105709274Y-59854121D01*
X105713393Y-59850739D01*
X105717907Y-59847899D01*
X105720503Y-59844905D01*
X105732005Y-59835466D01*
X105803434Y-59764037D01*
X105812875Y-59752532D01*
X105815867Y-59749938D01*
X105818705Y-59745428D01*
X105822089Y-59741306D01*
X105823605Y-59737644D01*
X105831532Y-59725053D01*
X105902960Y-59582195D01*
X105913470Y-59554732D01*
X105913851Y-59549356D01*
X105915914Y-59544378D01*
X105918796Y-59515114D01*
X105918796Y-59086542D01*
X105915914Y-59057278D01*
X105913851Y-59052299D01*
X105913470Y-59046924D01*
X105902960Y-59019461D01*
X105831532Y-58876603D01*
X105823603Y-58864008D01*
X105822088Y-58860349D01*
X105818706Y-58856228D01*
X105815867Y-58851718D01*
X105812875Y-58849123D01*
X105803433Y-58837618D01*
X105778921Y-58813106D01*
X106119299Y-58813106D01*
X106124567Y-58842036D01*
X106410282Y-59842036D01*
X106421093Y-59869383D01*
X106427046Y-59876882D01*
X106430816Y-59885677D01*
X106445082Y-59899600D01*
X106457484Y-59915221D01*
X106465852Y-59919870D01*
X106472702Y-59926555D01*
X106491212Y-59933959D01*
X106508645Y-59943644D01*
X106518156Y-59944736D01*
X106527044Y-59948292D01*
X106546979Y-59948048D01*
X106566790Y-59950325D01*
X106575995Y-59947694D01*
X106585567Y-59947578D01*
X106603890Y-59939724D01*
X106623066Y-59934246D01*
X106630565Y-59928292D01*
X106639360Y-59924523D01*
X106653283Y-59910256D01*
X106668904Y-59897855D01*
X106673552Y-59889487D01*
X106680238Y-59882637D01*
X106693783Y-59856537D01*
X106840224Y-59490430D01*
X106986667Y-59856536D01*
X107000212Y-59882637D01*
X107006897Y-59889487D01*
X107011546Y-59897855D01*
X107027162Y-59910252D01*
X107041089Y-59924523D01*
X107049887Y-59928293D01*
X107057385Y-59934246D01*
X107076560Y-59939724D01*
X107094883Y-59947577D01*
X107104452Y-59947693D01*
X107113661Y-59950325D01*
X107133470Y-59948048D01*
X107153406Y-59948292D01*
X107162296Y-59944735D01*
X107171805Y-59943643D01*
X107189232Y-59933961D01*
X107207748Y-59926555D01*
X107214598Y-59919869D01*
X107222966Y-59915221D01*
X107235366Y-59899601D01*
X107249634Y-59885677D01*
X107253403Y-59876880D01*
X107259357Y-59869382D01*
X107270168Y-59842036D01*
X107506431Y-59015114D01*
X107761654Y-59015114D01*
X107761654Y-59586542D01*
X107764536Y-59615806D01*
X107766598Y-59620784D01*
X107766980Y-59626160D01*
X107777490Y-59653623D01*
X107848918Y-59796482D01*
X107851997Y-59801374D01*
X107852768Y-59803685D01*
X107855263Y-59806562D01*
X107864583Y-59821367D01*
X107878789Y-59833688D01*
X107891115Y-59847900D01*
X107905919Y-59857218D01*
X107908797Y-59859714D01*
X107911108Y-59860484D01*
X107916001Y-59863564D01*
X108058859Y-59934993D01*
X108086322Y-59945502D01*
X108091697Y-59945883D01*
X108096676Y-59947946D01*
X108125940Y-59950828D01*
X108411654Y-59950828D01*
X108440918Y-59947946D01*
X108445896Y-59945883D01*
X108451272Y-59945502D01*
X108478736Y-59934992D01*
X108621593Y-59863564D01*
X108646479Y-59847899D01*
X108684825Y-59803684D01*
X108703333Y-59748162D01*
X108699185Y-59689782D01*
X108673011Y-59637433D01*
X108628796Y-59599086D01*
X108573273Y-59580578D01*
X108514893Y-59584726D01*
X108487430Y-59595236D01*
X108376244Y-59650828D01*
X108161349Y-59650828D01*
X108094886Y-59617597D01*
X108061654Y-59551133D01*
X108061654Y-59423798D01*
X108655203Y-59305089D01*
X108655204Y-59305089D01*
X108655204Y-59305088D01*
X108655358Y-59305058D01*
X108683488Y-59296493D01*
X108695699Y-59288314D01*
X108709276Y-59282691D01*
X108719777Y-59272189D01*
X108732118Y-59263925D01*
X108740270Y-59251697D01*
X108750660Y-59241307D01*
X108756342Y-59227587D01*
X108764582Y-59215229D01*
X108767434Y-59200811D01*
X108773058Y-59187235D01*
X108775940Y-59157971D01*
X108775940Y-59157819D01*
X108775941Y-59157814D01*
X108775940Y-59157809D01*
X108775940Y-59015114D01*
X108773058Y-58985850D01*
X108770994Y-58980869D01*
X108770613Y-58975495D01*
X108760104Y-58948031D01*
X108688675Y-58805175D01*
X108685939Y-58800828D01*
X109118796Y-58800828D01*
X109118796Y-59800828D01*
X109121678Y-59830092D01*
X109144076Y-59884164D01*
X109185460Y-59925548D01*
X109239532Y-59947946D01*
X109298060Y-59947946D01*
X109352132Y-59925548D01*
X109393516Y-59884164D01*
X109415914Y-59830092D01*
X109418796Y-59800828D01*
X109418796Y-59121952D01*
X109463503Y-59032538D01*
X109500507Y-58995535D01*
X109589921Y-58950828D01*
X109697368Y-58950828D01*
X109726632Y-58947946D01*
X109780704Y-58925548D01*
X109822088Y-58884164D01*
X109844486Y-58830092D01*
X109844486Y-58771564D01*
X109822088Y-58717492D01*
X109780704Y-58676108D01*
X109726632Y-58653710D01*
X109697368Y-58650828D01*
X109554511Y-58650828D01*
X109525247Y-58653710D01*
X109520266Y-58655773D01*
X109514892Y-58656155D01*
X109487428Y-58666664D01*
X109390935Y-58714911D01*
X109352132Y-58676108D01*
X109298060Y-58653710D01*
X109239532Y-58653710D01*
X109185460Y-58676108D01*
X109144076Y-58717492D01*
X109121678Y-58771564D01*
X109118796Y-58800828D01*
X108685939Y-58800828D01*
X108685594Y-58800280D01*
X108684825Y-58797973D01*
X108682332Y-58795098D01*
X108673010Y-58780289D01*
X108658800Y-58767965D01*
X108646479Y-58753758D01*
X108631673Y-58744438D01*
X108628795Y-58741942D01*
X108626483Y-58741171D01*
X108621593Y-58738093D01*
X108478736Y-58666664D01*
X108451273Y-58656155D01*
X108445898Y-58655773D01*
X108440918Y-58653710D01*
X108411654Y-58650828D01*
X108125940Y-58650828D01*
X108096676Y-58653710D01*
X108091698Y-58655771D01*
X108086321Y-58656154D01*
X108058858Y-58666664D01*
X107916000Y-58738093D01*
X107911105Y-58741173D01*
X107908798Y-58741943D01*
X107905923Y-58744435D01*
X107891114Y-58753758D01*
X107878791Y-58767966D01*
X107864583Y-58780289D01*
X107855260Y-58795098D01*
X107852768Y-58797973D01*
X107851998Y-58800280D01*
X107848918Y-58805175D01*
X107777490Y-58948032D01*
X107766980Y-58975496D01*
X107766598Y-58980871D01*
X107764536Y-58985850D01*
X107761654Y-59015114D01*
X107506431Y-59015114D01*
X107555882Y-58842036D01*
X107561150Y-58813106D01*
X107554469Y-58754961D01*
X107526046Y-58703800D01*
X107480208Y-58667410D01*
X107423931Y-58651331D01*
X107365787Y-58658012D01*
X107314626Y-58686435D01*
X107278235Y-58732273D01*
X107267425Y-58759620D01*
X107102252Y-59337722D01*
X106979497Y-59030833D01*
X106965952Y-59004733D01*
X106964651Y-59003400D01*
X106963920Y-59001693D01*
X106944260Y-58982506D01*
X106925074Y-58962847D01*
X106923366Y-58962114D01*
X106922034Y-58960815D01*
X106896526Y-58950611D01*
X106871281Y-58939792D01*
X106869420Y-58939769D01*
X106867692Y-58939078D01*
X106840244Y-58939413D01*
X106812758Y-58939078D01*
X106811027Y-58939770D01*
X106809169Y-58939793D01*
X106783934Y-58950607D01*
X106758416Y-58960815D01*
X106757084Y-58962114D01*
X106755375Y-58962847D01*
X106736178Y-58982517D01*
X106716530Y-59001693D01*
X106715798Y-59003400D01*
X106714498Y-59004733D01*
X106700953Y-59030834D01*
X106578197Y-59337722D01*
X106413025Y-58759620D01*
X106402214Y-58732273D01*
X106365823Y-58686435D01*
X106314662Y-58658013D01*
X106256518Y-58651331D01*
X106200241Y-58667410D01*
X106154403Y-58703801D01*
X106125981Y-58754962D01*
X106119299Y-58813106D01*
X105778921Y-58813106D01*
X105732004Y-58766190D01*
X105720504Y-58756752D01*
X105717907Y-58753758D01*
X105713390Y-58750915D01*
X105709273Y-58747536D01*
X105705616Y-58746021D01*
X105693021Y-58738093D01*
X105550164Y-58666664D01*
X105522701Y-58656155D01*
X105517326Y-58655773D01*
X105512346Y-58653710D01*
X105483082Y-58650828D01*
X105268796Y-58650828D01*
X105239532Y-58653710D01*
X105234551Y-58655773D01*
X105229177Y-58656155D01*
X105201713Y-58666664D01*
X105058857Y-58738093D01*
X105046263Y-58746020D01*
X105042604Y-58747536D01*
X105038483Y-58750917D01*
X105033971Y-58753758D01*
X105031374Y-58756751D01*
X105019874Y-58766190D01*
X104948445Y-58837618D01*
X104939005Y-58849120D01*
X104936011Y-58851717D01*
X104933169Y-58856231D01*
X104929790Y-58860349D01*
X104928274Y-58864007D01*
X104920346Y-58876603D01*
X104848918Y-59019460D01*
X104838408Y-59046924D01*
X104838026Y-59052299D01*
X104835964Y-59057278D01*
X104833082Y-59086542D01*
X104409500Y-59086542D01*
X104446291Y-59049751D01*
X104455732Y-59038246D01*
X104458724Y-59035652D01*
X104461562Y-59031142D01*
X104464946Y-59027020D01*
X104466462Y-59023358D01*
X104474389Y-59010767D01*
X104545817Y-58867909D01*
X104556327Y-58840446D01*
X104556708Y-58835070D01*
X104558771Y-58830092D01*
X104561653Y-58800828D01*
X104561653Y-58586542D01*
X104558771Y-58557278D01*
X104556708Y-58552299D01*
X104556327Y-58546924D01*
X104545817Y-58519461D01*
X104474389Y-58376603D01*
X104466460Y-58364008D01*
X104464945Y-58360349D01*
X104461563Y-58356228D01*
X104458724Y-58351718D01*
X104455732Y-58349123D01*
X104446290Y-58337618D01*
X104409499Y-58300828D01*
X111190224Y-58300828D01*
X111190224Y-59800828D01*
X111193106Y-59830092D01*
X111215504Y-59884164D01*
X111256888Y-59925548D01*
X111310960Y-59947946D01*
X111369488Y-59947946D01*
X111423560Y-59925548D01*
X111464944Y-59884164D01*
X111487342Y-59830092D01*
X111490224Y-59800828D01*
X111490224Y-58800828D01*
X111904510Y-58800828D01*
X111904510Y-59800828D01*
X111907392Y-59830092D01*
X111929790Y-59884164D01*
X111971174Y-59925548D01*
X112025246Y-59947946D01*
X112083774Y-59947946D01*
X112137846Y-59925548D01*
X112179230Y-59884164D01*
X112201628Y-59830092D01*
X112204510Y-59800828D01*
X112204510Y-59005817D01*
X112214792Y-58995535D01*
X112304206Y-58950828D01*
X112447672Y-58950828D01*
X112514136Y-58984060D01*
X112547368Y-59050524D01*
X112547368Y-59800828D01*
X112550250Y-59830092D01*
X112572648Y-59884164D01*
X112614032Y-59925548D01*
X112668104Y-59947946D01*
X112726632Y-59947946D01*
X112780704Y-59925548D01*
X112822088Y-59884164D01*
X112844486Y-59830092D01*
X112847368Y-59800828D01*
X112847368Y-59015114D01*
X112844486Y-58985850D01*
X112842422Y-58980869D01*
X112842041Y-58975495D01*
X112831532Y-58948031D01*
X112760103Y-58805175D01*
X112757022Y-58800280D01*
X112756253Y-58797973D01*
X112753760Y-58795098D01*
X112744438Y-58780289D01*
X112730228Y-58767965D01*
X112717907Y-58753758D01*
X112703101Y-58744438D01*
X112700223Y-58741942D01*
X112697911Y-58741171D01*
X112693021Y-58738093D01*
X112550164Y-58666664D01*
X112522701Y-58656155D01*
X112517326Y-58655773D01*
X112512346Y-58653710D01*
X112483082Y-58650828D01*
X112268796Y-58650828D01*
X112239532Y-58653710D01*
X112234551Y-58655773D01*
X112229177Y-58656155D01*
X112201713Y-58666664D01*
X112152839Y-58691101D01*
X112137846Y-58676108D01*
X112083774Y-58653710D01*
X112025246Y-58653710D01*
X111971174Y-58676108D01*
X111929790Y-58717492D01*
X111907392Y-58771564D01*
X111904510Y-58800828D01*
X111490224Y-58800828D01*
X111490224Y-58300828D01*
X111487342Y-58271564D01*
X111464944Y-58217492D01*
X111423560Y-58176108D01*
X111369488Y-58153710D01*
X111310960Y-58153710D01*
X111256888Y-58176108D01*
X111215504Y-58217492D01*
X111193106Y-58271564D01*
X111190224Y-58300828D01*
X104409499Y-58300828D01*
X104374861Y-58266190D01*
X104363361Y-58256752D01*
X104360764Y-58253758D01*
X104356247Y-58250915D01*
X104352130Y-58247536D01*
X104348473Y-58246021D01*
X104335878Y-58238093D01*
X104193021Y-58166664D01*
X104165558Y-58156155D01*
X104160183Y-58155773D01*
X104155203Y-58153710D01*
X104125939Y-58150828D01*
X103554510Y-58150828D01*
X103525246Y-58153710D01*
X103471174Y-58176108D01*
X103429790Y-58217492D01*
X103407392Y-58271564D01*
X103404510Y-58300828D01*
X103237843Y-58300828D01*
X103237843Y-57984161D01*
X113014035Y-57984161D01*
X113014035Y-60117495D01*
G37*
G36*
X59354830Y-78783051D02*
G01*
X59391835Y-78820056D01*
X59436542Y-78909469D01*
X59436542Y-79295489D01*
X58950828Y-79295489D01*
X58950828Y-78909470D01*
X58995535Y-78820055D01*
X59032539Y-78783051D01*
X59121952Y-78738346D01*
X59265418Y-78738346D01*
X59354830Y-78783051D01*
G37*
G36*
X59617857Y-77866917D02*
G01*
X59550524Y-77866917D01*
X59484060Y-77833685D01*
X59450828Y-77767221D01*
X59450828Y-77552327D01*
X59484060Y-77485863D01*
X59536411Y-77459687D01*
X59617857Y-77866917D01*
G37*
G36*
X60069118Y-73997339D02*
G01*
X60106122Y-74034343D01*
X60150828Y-74123755D01*
X60150828Y-74267222D01*
X60106121Y-74356635D01*
X60069116Y-74393640D01*
X59979704Y-74438346D01*
X59621952Y-74438346D01*
X59532539Y-74393640D01*
X59495535Y-74356636D01*
X59450828Y-74267221D01*
X59450828Y-74123756D01*
X59495535Y-74034342D01*
X59532539Y-73997338D01*
X59621952Y-73952632D01*
X59979704Y-73952632D01*
X60069118Y-73997339D01*
G37*
G36*
X60150828Y-71338041D02*
G01*
X60150828Y-71624365D01*
X60117596Y-71690828D01*
X60051133Y-71724060D01*
X59979095Y-71724060D01*
X59912630Y-71690828D01*
X59879400Y-71624365D01*
X59879400Y-71309775D01*
X60136695Y-71309775D01*
X60150828Y-71338041D01*
G37*
G36*
X59617857Y-66724060D02*
G01*
X59550524Y-66724060D01*
X59484060Y-66690828D01*
X59450828Y-66624364D01*
X59450828Y-66409470D01*
X59484060Y-66343006D01*
X59536411Y-66316830D01*
X59617857Y-66724060D01*
G37*
G36*
X60150828Y-65052327D02*
G01*
X60150828Y-65338651D01*
X60117596Y-65405114D01*
X60051133Y-65438346D01*
X59979095Y-65438346D01*
X59912630Y-65405114D01*
X59879400Y-65338651D01*
X59879400Y-65024061D01*
X60136695Y-65024061D01*
X60150828Y-65052327D01*
G37*
G36*
X59617857Y-61866917D02*
G01*
X59550524Y-61866917D01*
X59484060Y-61833685D01*
X59450828Y-61767221D01*
X59450828Y-61552327D01*
X59484060Y-61485863D01*
X59536411Y-61459687D01*
X59617857Y-61866917D01*
G37*
G36*
X60150828Y-55838042D02*
G01*
X60150828Y-56124366D01*
X60117596Y-56190829D01*
X60051133Y-56224061D01*
X59979095Y-56224061D01*
X59912630Y-56190829D01*
X59879400Y-56124366D01*
X59879400Y-55809776D01*
X60136695Y-55809776D01*
X60150828Y-55838042D01*
G37*
G36*
X60069118Y-52854482D02*
G01*
X60106122Y-52891486D01*
X60150828Y-52980898D01*
X60150828Y-53124365D01*
X60106121Y-53213778D01*
X60069116Y-53250783D01*
X59979704Y-53295489D01*
X59621952Y-53295489D01*
X59532539Y-53250783D01*
X59495535Y-53213779D01*
X59450828Y-53124364D01*
X59450828Y-52980899D01*
X59495535Y-52891485D01*
X59532539Y-52854481D01*
X59621952Y-52809775D01*
X59979704Y-52809775D01*
X60069118Y-52854482D01*
G37*
G36*
X60617495Y-79762156D02*
G01*
X58484161Y-79762156D01*
X58484161Y-78874060D01*
X58650828Y-78874060D01*
X58650828Y-79445489D01*
X58653710Y-79474753D01*
X58676108Y-79528825D01*
X58717492Y-79570209D01*
X58771564Y-79592607D01*
X58800828Y-79595489D01*
X60300828Y-79595489D01*
X60330092Y-79592607D01*
X60384164Y-79570209D01*
X60425548Y-79528825D01*
X60447946Y-79474753D01*
X60447946Y-79416225D01*
X60425548Y-79362153D01*
X60384164Y-79320769D01*
X60330092Y-79298371D01*
X60300828Y-79295489D01*
X59736542Y-79295489D01*
X59736542Y-78874060D01*
X59733660Y-78844796D01*
X59731597Y-78839817D01*
X59731216Y-78834442D01*
X59720706Y-78806979D01*
X59649278Y-78664121D01*
X59641351Y-78651529D01*
X59639835Y-78647868D01*
X59636451Y-78643745D01*
X59633613Y-78639236D01*
X59630621Y-78636641D01*
X59621180Y-78625137D01*
X59549751Y-78553708D01*
X59538249Y-78544268D01*
X59535653Y-78541275D01*
X59531139Y-78538434D01*
X59527020Y-78535053D01*
X59523360Y-78533537D01*
X59510767Y-78525610D01*
X59367910Y-78454182D01*
X59340446Y-78443672D01*
X59335070Y-78443290D01*
X59330092Y-78441228D01*
X59300828Y-78438346D01*
X59086542Y-78438346D01*
X59057278Y-78441228D01*
X59052299Y-78443290D01*
X59046924Y-78443672D01*
X59019461Y-78454182D01*
X58876603Y-78525610D01*
X58864008Y-78533538D01*
X58860349Y-78535054D01*
X58856228Y-78538435D01*
X58851718Y-78541275D01*
X58849123Y-78544266D01*
X58837618Y-78553709D01*
X58766190Y-78625138D01*
X58756752Y-78636637D01*
X58753758Y-78639235D01*
X58750915Y-78643751D01*
X58747536Y-78647869D01*
X58746021Y-78651525D01*
X58738093Y-78664121D01*
X58666664Y-78806978D01*
X58656155Y-78834441D01*
X58655773Y-78839815D01*
X58653710Y-78844796D01*
X58650828Y-78874060D01*
X58484161Y-78874060D01*
X58484161Y-77516917D01*
X59150828Y-77516917D01*
X59150828Y-77802632D01*
X59153710Y-77831896D01*
X59155773Y-77836876D01*
X59156155Y-77842251D01*
X59166664Y-77869714D01*
X59238093Y-78012571D01*
X59241173Y-78017465D01*
X59241943Y-78019773D01*
X59244435Y-78022646D01*
X59253758Y-78037457D01*
X59267969Y-78049781D01*
X59280290Y-78063988D01*
X59295097Y-78073309D01*
X59297973Y-78075803D01*
X59300281Y-78076572D01*
X59305175Y-78079653D01*
X59448033Y-78151081D01*
X59475496Y-78161591D01*
X59480871Y-78161972D01*
X59485850Y-78164035D01*
X59515114Y-78166917D01*
X59800980Y-78166917D01*
X59800985Y-78166918D01*
X59800990Y-78166917D01*
X60086542Y-78166917D01*
X60115806Y-78164035D01*
X60120784Y-78161972D01*
X60126160Y-78161591D01*
X60153623Y-78151081D01*
X60296482Y-78079653D01*
X60301375Y-78076572D01*
X60303684Y-78075803D01*
X60306558Y-78073309D01*
X60321367Y-78063988D01*
X60333691Y-78049778D01*
X60347899Y-78037456D01*
X60357218Y-78022651D01*
X60359714Y-78019774D01*
X60360484Y-78017463D01*
X60363564Y-78012571D01*
X60434992Y-77869713D01*
X60445502Y-77842250D01*
X60445883Y-77836874D01*
X60447946Y-77831896D01*
X60450828Y-77802632D01*
X60450828Y-77516917D01*
X60447946Y-77487653D01*
X60445883Y-77482674D01*
X60445502Y-77477299D01*
X60434992Y-77449836D01*
X60363564Y-77306978D01*
X60347899Y-77282093D01*
X60303684Y-77243746D01*
X60248162Y-77225238D01*
X60189782Y-77229386D01*
X60137433Y-77255561D01*
X60099086Y-77299776D01*
X60080578Y-77355298D01*
X60084726Y-77413678D01*
X60095236Y-77441142D01*
X60150828Y-77552326D01*
X60150828Y-77767222D01*
X60117596Y-77833685D01*
X60051133Y-77866917D01*
X59923798Y-77866917D01*
X59805058Y-77273215D01*
X59796493Y-77245084D01*
X59788314Y-77232872D01*
X59782691Y-77219296D01*
X59772188Y-77208793D01*
X59763925Y-77196455D01*
X59751699Y-77188304D01*
X59741307Y-77177912D01*
X59727586Y-77172228D01*
X59715229Y-77163990D01*
X59700812Y-77161138D01*
X59687235Y-77155514D01*
X59657971Y-77152632D01*
X59515114Y-77152632D01*
X59485850Y-77155514D01*
X59480871Y-77157576D01*
X59475496Y-77157958D01*
X59448033Y-77168468D01*
X59305175Y-77239896D01*
X59300281Y-77242976D01*
X59297973Y-77243746D01*
X59295097Y-77246239D01*
X59280290Y-77255561D01*
X59267969Y-77269767D01*
X59253758Y-77282092D01*
X59244435Y-77296902D01*
X59241943Y-77299776D01*
X59241173Y-77302083D01*
X59238093Y-77306978D01*
X59166664Y-77449835D01*
X59156155Y-77477298D01*
X59155773Y-77482672D01*
X59153710Y-77487653D01*
X59150828Y-77516917D01*
X58484161Y-77516917D01*
X58484161Y-76231203D01*
X59150828Y-76231203D01*
X59150828Y-76374060D01*
X59153710Y-76403324D01*
X59155771Y-76408301D01*
X59156154Y-76413679D01*
X59166664Y-76441142D01*
X59214911Y-76537636D01*
X59176108Y-76576439D01*
X59153710Y-76630511D01*
X59153710Y-76689039D01*
X59176108Y-76743111D01*
X59217492Y-76784495D01*
X59271564Y-76806893D01*
X59300828Y-76809775D01*
X60300828Y-76809775D01*
X60330092Y-76806893D01*
X60384164Y-76784495D01*
X60425548Y-76743111D01*
X60447946Y-76689039D01*
X60447946Y-76630511D01*
X60425548Y-76576439D01*
X60384164Y-76535055D01*
X60330092Y-76512657D01*
X60300828Y-76509775D01*
X59621952Y-76509775D01*
X59532539Y-76465068D01*
X59495535Y-76428064D01*
X59450828Y-76338650D01*
X59450828Y-76231203D01*
X59447946Y-76201939D01*
X59425548Y-76147867D01*
X59384164Y-76106483D01*
X59330092Y-76084085D01*
X59271564Y-76084085D01*
X59217492Y-76106483D01*
X59176108Y-76147867D01*
X59153710Y-76201939D01*
X59150828Y-76231203D01*
X58484161Y-76231203D01*
X58484161Y-75374061D01*
X59150828Y-75374061D01*
X59150828Y-75588347D01*
X59153710Y-75617611D01*
X59155773Y-75622591D01*
X59156155Y-75627966D01*
X59166664Y-75655429D01*
X59238093Y-75798286D01*
X59241173Y-75803180D01*
X59241943Y-75805488D01*
X59244435Y-75808361D01*
X59253758Y-75823172D01*
X59267969Y-75835496D01*
X59280290Y-75849703D01*
X59295097Y-75859024D01*
X59297973Y-75861518D01*
X59300281Y-75862287D01*
X59305175Y-75865368D01*
X59448033Y-75936796D01*
X59475496Y-75947306D01*
X59480871Y-75947687D01*
X59485850Y-75949750D01*
X59515114Y-75952632D01*
X59586542Y-75952632D01*
X59615806Y-75949750D01*
X59620784Y-75947687D01*
X59626160Y-75947306D01*
X59653623Y-75936796D01*
X59796482Y-75865368D01*
X59801375Y-75862287D01*
X59803684Y-75861518D01*
X59806558Y-75859024D01*
X59821367Y-75849703D01*
X59833691Y-75835493D01*
X59847899Y-75823171D01*
X59857218Y-75808366D01*
X59859714Y-75805489D01*
X59860484Y-75803178D01*
X59863564Y-75798286D01*
X59934992Y-75655428D01*
X59945502Y-75627965D01*
X59945883Y-75622589D01*
X59947946Y-75617611D01*
X59950828Y-75588347D01*
X59950828Y-75409471D01*
X59984060Y-75343006D01*
X60050524Y-75309775D01*
X60051132Y-75309775D01*
X60117596Y-75343007D01*
X60150828Y-75409470D01*
X60150828Y-75624365D01*
X60095236Y-75735550D01*
X60084726Y-75763014D01*
X60080578Y-75821394D01*
X60099086Y-75876916D01*
X60137433Y-75921131D01*
X60189782Y-75947306D01*
X60248162Y-75951454D01*
X60303684Y-75932946D01*
X60347899Y-75894599D01*
X60363564Y-75869714D01*
X60434992Y-75726856D01*
X60445502Y-75699393D01*
X60445883Y-75694017D01*
X60447946Y-75689039D01*
X60450828Y-75659775D01*
X60450828Y-75374061D01*
X60447946Y-75344797D01*
X60445883Y-75339818D01*
X60445502Y-75334443D01*
X60434992Y-75306980D01*
X60363564Y-75164122D01*
X60360483Y-75159228D01*
X60359714Y-75156920D01*
X60357220Y-75154044D01*
X60347899Y-75139237D01*
X60333692Y-75126916D01*
X60321368Y-75112705D01*
X60306557Y-75103382D01*
X60303684Y-75100890D01*
X60301376Y-75100120D01*
X60296482Y-75097040D01*
X60153624Y-75025611D01*
X60126161Y-75015101D01*
X60120783Y-75014718D01*
X60115806Y-75012657D01*
X60086542Y-75009775D01*
X60015114Y-75009775D01*
X59985850Y-75012657D01*
X59980869Y-75014720D01*
X59975495Y-75015102D01*
X59948031Y-75025611D01*
X59805175Y-75097040D01*
X59800280Y-75100120D01*
X59797973Y-75100890D01*
X59795098Y-75103382D01*
X59780289Y-75112705D01*
X59767965Y-75126914D01*
X59753758Y-75139236D01*
X59744438Y-75154041D01*
X59741942Y-75156920D01*
X59741171Y-75159231D01*
X59738093Y-75164122D01*
X59666664Y-75306979D01*
X59656155Y-75334442D01*
X59655773Y-75339816D01*
X59653710Y-75344797D01*
X59650828Y-75374061D01*
X59650828Y-75552937D01*
X59617596Y-75619400D01*
X59551133Y-75652632D01*
X59550524Y-75652632D01*
X59484060Y-75619400D01*
X59450828Y-75552936D01*
X59450828Y-75409471D01*
X59506421Y-75298287D01*
X59516930Y-75270823D01*
X59521079Y-75212443D01*
X59502572Y-75156921D01*
X59464225Y-75112705D01*
X59411876Y-75086531D01*
X59353496Y-75082382D01*
X59297973Y-75100890D01*
X59253758Y-75139236D01*
X59238093Y-75164122D01*
X59166664Y-75306979D01*
X59156155Y-75334442D01*
X59155773Y-75339816D01*
X59153710Y-75344797D01*
X59150828Y-75374061D01*
X58484161Y-75374061D01*
X58484161Y-74088346D01*
X59150828Y-74088346D01*
X59150828Y-74302632D01*
X59153710Y-74331896D01*
X59155773Y-74336876D01*
X59156155Y-74342251D01*
X59166664Y-74369714D01*
X59238093Y-74512571D01*
X59246021Y-74525166D01*
X59247536Y-74528823D01*
X59250915Y-74532940D01*
X59253758Y-74537457D01*
X59256752Y-74540054D01*
X59266190Y-74551554D01*
X59337618Y-74622983D01*
X59349123Y-74632425D01*
X59351718Y-74635417D01*
X59356228Y-74638256D01*
X59360349Y-74641638D01*
X59364008Y-74643153D01*
X59376603Y-74651082D01*
X59519461Y-74722510D01*
X59546924Y-74733020D01*
X59552299Y-74733401D01*
X59557278Y-74735464D01*
X59586542Y-74738346D01*
X60015114Y-74738346D01*
X60044378Y-74735464D01*
X60049356Y-74733401D01*
X60054732Y-74733020D01*
X60082196Y-74722510D01*
X60225053Y-74651082D01*
X60237646Y-74643154D01*
X60241306Y-74641639D01*
X60245425Y-74638257D01*
X60249939Y-74635417D01*
X60252535Y-74632423D01*
X60264037Y-74622984D01*
X60335466Y-74551555D01*
X60344907Y-74540050D01*
X60347899Y-74537456D01*
X60350737Y-74532946D01*
X60354121Y-74528824D01*
X60355637Y-74525162D01*
X60363564Y-74512571D01*
X60434992Y-74369713D01*
X60445502Y-74342250D01*
X60445883Y-74336874D01*
X60447946Y-74331896D01*
X60450828Y-74302632D01*
X60450828Y-74088346D01*
X60447946Y-74059082D01*
X60445883Y-74054103D01*
X60445502Y-74048728D01*
X60434992Y-74021265D01*
X60363564Y-73878407D01*
X60355635Y-73865812D01*
X60354120Y-73862153D01*
X60350738Y-73858032D01*
X60347899Y-73853522D01*
X60344907Y-73850927D01*
X60335465Y-73839422D01*
X60264036Y-73767994D01*
X60252536Y-73758556D01*
X60249939Y-73755562D01*
X60245422Y-73752719D01*
X60241305Y-73749340D01*
X60237648Y-73747825D01*
X60225053Y-73739897D01*
X60082196Y-73668468D01*
X60054733Y-73657959D01*
X60049358Y-73657577D01*
X60044378Y-73655514D01*
X60015114Y-73652632D01*
X59586542Y-73652632D01*
X59557278Y-73655514D01*
X59552297Y-73657577D01*
X59546923Y-73657959D01*
X59519459Y-73668468D01*
X59376603Y-73739897D01*
X59364011Y-73747823D01*
X59360349Y-73749340D01*
X59356226Y-73752723D01*
X59351717Y-73755562D01*
X59349121Y-73758554D01*
X59337619Y-73767995D01*
X59266191Y-73839423D01*
X59256751Y-73850924D01*
X59253758Y-73853521D01*
X59250917Y-73858034D01*
X59247536Y-73862154D01*
X59246020Y-73865813D01*
X59238093Y-73878407D01*
X59166664Y-74021264D01*
X59156155Y-74048727D01*
X59155773Y-74054101D01*
X59153710Y-74059082D01*
X59150828Y-74088346D01*
X58484161Y-74088346D01*
X58484161Y-72731203D01*
X59150828Y-72731203D01*
X59150828Y-72945489D01*
X59153710Y-72974753D01*
X59155773Y-72979733D01*
X59156155Y-72985108D01*
X59166664Y-73012571D01*
X59191101Y-73061445D01*
X59176108Y-73076439D01*
X59153710Y-73130511D01*
X59153710Y-73189039D01*
X59176108Y-73243111D01*
X59217492Y-73284495D01*
X59271564Y-73306893D01*
X59300828Y-73309775D01*
X60300828Y-73309775D01*
X60330092Y-73306893D01*
X60384164Y-73284495D01*
X60425548Y-73243111D01*
X60447946Y-73189039D01*
X60447946Y-73130511D01*
X60425548Y-73076439D01*
X60384164Y-73035055D01*
X60330092Y-73012657D01*
X60300828Y-73009775D01*
X59505818Y-73009775D01*
X59495535Y-72999493D01*
X59450828Y-72910078D01*
X59450828Y-72766613D01*
X59484060Y-72700149D01*
X59550524Y-72666918D01*
X60300828Y-72666918D01*
X60330092Y-72664036D01*
X60384164Y-72641638D01*
X60425548Y-72600254D01*
X60447946Y-72546182D01*
X60447946Y-72487654D01*
X60425548Y-72433582D01*
X60384164Y-72392198D01*
X60330092Y-72369800D01*
X60300828Y-72366918D01*
X59515114Y-72366918D01*
X59485850Y-72369800D01*
X59480871Y-72371862D01*
X59475496Y-72372244D01*
X59448033Y-72382754D01*
X59305175Y-72454182D01*
X59300281Y-72457262D01*
X59297973Y-72458032D01*
X59295097Y-72460525D01*
X59280290Y-72469847D01*
X59267969Y-72484053D01*
X59253758Y-72496378D01*
X59244435Y-72511188D01*
X59241943Y-72514062D01*
X59241173Y-72516369D01*
X59238093Y-72521264D01*
X59166664Y-72664121D01*
X59156155Y-72691584D01*
X59155773Y-72696958D01*
X59153710Y-72701939D01*
X59150828Y-72731203D01*
X58484161Y-72731203D01*
X58484161Y-71374060D01*
X59150828Y-71374060D01*
X59150828Y-71659775D01*
X59153710Y-71689039D01*
X59155773Y-71694019D01*
X59156155Y-71699394D01*
X59166664Y-71726857D01*
X59238093Y-71869714D01*
X59253758Y-71894600D01*
X59297973Y-71932946D01*
X59353496Y-71951454D01*
X59411876Y-71947305D01*
X59464225Y-71921131D01*
X59502572Y-71876915D01*
X59521079Y-71821393D01*
X59516930Y-71763013D01*
X59506421Y-71735549D01*
X59450828Y-71624364D01*
X59450828Y-71409470D01*
X59484060Y-71343006D01*
X59550524Y-71309775D01*
X59565266Y-71309775D01*
X59579400Y-71338042D01*
X59579400Y-71659775D01*
X59582282Y-71689039D01*
X59584344Y-71694017D01*
X59584726Y-71699393D01*
X59595236Y-71726857D01*
X59666664Y-71869714D01*
X59669744Y-71874608D01*
X59670514Y-71876916D01*
X59673006Y-71879789D01*
X59682329Y-71894600D01*
X59696540Y-71906924D01*
X59708861Y-71921131D01*
X59723668Y-71930452D01*
X59726544Y-71932946D01*
X59728852Y-71933715D01*
X59733746Y-71936796D01*
X59876604Y-72008224D01*
X59904067Y-72018734D01*
X59909442Y-72019115D01*
X59914421Y-72021178D01*
X59943685Y-72024060D01*
X60086542Y-72024060D01*
X60115806Y-72021178D01*
X60120784Y-72019115D01*
X60126160Y-72018734D01*
X60153623Y-72008224D01*
X60296482Y-71936796D01*
X60301375Y-71933715D01*
X60303684Y-71932946D01*
X60306558Y-71930452D01*
X60321367Y-71921131D01*
X60333691Y-71906921D01*
X60347899Y-71894599D01*
X60357218Y-71879794D01*
X60359714Y-71876917D01*
X60360484Y-71874606D01*
X60363564Y-71869714D01*
X60434992Y-71726856D01*
X60445502Y-71699393D01*
X60445883Y-71694017D01*
X60447946Y-71689039D01*
X60450828Y-71659775D01*
X60450828Y-71302632D01*
X60447946Y-71273368D01*
X60445883Y-71268389D01*
X60445502Y-71263014D01*
X60434992Y-71235551D01*
X60431539Y-71228646D01*
X60447946Y-71189039D01*
X60447946Y-71130511D01*
X60425548Y-71076439D01*
X60384164Y-71035055D01*
X60330092Y-71012657D01*
X60300828Y-71009775D01*
X59515114Y-71009775D01*
X59485850Y-71012657D01*
X59480871Y-71014719D01*
X59475496Y-71015101D01*
X59448033Y-71025611D01*
X59305175Y-71097039D01*
X59300281Y-71100119D01*
X59297973Y-71100889D01*
X59295097Y-71103382D01*
X59280290Y-71112704D01*
X59267969Y-71126910D01*
X59253758Y-71139235D01*
X59244435Y-71154045D01*
X59241943Y-71156919D01*
X59241173Y-71159226D01*
X59238093Y-71164121D01*
X59166664Y-71306978D01*
X59156155Y-71334441D01*
X59155773Y-71339815D01*
X59153710Y-71344796D01*
X59150828Y-71374060D01*
X58484161Y-71374060D01*
X58484161Y-70416225D01*
X58653710Y-70416225D01*
X58653710Y-70474753D01*
X58676108Y-70528825D01*
X58717492Y-70570209D01*
X58771564Y-70592607D01*
X58800828Y-70595489D01*
X60086542Y-70595489D01*
X60115806Y-70592607D01*
X60120783Y-70590545D01*
X60126161Y-70590163D01*
X60153624Y-70579653D01*
X60296482Y-70508224D01*
X60301376Y-70505143D01*
X60303684Y-70504374D01*
X60306557Y-70501881D01*
X60321368Y-70492559D01*
X60333692Y-70478347D01*
X60347899Y-70466027D01*
X60357220Y-70451219D01*
X60359714Y-70448344D01*
X60360483Y-70446035D01*
X60363564Y-70441142D01*
X60434992Y-70298284D01*
X60445502Y-70270821D01*
X60449650Y-70212441D01*
X60431142Y-70156918D01*
X60392795Y-70112703D01*
X60340446Y-70086529D01*
X60282066Y-70082381D01*
X60226544Y-70100889D01*
X60182329Y-70139235D01*
X60166664Y-70164121D01*
X60117596Y-70262256D01*
X60051132Y-70295489D01*
X58800828Y-70295489D01*
X58771564Y-70298371D01*
X58717492Y-70320769D01*
X58676108Y-70362153D01*
X58653710Y-70416225D01*
X58484161Y-70416225D01*
X58484161Y-67368454D01*
X58650933Y-67368454D01*
X58660197Y-67426243D01*
X58690871Y-67476087D01*
X58738284Y-67510400D01*
X58766085Y-67519982D01*
X59687797Y-67739436D01*
X59190750Y-67871983D01*
X59183893Y-67874554D01*
X59181014Y-67874937D01*
X59177595Y-67876915D01*
X59163217Y-67882308D01*
X59147495Y-67894342D01*
X59130364Y-67904260D01*
X59124457Y-67911975D01*
X59116742Y-67917882D01*
X59106824Y-67935013D01*
X59094790Y-67950735D01*
X59092285Y-67960125D01*
X59087419Y-67968532D01*
X59084811Y-67988153D01*
X59079709Y-68007287D01*
X59080988Y-68016918D01*
X59079709Y-68026549D01*
X59084811Y-68045682D01*
X59087419Y-68065304D01*
X59092285Y-68073710D01*
X59094790Y-68083101D01*
X59106824Y-68098822D01*
X59116742Y-68115954D01*
X59124457Y-68121860D01*
X59130364Y-68129576D01*
X59147495Y-68139493D01*
X59163217Y-68151528D01*
X59177594Y-68156919D01*
X59181014Y-68158899D01*
X59183894Y-68159281D01*
X59190751Y-68161853D01*
X59687797Y-68294398D01*
X58766085Y-68513854D01*
X58738284Y-68523436D01*
X58690870Y-68557749D01*
X58660197Y-68607593D01*
X58650933Y-68665382D01*
X58664489Y-68722319D01*
X58698802Y-68769733D01*
X58748646Y-68800406D01*
X58806435Y-68809670D01*
X58835571Y-68805696D01*
X60335571Y-68448553D01*
X60345614Y-68445091D01*
X60349214Y-68444613D01*
X60352467Y-68442729D01*
X60363372Y-68438971D01*
X60381019Y-68426199D01*
X60399864Y-68415290D01*
X60404545Y-68409174D01*
X60410786Y-68404658D01*
X60422201Y-68386107D01*
X60435438Y-68368815D01*
X60437422Y-68361373D01*
X60441459Y-68354814D01*
X60444906Y-68333310D01*
X60450519Y-68312263D01*
X60449504Y-68304627D01*
X60450723Y-68297025D01*
X60445678Y-68275835D01*
X60442809Y-68254246D01*
X60438951Y-68247582D01*
X60437167Y-68240088D01*
X60424395Y-68222440D01*
X60413486Y-68203596D01*
X60407370Y-68198914D01*
X60402854Y-68192674D01*
X60384303Y-68181258D01*
X60367011Y-68168022D01*
X60356216Y-68163974D01*
X60353010Y-68162001D01*
X60349419Y-68161425D01*
X60339477Y-68157697D01*
X59811554Y-68016917D01*
X60339477Y-67876138D01*
X60349419Y-67872409D01*
X60353010Y-67871834D01*
X60356216Y-67869861D01*
X60367011Y-67865813D01*
X60384307Y-67852573D01*
X60402854Y-67841160D01*
X60407369Y-67834921D01*
X60413486Y-67830239D01*
X60424396Y-67811392D01*
X60437167Y-67793747D01*
X60438951Y-67786251D01*
X60442809Y-67779589D01*
X60445677Y-67758005D01*
X60450724Y-67736810D01*
X60449504Y-67729204D01*
X60450519Y-67721572D01*
X60444907Y-67700528D01*
X60441459Y-67679021D01*
X60437422Y-67672461D01*
X60435438Y-67665020D01*
X60422201Y-67647727D01*
X60410786Y-67629177D01*
X60404545Y-67624660D01*
X60399864Y-67618545D01*
X60381019Y-67607635D01*
X60363372Y-67594864D01*
X60352467Y-67591105D01*
X60349214Y-67589222D01*
X60345614Y-67588743D01*
X60335571Y-67585282D01*
X58835571Y-67228140D01*
X58806435Y-67224166D01*
X58748646Y-67233430D01*
X58698802Y-67264104D01*
X58664489Y-67311517D01*
X58650933Y-67368454D01*
X58484161Y-67368454D01*
X58484161Y-66374060D01*
X59150828Y-66374060D01*
X59150828Y-66659775D01*
X59153710Y-66689039D01*
X59155773Y-66694019D01*
X59156155Y-66699394D01*
X59166664Y-66726857D01*
X59238093Y-66869714D01*
X59241173Y-66874608D01*
X59241943Y-66876916D01*
X59244435Y-66879789D01*
X59253758Y-66894600D01*
X59267969Y-66906924D01*
X59280290Y-66921131D01*
X59295097Y-66930452D01*
X59297973Y-66932946D01*
X59300281Y-66933715D01*
X59305175Y-66936796D01*
X59448033Y-67008224D01*
X59475496Y-67018734D01*
X59480871Y-67019115D01*
X59485850Y-67021178D01*
X59515114Y-67024060D01*
X59800980Y-67024060D01*
X59800985Y-67024061D01*
X59800990Y-67024060D01*
X60086542Y-67024060D01*
X60115806Y-67021178D01*
X60120784Y-67019115D01*
X60126160Y-67018734D01*
X60153623Y-67008224D01*
X60296482Y-66936796D01*
X60301375Y-66933715D01*
X60303684Y-66932946D01*
X60306558Y-66930452D01*
X60321367Y-66921131D01*
X60333691Y-66906921D01*
X60347899Y-66894599D01*
X60357218Y-66879794D01*
X60359714Y-66876917D01*
X60360484Y-66874606D01*
X60363564Y-66869714D01*
X60434992Y-66726856D01*
X60445502Y-66699393D01*
X60445883Y-66694017D01*
X60447946Y-66689039D01*
X60450828Y-66659775D01*
X60450828Y-66374060D01*
X60447946Y-66344796D01*
X60445883Y-66339817D01*
X60445502Y-66334442D01*
X60434992Y-66306979D01*
X60363564Y-66164121D01*
X60347899Y-66139236D01*
X60303684Y-66100889D01*
X60248162Y-66082381D01*
X60189782Y-66086529D01*
X60137433Y-66112704D01*
X60099086Y-66156919D01*
X60080578Y-66212441D01*
X60084726Y-66270821D01*
X60095236Y-66298285D01*
X60150828Y-66409469D01*
X60150828Y-66624365D01*
X60117596Y-66690828D01*
X60051133Y-66724060D01*
X59923798Y-66724060D01*
X59805058Y-66130358D01*
X59796493Y-66102227D01*
X59788314Y-66090015D01*
X59782691Y-66076439D01*
X59772188Y-66065936D01*
X59763925Y-66053598D01*
X59751699Y-66045447D01*
X59741307Y-66035055D01*
X59727586Y-66029371D01*
X59715229Y-66021133D01*
X59700812Y-66018281D01*
X59687235Y-66012657D01*
X59657971Y-66009775D01*
X59515114Y-66009775D01*
X59485850Y-66012657D01*
X59480871Y-66014719D01*
X59475496Y-66015101D01*
X59448033Y-66025611D01*
X59305175Y-66097039D01*
X59300281Y-66100119D01*
X59297973Y-66100889D01*
X59295097Y-66103382D01*
X59280290Y-66112704D01*
X59267969Y-66126910D01*
X59253758Y-66139235D01*
X59244435Y-66154045D01*
X59241943Y-66156919D01*
X59241173Y-66159226D01*
X59238093Y-66164121D01*
X59166664Y-66306978D01*
X59156155Y-66334441D01*
X59155773Y-66339815D01*
X59153710Y-66344796D01*
X59150828Y-66374060D01*
X58484161Y-66374060D01*
X58484161Y-65088346D01*
X59150828Y-65088346D01*
X59150828Y-65374061D01*
X59153710Y-65403325D01*
X59155773Y-65408305D01*
X59156155Y-65413680D01*
X59166664Y-65441143D01*
X59238093Y-65584000D01*
X59253758Y-65608886D01*
X59297973Y-65647232D01*
X59353496Y-65665740D01*
X59411876Y-65661591D01*
X59464225Y-65635417D01*
X59502572Y-65591201D01*
X59521079Y-65535679D01*
X59516930Y-65477299D01*
X59506421Y-65449835D01*
X59450828Y-65338650D01*
X59450828Y-65123756D01*
X59484060Y-65057292D01*
X59550524Y-65024061D01*
X59565266Y-65024061D01*
X59579400Y-65052328D01*
X59579400Y-65374061D01*
X59582282Y-65403325D01*
X59584344Y-65408303D01*
X59584726Y-65413679D01*
X59595236Y-65441143D01*
X59666664Y-65584000D01*
X59669744Y-65588894D01*
X59670514Y-65591202D01*
X59673006Y-65594075D01*
X59682329Y-65608886D01*
X59696540Y-65621210D01*
X59708861Y-65635417D01*
X59723668Y-65644738D01*
X59726544Y-65647232D01*
X59728852Y-65648001D01*
X59733746Y-65651082D01*
X59876604Y-65722510D01*
X59904067Y-65733020D01*
X59909442Y-65733401D01*
X59914421Y-65735464D01*
X59943685Y-65738346D01*
X60086542Y-65738346D01*
X60115806Y-65735464D01*
X60120784Y-65733401D01*
X60126160Y-65733020D01*
X60153623Y-65722510D01*
X60296482Y-65651082D01*
X60301375Y-65648001D01*
X60303684Y-65647232D01*
X60306558Y-65644738D01*
X60321367Y-65635417D01*
X60333691Y-65621207D01*
X60347899Y-65608885D01*
X60357218Y-65594080D01*
X60359714Y-65591203D01*
X60360484Y-65588892D01*
X60363564Y-65584000D01*
X60434992Y-65441142D01*
X60445502Y-65413679D01*
X60445883Y-65408303D01*
X60447946Y-65403325D01*
X60450828Y-65374061D01*
X60450828Y-65016918D01*
X60447946Y-64987654D01*
X60445883Y-64982675D01*
X60445502Y-64977300D01*
X60434992Y-64949837D01*
X60431539Y-64942932D01*
X60447946Y-64903325D01*
X60447946Y-64844797D01*
X60425548Y-64790725D01*
X60384164Y-64749341D01*
X60330092Y-64726943D01*
X60300828Y-64724061D01*
X59515114Y-64724061D01*
X59485850Y-64726943D01*
X59480871Y-64729005D01*
X59475496Y-64729387D01*
X59448033Y-64739897D01*
X59305175Y-64811325D01*
X59300281Y-64814405D01*
X59297973Y-64815175D01*
X59295097Y-64817668D01*
X59280290Y-64826990D01*
X59267969Y-64841196D01*
X59253758Y-64853521D01*
X59244435Y-64868331D01*
X59241943Y-64871205D01*
X59241173Y-64873512D01*
X59238093Y-64878407D01*
X59166664Y-65021264D01*
X59156155Y-65048727D01*
X59155773Y-65054101D01*
X59153710Y-65059082D01*
X59150828Y-65088346D01*
X58484161Y-65088346D01*
X58484161Y-64130511D01*
X58653710Y-64130511D01*
X58653710Y-64189039D01*
X58676108Y-64243111D01*
X58717492Y-64284495D01*
X58771564Y-64306893D01*
X58800828Y-64309775D01*
X59150828Y-64309775D01*
X59150828Y-64374060D01*
X59153710Y-64403324D01*
X59176108Y-64457396D01*
X59217492Y-64498780D01*
X59271564Y-64521178D01*
X59330092Y-64521178D01*
X59384164Y-64498780D01*
X59425548Y-64457396D01*
X59447946Y-64403324D01*
X59450828Y-64374060D01*
X59450828Y-64309775D01*
X60086542Y-64309775D01*
X60115806Y-64306893D01*
X60120783Y-64304831D01*
X60126161Y-64304449D01*
X60153624Y-64293939D01*
X60296482Y-64222510D01*
X60301376Y-64219429D01*
X60303684Y-64218660D01*
X60306557Y-64216167D01*
X60321368Y-64206845D01*
X60333692Y-64192633D01*
X60347899Y-64180313D01*
X60357220Y-64165505D01*
X60359714Y-64162630D01*
X60360483Y-64160321D01*
X60363564Y-64155428D01*
X60434992Y-64012570D01*
X60445502Y-63985107D01*
X60445883Y-63979731D01*
X60447946Y-63974753D01*
X60450828Y-63945489D01*
X60450828Y-63802632D01*
X60447946Y-63773368D01*
X60425548Y-63719296D01*
X60384164Y-63677912D01*
X60330092Y-63655514D01*
X60271564Y-63655514D01*
X60217492Y-63677912D01*
X60176108Y-63719296D01*
X60153710Y-63773368D01*
X60150828Y-63802632D01*
X60150828Y-63910079D01*
X60117596Y-63976542D01*
X60051132Y-64009775D01*
X59450828Y-64009775D01*
X59450828Y-63802632D01*
X59447946Y-63773368D01*
X59425548Y-63719296D01*
X59384164Y-63677912D01*
X59330092Y-63655514D01*
X59271564Y-63655514D01*
X59217492Y-63677912D01*
X59176108Y-63719296D01*
X59153710Y-63773368D01*
X59150828Y-63802632D01*
X59150828Y-64009775D01*
X58800828Y-64009775D01*
X58771564Y-64012657D01*
X58717492Y-64035055D01*
X58676108Y-64076439D01*
X58653710Y-64130511D01*
X58484161Y-64130511D01*
X58484161Y-63273368D01*
X58653710Y-63273368D01*
X58653710Y-63331896D01*
X58676108Y-63385968D01*
X58717492Y-63427352D01*
X58771564Y-63449750D01*
X58800828Y-63452632D01*
X60300828Y-63452632D01*
X60330092Y-63449750D01*
X60384164Y-63427352D01*
X60425548Y-63385968D01*
X60447946Y-63331896D01*
X60447946Y-63273368D01*
X60425548Y-63219296D01*
X60384164Y-63177912D01*
X60330092Y-63155514D01*
X60300828Y-63152632D01*
X59505818Y-63152632D01*
X59495535Y-63142350D01*
X59450828Y-63052935D01*
X59450828Y-62909470D01*
X59484060Y-62843006D01*
X59550524Y-62809775D01*
X60300828Y-62809775D01*
X60330092Y-62806893D01*
X60384164Y-62784495D01*
X60425548Y-62743111D01*
X60447946Y-62689039D01*
X60447946Y-62630511D01*
X60425548Y-62576439D01*
X60384164Y-62535055D01*
X60330092Y-62512657D01*
X60300828Y-62509775D01*
X59515114Y-62509775D01*
X59485850Y-62512657D01*
X59480871Y-62514719D01*
X59475496Y-62515101D01*
X59448033Y-62525611D01*
X59305175Y-62597039D01*
X59300281Y-62600119D01*
X59297973Y-62600889D01*
X59295097Y-62603382D01*
X59280290Y-62612704D01*
X59267969Y-62626910D01*
X59253758Y-62639235D01*
X59244435Y-62654045D01*
X59241943Y-62656919D01*
X59241173Y-62659226D01*
X59238093Y-62664121D01*
X59166664Y-62806978D01*
X59156155Y-62834441D01*
X59155773Y-62839815D01*
X59153710Y-62844796D01*
X59150828Y-62874060D01*
X59150828Y-63088346D01*
X59153710Y-63117610D01*
X59155773Y-63122590D01*
X59156155Y-63127965D01*
X59165594Y-63152632D01*
X58800828Y-63152632D01*
X58771564Y-63155514D01*
X58717492Y-63177912D01*
X58676108Y-63219296D01*
X58653710Y-63273368D01*
X58484161Y-63273368D01*
X58484161Y-61516917D01*
X59150828Y-61516917D01*
X59150828Y-61802632D01*
X59153710Y-61831896D01*
X59155773Y-61836876D01*
X59156155Y-61842251D01*
X59166664Y-61869714D01*
X59238093Y-62012571D01*
X59241173Y-62017465D01*
X59241943Y-62019773D01*
X59244435Y-62022646D01*
X59253758Y-62037457D01*
X59267969Y-62049781D01*
X59280290Y-62063988D01*
X59295097Y-62073309D01*
X59297973Y-62075803D01*
X59300281Y-62076572D01*
X59305175Y-62079653D01*
X59448033Y-62151081D01*
X59475496Y-62161591D01*
X59480871Y-62161972D01*
X59485850Y-62164035D01*
X59515114Y-62166917D01*
X59800980Y-62166917D01*
X59800985Y-62166918D01*
X59800990Y-62166917D01*
X60086542Y-62166917D01*
X60115806Y-62164035D01*
X60120784Y-62161972D01*
X60126160Y-62161591D01*
X60153623Y-62151081D01*
X60296482Y-62079653D01*
X60301375Y-62076572D01*
X60303684Y-62075803D01*
X60306558Y-62073309D01*
X60321367Y-62063988D01*
X60333691Y-62049778D01*
X60347899Y-62037456D01*
X60357218Y-62022651D01*
X60359714Y-62019774D01*
X60360484Y-62017463D01*
X60363564Y-62012571D01*
X60434992Y-61869713D01*
X60445502Y-61842250D01*
X60445883Y-61836874D01*
X60447946Y-61831896D01*
X60450828Y-61802632D01*
X60450828Y-61516917D01*
X60447946Y-61487653D01*
X60445883Y-61482674D01*
X60445502Y-61477299D01*
X60434992Y-61449836D01*
X60363564Y-61306978D01*
X60347899Y-61282093D01*
X60303684Y-61243746D01*
X60248162Y-61225238D01*
X60189782Y-61229386D01*
X60137433Y-61255561D01*
X60099086Y-61299776D01*
X60080578Y-61355298D01*
X60084726Y-61413678D01*
X60095236Y-61441142D01*
X60150828Y-61552326D01*
X60150828Y-61767222D01*
X60117596Y-61833685D01*
X60051133Y-61866917D01*
X59923798Y-61866917D01*
X59805058Y-61273215D01*
X59796493Y-61245084D01*
X59788314Y-61232872D01*
X59782691Y-61219296D01*
X59772188Y-61208793D01*
X59763925Y-61196455D01*
X59751699Y-61188304D01*
X59741307Y-61177912D01*
X59727586Y-61172228D01*
X59715229Y-61163990D01*
X59700812Y-61161138D01*
X59687235Y-61155514D01*
X59657971Y-61152632D01*
X59515114Y-61152632D01*
X59485850Y-61155514D01*
X59480871Y-61157576D01*
X59475496Y-61157958D01*
X59448033Y-61168468D01*
X59305175Y-61239896D01*
X59300281Y-61242976D01*
X59297973Y-61243746D01*
X59295097Y-61246239D01*
X59280290Y-61255561D01*
X59267969Y-61269767D01*
X59253758Y-61282092D01*
X59244435Y-61296902D01*
X59241943Y-61299776D01*
X59241173Y-61302083D01*
X59238093Y-61306978D01*
X59166664Y-61449835D01*
X59156155Y-61477298D01*
X59155773Y-61482672D01*
X59153710Y-61487653D01*
X59150828Y-61516917D01*
X58484161Y-61516917D01*
X58484161Y-60231203D01*
X59150828Y-60231203D01*
X59150828Y-60374060D01*
X59153710Y-60403324D01*
X59155771Y-60408301D01*
X59156154Y-60413679D01*
X59166664Y-60441142D01*
X59214911Y-60537636D01*
X59176108Y-60576439D01*
X59153710Y-60630511D01*
X59153710Y-60689039D01*
X59176108Y-60743111D01*
X59217492Y-60784495D01*
X59271564Y-60806893D01*
X59300828Y-60809775D01*
X60300828Y-60809775D01*
X60330092Y-60806893D01*
X60384164Y-60784495D01*
X60425548Y-60743111D01*
X60447946Y-60689039D01*
X60447946Y-60630511D01*
X60425548Y-60576439D01*
X60384164Y-60535055D01*
X60330092Y-60512657D01*
X60300828Y-60509775D01*
X59621952Y-60509775D01*
X59532539Y-60465068D01*
X59495535Y-60428064D01*
X59450828Y-60338650D01*
X59450828Y-60231203D01*
X59447946Y-60201939D01*
X59425548Y-60147867D01*
X59384164Y-60106483D01*
X59330092Y-60084085D01*
X59271564Y-60084085D01*
X59217492Y-60106483D01*
X59176108Y-60147867D01*
X59153710Y-60201939D01*
X59150828Y-60231203D01*
X58484161Y-60231203D01*
X58484161Y-58016918D01*
X58650828Y-58016918D01*
X58650828Y-58374061D01*
X58653710Y-58403325D01*
X58655773Y-58408305D01*
X58656155Y-58413680D01*
X58666664Y-58441143D01*
X58738093Y-58584000D01*
X58746021Y-58596595D01*
X58747536Y-58600252D01*
X58750915Y-58604369D01*
X58753758Y-58608886D01*
X58756752Y-58611483D01*
X58766190Y-58622983D01*
X58837618Y-58694412D01*
X58849123Y-58703854D01*
X58851718Y-58706846D01*
X58856228Y-58709685D01*
X58860349Y-58713067D01*
X58864008Y-58714582D01*
X58876603Y-58722511D01*
X59019461Y-58793939D01*
X59046924Y-58804449D01*
X59052299Y-58804830D01*
X59057278Y-58806893D01*
X59086542Y-58809775D01*
X59229400Y-58809775D01*
X59258664Y-58806893D01*
X59263642Y-58804830D01*
X59269018Y-58804449D01*
X59296482Y-58793939D01*
X59439339Y-58722511D01*
X59451934Y-58714582D01*
X59455593Y-58713067D01*
X59459710Y-58709687D01*
X59464225Y-58706846D01*
X59466821Y-58703851D01*
X59478324Y-58694412D01*
X59549752Y-58622983D01*
X59559190Y-58611482D01*
X59562184Y-58608886D01*
X59565024Y-58604373D01*
X59568406Y-58600253D01*
X59569921Y-58596593D01*
X59577849Y-58584000D01*
X59649278Y-58441144D01*
X59650097Y-58439001D01*
X59650742Y-58438132D01*
X59655126Y-58425860D01*
X59659787Y-58413680D01*
X59659863Y-58412599D01*
X59660635Y-58410441D01*
X59728068Y-58140703D01*
X59781249Y-58034343D01*
X59818254Y-57997338D01*
X59907667Y-57952632D01*
X59979704Y-57952632D01*
X60069117Y-57997339D01*
X60106121Y-58034343D01*
X60150828Y-58123756D01*
X60150828Y-58421147D01*
X60087097Y-58612341D01*
X60080577Y-58641015D01*
X60084727Y-58699395D01*
X60110901Y-58751742D01*
X60155115Y-58790089D01*
X60210640Y-58808598D01*
X60269020Y-58804448D01*
X60321367Y-58778274D01*
X60359714Y-58734060D01*
X60371703Y-58707209D01*
X60443131Y-58492924D01*
X60446429Y-58478414D01*
X60447946Y-58474754D01*
X60448468Y-58469445D01*
X60449650Y-58464250D01*
X60449369Y-58460301D01*
X60450828Y-58445490D01*
X60450828Y-58088347D01*
X60447946Y-58059083D01*
X60445883Y-58054104D01*
X60445502Y-58048729D01*
X60434992Y-58021266D01*
X60363564Y-57878408D01*
X60355637Y-57865816D01*
X60354121Y-57862155D01*
X60350737Y-57858032D01*
X60347899Y-57853523D01*
X60344907Y-57850928D01*
X60335466Y-57839424D01*
X60264037Y-57767995D01*
X60252535Y-57758555D01*
X60249939Y-57755562D01*
X60245425Y-57752721D01*
X60241306Y-57749340D01*
X60237646Y-57747824D01*
X60225053Y-57739897D01*
X60082196Y-57668468D01*
X60054733Y-57657959D01*
X60049358Y-57657577D01*
X60044378Y-57655514D01*
X60015114Y-57652632D01*
X59872257Y-57652632D01*
X59842993Y-57655514D01*
X59838012Y-57657577D01*
X59832638Y-57657959D01*
X59805174Y-57668468D01*
X59662318Y-57739897D01*
X59649724Y-57747824D01*
X59646065Y-57749340D01*
X59641945Y-57752721D01*
X59637432Y-57755562D01*
X59634835Y-57758556D01*
X59623334Y-57767995D01*
X59551905Y-57839424D01*
X59542465Y-57850925D01*
X59539472Y-57853522D01*
X59536631Y-57858035D01*
X59533250Y-57862155D01*
X59531734Y-57865814D01*
X59523807Y-57878408D01*
X59452378Y-58021265D01*
X59451558Y-58023405D01*
X59450914Y-58024276D01*
X59446527Y-58036553D01*
X59441869Y-58048728D01*
X59441792Y-58049808D01*
X59441021Y-58051967D01*
X59373586Y-58321704D01*
X59320406Y-58428064D01*
X59283401Y-58465069D01*
X59193990Y-58509775D01*
X59121952Y-58509775D01*
X59032539Y-58465069D01*
X58995535Y-58428065D01*
X58950828Y-58338650D01*
X58950828Y-58041258D01*
X59014559Y-57850067D01*
X59021079Y-57821393D01*
X59016930Y-57763013D01*
X58990756Y-57710666D01*
X58946542Y-57672318D01*
X58891018Y-57653810D01*
X58832638Y-57657959D01*
X58780290Y-57684133D01*
X58741943Y-57728347D01*
X58729954Y-57755198D01*
X58658526Y-57969484D01*
X58655227Y-57983991D01*
X58653710Y-57987654D01*
X58653187Y-57992962D01*
X58652006Y-57998157D01*
X58652286Y-58002106D01*
X58650828Y-58016918D01*
X58484161Y-58016918D01*
X58484161Y-57130512D01*
X58653710Y-57130512D01*
X58653710Y-57189040D01*
X58676108Y-57243112D01*
X58717492Y-57284496D01*
X58771564Y-57306894D01*
X58800828Y-57309776D01*
X59150828Y-57309776D01*
X59150828Y-57374061D01*
X59153710Y-57403325D01*
X59176108Y-57457397D01*
X59217492Y-57498781D01*
X59271564Y-57521179D01*
X59330092Y-57521179D01*
X59384164Y-57498781D01*
X59425548Y-57457397D01*
X59447946Y-57403325D01*
X59450828Y-57374061D01*
X59450828Y-57309776D01*
X60086542Y-57309776D01*
X60115806Y-57306894D01*
X60120783Y-57304832D01*
X60126161Y-57304450D01*
X60153624Y-57293940D01*
X60296482Y-57222511D01*
X60301376Y-57219430D01*
X60303684Y-57218661D01*
X60306557Y-57216168D01*
X60321368Y-57206846D01*
X60333692Y-57192634D01*
X60347899Y-57180314D01*
X60357220Y-57165506D01*
X60359714Y-57162631D01*
X60360483Y-57160322D01*
X60363564Y-57155429D01*
X60434992Y-57012571D01*
X60445502Y-56985108D01*
X60445883Y-56979732D01*
X60447946Y-56974754D01*
X60450828Y-56945490D01*
X60450828Y-56802633D01*
X60447946Y-56773369D01*
X60425548Y-56719297D01*
X60384164Y-56677913D01*
X60330092Y-56655515D01*
X60271564Y-56655515D01*
X60217492Y-56677913D01*
X60176108Y-56719297D01*
X60153710Y-56773369D01*
X60150828Y-56802633D01*
X60150828Y-56910080D01*
X60117596Y-56976543D01*
X60051132Y-57009776D01*
X59450828Y-57009776D01*
X59450828Y-56802633D01*
X59447946Y-56773369D01*
X59425548Y-56719297D01*
X59384164Y-56677913D01*
X59330092Y-56655515D01*
X59271564Y-56655515D01*
X59217492Y-56677913D01*
X59176108Y-56719297D01*
X59153710Y-56773369D01*
X59150828Y-56802633D01*
X59150828Y-57009776D01*
X58800828Y-57009776D01*
X58771564Y-57012658D01*
X58717492Y-57035056D01*
X58676108Y-57076440D01*
X58653710Y-57130512D01*
X58484161Y-57130512D01*
X58484161Y-55874061D01*
X59150828Y-55874061D01*
X59150828Y-56159776D01*
X59153710Y-56189040D01*
X59155773Y-56194020D01*
X59156155Y-56199395D01*
X59166664Y-56226858D01*
X59238093Y-56369715D01*
X59253758Y-56394601D01*
X59297973Y-56432947D01*
X59353496Y-56451455D01*
X59411876Y-56447306D01*
X59464225Y-56421132D01*
X59502572Y-56376916D01*
X59521079Y-56321394D01*
X59516930Y-56263014D01*
X59506421Y-56235550D01*
X59450828Y-56124365D01*
X59450828Y-55909471D01*
X59484060Y-55843007D01*
X59550524Y-55809776D01*
X59565266Y-55809776D01*
X59579400Y-55838043D01*
X59579400Y-56159776D01*
X59582282Y-56189040D01*
X59584344Y-56194018D01*
X59584726Y-56199394D01*
X59595236Y-56226858D01*
X59666664Y-56369715D01*
X59669744Y-56374609D01*
X59670514Y-56376917D01*
X59673006Y-56379790D01*
X59682329Y-56394601D01*
X59696540Y-56406925D01*
X59708861Y-56421132D01*
X59723668Y-56430453D01*
X59726544Y-56432947D01*
X59728852Y-56433716D01*
X59733746Y-56436797D01*
X59876604Y-56508225D01*
X59904067Y-56518735D01*
X59909442Y-56519116D01*
X59914421Y-56521179D01*
X59943685Y-56524061D01*
X60086542Y-56524061D01*
X60115806Y-56521179D01*
X60120784Y-56519116D01*
X60126160Y-56518735D01*
X60153623Y-56508225D01*
X60296482Y-56436797D01*
X60301375Y-56433716D01*
X60303684Y-56432947D01*
X60306558Y-56430453D01*
X60321367Y-56421132D01*
X60333691Y-56406922D01*
X60347899Y-56394600D01*
X60357218Y-56379795D01*
X60359714Y-56376918D01*
X60360484Y-56374607D01*
X60363564Y-56369715D01*
X60434992Y-56226857D01*
X60445502Y-56199394D01*
X60445883Y-56194018D01*
X60447946Y-56189040D01*
X60450828Y-56159776D01*
X60450828Y-55802633D01*
X60447946Y-55773369D01*
X60445883Y-55768390D01*
X60445502Y-55763015D01*
X60434992Y-55735552D01*
X60431539Y-55728647D01*
X60447946Y-55689040D01*
X60447946Y-55630512D01*
X60425548Y-55576440D01*
X60384164Y-55535056D01*
X60330092Y-55512658D01*
X60300828Y-55509776D01*
X59515114Y-55509776D01*
X59485850Y-55512658D01*
X59480871Y-55514720D01*
X59475496Y-55515102D01*
X59448033Y-55525612D01*
X59305175Y-55597040D01*
X59300281Y-55600120D01*
X59297973Y-55600890D01*
X59295097Y-55603383D01*
X59280290Y-55612705D01*
X59267969Y-55626911D01*
X59253758Y-55639236D01*
X59244435Y-55654046D01*
X59241943Y-55656920D01*
X59241173Y-55659227D01*
X59238093Y-55664122D01*
X59166664Y-55806979D01*
X59156155Y-55834442D01*
X59155773Y-55839816D01*
X59153710Y-55844797D01*
X59150828Y-55874061D01*
X58484161Y-55874061D01*
X58484161Y-54916226D01*
X58653710Y-54916226D01*
X58653710Y-54974754D01*
X58676108Y-55028826D01*
X58717492Y-55070210D01*
X58771564Y-55092608D01*
X58800828Y-55095490D01*
X59150828Y-55095490D01*
X59150828Y-55159775D01*
X59153710Y-55189039D01*
X59176108Y-55243111D01*
X59217492Y-55284495D01*
X59271564Y-55306893D01*
X59330092Y-55306893D01*
X59384164Y-55284495D01*
X59425548Y-55243111D01*
X59447946Y-55189039D01*
X59450828Y-55159775D01*
X59450828Y-55095490D01*
X60086542Y-55095490D01*
X60115806Y-55092608D01*
X60120783Y-55090546D01*
X60126161Y-55090164D01*
X60153624Y-55079654D01*
X60296482Y-55008225D01*
X60301376Y-55005144D01*
X60303684Y-55004375D01*
X60306557Y-55001882D01*
X60321368Y-54992560D01*
X60333692Y-54978348D01*
X60347899Y-54966028D01*
X60357220Y-54951220D01*
X60359714Y-54948345D01*
X60360483Y-54946036D01*
X60363564Y-54941143D01*
X60434992Y-54798285D01*
X60445502Y-54770822D01*
X60445883Y-54765446D01*
X60447946Y-54760468D01*
X60450828Y-54731204D01*
X60450828Y-54588347D01*
X60447946Y-54559083D01*
X60425548Y-54505011D01*
X60384164Y-54463627D01*
X60330092Y-54441229D01*
X60271564Y-54441229D01*
X60217492Y-54463627D01*
X60176108Y-54505011D01*
X60153710Y-54559083D01*
X60150828Y-54588347D01*
X60150828Y-54695794D01*
X60117596Y-54762257D01*
X60051132Y-54795490D01*
X59450828Y-54795490D01*
X59450828Y-54588347D01*
X59447946Y-54559083D01*
X59425548Y-54505011D01*
X59384164Y-54463627D01*
X59330092Y-54441229D01*
X59271564Y-54441229D01*
X59217492Y-54463627D01*
X59176108Y-54505011D01*
X59153710Y-54559083D01*
X59150828Y-54588347D01*
X59150828Y-54795490D01*
X58800828Y-54795490D01*
X58771564Y-54798372D01*
X58717492Y-54820770D01*
X58676108Y-54862154D01*
X58653710Y-54916226D01*
X58484161Y-54916226D01*
X58484161Y-54059083D01*
X58653710Y-54059083D01*
X58653710Y-54059084D01*
X58653710Y-54059085D01*
X58653710Y-54117611D01*
X58655936Y-54122984D01*
X58676107Y-54171682D01*
X58676108Y-54171683D01*
X58694763Y-54194414D01*
X58766192Y-54265842D01*
X58788921Y-54284495D01*
X58788922Y-54284496D01*
X58842994Y-54306893D01*
X58842995Y-54306893D01*
X58901520Y-54306893D01*
X58955592Y-54284496D01*
X58978323Y-54265841D01*
X59049751Y-54194413D01*
X59068406Y-54171683D01*
X59077682Y-54149285D01*
X59090803Y-54117611D01*
X59090803Y-54059083D01*
X59153710Y-54059083D01*
X59153710Y-54117611D01*
X59176108Y-54171683D01*
X59217492Y-54213067D01*
X59271564Y-54235465D01*
X59300828Y-54238347D01*
X60300828Y-54238347D01*
X60330092Y-54235465D01*
X60384164Y-54213067D01*
X60425548Y-54171683D01*
X60447946Y-54117611D01*
X60447946Y-54059083D01*
X60425548Y-54005011D01*
X60384164Y-53963627D01*
X60330092Y-53941229D01*
X60300828Y-53938347D01*
X59300828Y-53938347D01*
X59271564Y-53941229D01*
X59217492Y-53963627D01*
X59176108Y-54005011D01*
X59153710Y-54059083D01*
X59090803Y-54059083D01*
X59068406Y-54005013D01*
X59068406Y-54005012D01*
X59049752Y-53982282D01*
X58978324Y-53910853D01*
X58955593Y-53892198D01*
X58955592Y-53892197D01*
X58923918Y-53879077D01*
X58901521Y-53869800D01*
X58901520Y-53869800D01*
X58842994Y-53869800D01*
X58788922Y-53892197D01*
X58766191Y-53910852D01*
X58694762Y-53982281D01*
X58676107Y-54005012D01*
X58676107Y-54005013D01*
X58653710Y-54059083D01*
X58484161Y-54059083D01*
X58484161Y-52945489D01*
X59150828Y-52945489D01*
X59150828Y-53159775D01*
X59153710Y-53189039D01*
X59155773Y-53194019D01*
X59156155Y-53199394D01*
X59166664Y-53226857D01*
X59238093Y-53369714D01*
X59246021Y-53382309D01*
X59247536Y-53385966D01*
X59250915Y-53390083D01*
X59253758Y-53394600D01*
X59256752Y-53397197D01*
X59266190Y-53408697D01*
X59337618Y-53480126D01*
X59349123Y-53489568D01*
X59351718Y-53492560D01*
X59356228Y-53495399D01*
X59360349Y-53498781D01*
X59364008Y-53500296D01*
X59376603Y-53508225D01*
X59519461Y-53579653D01*
X59546924Y-53590163D01*
X59552299Y-53590544D01*
X59557278Y-53592607D01*
X59586542Y-53595489D01*
X60015114Y-53595489D01*
X60044378Y-53592607D01*
X60049356Y-53590544D01*
X60054732Y-53590163D01*
X60082196Y-53579653D01*
X60225053Y-53508225D01*
X60237646Y-53500297D01*
X60241306Y-53498782D01*
X60245425Y-53495400D01*
X60249939Y-53492560D01*
X60252535Y-53489566D01*
X60264037Y-53480127D01*
X60335466Y-53408698D01*
X60344907Y-53397193D01*
X60347899Y-53394599D01*
X60350737Y-53390089D01*
X60354121Y-53385967D01*
X60355637Y-53382305D01*
X60363564Y-53369714D01*
X60434992Y-53226856D01*
X60445502Y-53199393D01*
X60445883Y-53194017D01*
X60447946Y-53189039D01*
X60450828Y-53159775D01*
X60450828Y-52945489D01*
X60447946Y-52916225D01*
X60445883Y-52911246D01*
X60445502Y-52905871D01*
X60434992Y-52878408D01*
X60363564Y-52735550D01*
X60355635Y-52722955D01*
X60354120Y-52719296D01*
X60350738Y-52715175D01*
X60347899Y-52710665D01*
X60344907Y-52708070D01*
X60335465Y-52696565D01*
X60264036Y-52625137D01*
X60252536Y-52615699D01*
X60249939Y-52612705D01*
X60245422Y-52609862D01*
X60241305Y-52606483D01*
X60237648Y-52604968D01*
X60225053Y-52597040D01*
X60082196Y-52525611D01*
X60054733Y-52515102D01*
X60049358Y-52514720D01*
X60044378Y-52512657D01*
X60015114Y-52509775D01*
X59586542Y-52509775D01*
X59557278Y-52512657D01*
X59552297Y-52514720D01*
X59546923Y-52515102D01*
X59519459Y-52525611D01*
X59376603Y-52597040D01*
X59364011Y-52604966D01*
X59360349Y-52606483D01*
X59356226Y-52609866D01*
X59351717Y-52612705D01*
X59349121Y-52615697D01*
X59337619Y-52625138D01*
X59266191Y-52696566D01*
X59256751Y-52708067D01*
X59253758Y-52710664D01*
X59250917Y-52715177D01*
X59247536Y-52719297D01*
X59246020Y-52722956D01*
X59238093Y-52735550D01*
X59166664Y-52878407D01*
X59156155Y-52905870D01*
X59155773Y-52911244D01*
X59153710Y-52916225D01*
X59150828Y-52945489D01*
X58484161Y-52945489D01*
X58484161Y-51588346D01*
X59150828Y-51588346D01*
X59150828Y-51802632D01*
X59153710Y-51831896D01*
X59155773Y-51836876D01*
X59156155Y-51842251D01*
X59166664Y-51869714D01*
X59191101Y-51918588D01*
X59176108Y-51933582D01*
X59153710Y-51987654D01*
X59153710Y-52046182D01*
X59176108Y-52100254D01*
X59217492Y-52141638D01*
X59271564Y-52164036D01*
X59300828Y-52166918D01*
X60300828Y-52166918D01*
X60330092Y-52164036D01*
X60384164Y-52141638D01*
X60425548Y-52100254D01*
X60447946Y-52046182D01*
X60447946Y-51987654D01*
X60425548Y-51933582D01*
X60384164Y-51892198D01*
X60330092Y-51869800D01*
X60300828Y-51866918D01*
X59505818Y-51866918D01*
X59495535Y-51856636D01*
X59450828Y-51767221D01*
X59450828Y-51623756D01*
X59484060Y-51557292D01*
X59550524Y-51524061D01*
X60300828Y-51524061D01*
X60330092Y-51521179D01*
X60384164Y-51498781D01*
X60425548Y-51457397D01*
X60447946Y-51403325D01*
X60447946Y-51344797D01*
X60425548Y-51290725D01*
X60384164Y-51249341D01*
X60330092Y-51226943D01*
X60300828Y-51224061D01*
X59515114Y-51224061D01*
X59485850Y-51226943D01*
X59480871Y-51229005D01*
X59475496Y-51229387D01*
X59448033Y-51239897D01*
X59305175Y-51311325D01*
X59300281Y-51314405D01*
X59297973Y-51315175D01*
X59295097Y-51317668D01*
X59280290Y-51326990D01*
X59267969Y-51341196D01*
X59253758Y-51353521D01*
X59244435Y-51368331D01*
X59241943Y-51371205D01*
X59241173Y-51373512D01*
X59238093Y-51378407D01*
X59166664Y-51521264D01*
X59156155Y-51548727D01*
X59155773Y-51554101D01*
X59153710Y-51559082D01*
X59150828Y-51588346D01*
X58484161Y-51588346D01*
X58484161Y-51057394D01*
X60617495Y-51057394D01*
X60617495Y-79762156D01*
G37*
D11*
X105333333Y-70939580D02*
X105285714Y-70987200D01*
X105285714Y-70987200D02*
X105142857Y-71034819D01*
X105142857Y-71034819D02*
X105047619Y-71034819D01*
X105047619Y-71034819D02*
X104904762Y-70987200D01*
X104904762Y-70987200D02*
X104809524Y-70891961D01*
X104809524Y-70891961D02*
X104761905Y-70796723D01*
X104761905Y-70796723D02*
X104714286Y-70606247D01*
X104714286Y-70606247D02*
X104714286Y-70463390D01*
X104714286Y-70463390D02*
X104761905Y-70272914D01*
X104761905Y-70272914D02*
X104809524Y-70177676D01*
X104809524Y-70177676D02*
X104904762Y-70082438D01*
X104904762Y-70082438D02*
X105047619Y-70034819D01*
X105047619Y-70034819D02*
X105142857Y-70034819D01*
X105142857Y-70034819D02*
X105285714Y-70082438D01*
X105285714Y-70082438D02*
X105333333Y-70130057D01*
X105809524Y-71034819D02*
X106000000Y-71034819D01*
X106000000Y-71034819D02*
X106095238Y-70987200D01*
X106095238Y-70987200D02*
X106142857Y-70939580D01*
X106142857Y-70939580D02*
X106238095Y-70796723D01*
X106238095Y-70796723D02*
X106285714Y-70606247D01*
X106285714Y-70606247D02*
X106285714Y-70225295D01*
X106285714Y-70225295D02*
X106238095Y-70130057D01*
X106238095Y-70130057D02*
X106190476Y-70082438D01*
X106190476Y-70082438D02*
X106095238Y-70034819D01*
X106095238Y-70034819D02*
X105904762Y-70034819D01*
X105904762Y-70034819D02*
X105809524Y-70082438D01*
X105809524Y-70082438D02*
X105761905Y-70130057D01*
X105761905Y-70130057D02*
X105714286Y-70225295D01*
X105714286Y-70225295D02*
X105714286Y-70463390D01*
X105714286Y-70463390D02*
X105761905Y-70558628D01*
X105761905Y-70558628D02*
X105809524Y-70606247D01*
X105809524Y-70606247D02*
X105904762Y-70653866D01*
X105904762Y-70653866D02*
X106095238Y-70653866D01*
X106095238Y-70653866D02*
X106190476Y-70606247D01*
X106190476Y-70606247D02*
X106238095Y-70558628D01*
X106238095Y-70558628D02*
X106285714Y-70463390D01*
X105333333Y-68429580D02*
X105285714Y-68477200D01*
X105285714Y-68477200D02*
X105142857Y-68524819D01*
X105142857Y-68524819D02*
X105047619Y-68524819D01*
X105047619Y-68524819D02*
X104904762Y-68477200D01*
X104904762Y-68477200D02*
X104809524Y-68381961D01*
X104809524Y-68381961D02*
X104761905Y-68286723D01*
X104761905Y-68286723D02*
X104714286Y-68096247D01*
X104714286Y-68096247D02*
X104714286Y-67953390D01*
X104714286Y-67953390D02*
X104761905Y-67762914D01*
X104761905Y-67762914D02*
X104809524Y-67667676D01*
X104809524Y-67667676D02*
X104904762Y-67572438D01*
X104904762Y-67572438D02*
X105047619Y-67524819D01*
X105047619Y-67524819D02*
X105142857Y-67524819D01*
X105142857Y-67524819D02*
X105285714Y-67572438D01*
X105285714Y-67572438D02*
X105333333Y-67620057D01*
X105904762Y-67953390D02*
X105809524Y-67905771D01*
X105809524Y-67905771D02*
X105761905Y-67858152D01*
X105761905Y-67858152D02*
X105714286Y-67762914D01*
X105714286Y-67762914D02*
X105714286Y-67715295D01*
X105714286Y-67715295D02*
X105761905Y-67620057D01*
X105761905Y-67620057D02*
X105809524Y-67572438D01*
X105809524Y-67572438D02*
X105904762Y-67524819D01*
X105904762Y-67524819D02*
X106095238Y-67524819D01*
X106095238Y-67524819D02*
X106190476Y-67572438D01*
X106190476Y-67572438D02*
X106238095Y-67620057D01*
X106238095Y-67620057D02*
X106285714Y-67715295D01*
X106285714Y-67715295D02*
X106285714Y-67762914D01*
X106285714Y-67762914D02*
X106238095Y-67858152D01*
X106238095Y-67858152D02*
X106190476Y-67905771D01*
X106190476Y-67905771D02*
X106095238Y-67953390D01*
X106095238Y-67953390D02*
X105904762Y-67953390D01*
X105904762Y-67953390D02*
X105809524Y-68001009D01*
X105809524Y-68001009D02*
X105761905Y-68048628D01*
X105761905Y-68048628D02*
X105714286Y-68143866D01*
X105714286Y-68143866D02*
X105714286Y-68334342D01*
X105714286Y-68334342D02*
X105761905Y-68429580D01*
X105761905Y-68429580D02*
X105809524Y-68477200D01*
X105809524Y-68477200D02*
X105904762Y-68524819D01*
X105904762Y-68524819D02*
X106095238Y-68524819D01*
X106095238Y-68524819D02*
X106190476Y-68477200D01*
X106190476Y-68477200D02*
X106238095Y-68429580D01*
X106238095Y-68429580D02*
X106285714Y-68334342D01*
X106285714Y-68334342D02*
X106285714Y-68143866D01*
X106285714Y-68143866D02*
X106238095Y-68048628D01*
X106238095Y-68048628D02*
X106190476Y-68001009D01*
X106190476Y-68001009D02*
X106095238Y-67953390D01*
G36*
X100041812Y-77140930D02*
G01*
X98051984Y-77140930D01*
X98051984Y-75954819D01*
X98163095Y-75954819D01*
X98163095Y-76764342D01*
X98164536Y-76778974D01*
X98165567Y-76781463D01*
X98165758Y-76784151D01*
X98171013Y-76797883D01*
X98218632Y-76893121D01*
X98222595Y-76899417D01*
X98223353Y-76901247D01*
X98225042Y-76903305D01*
X98226464Y-76905564D01*
X98227962Y-76906863D01*
X98232680Y-76912612D01*
X98280299Y-76960232D01*
X98286048Y-76964950D01*
X98287349Y-76966450D01*
X98289608Y-76967872D01*
X98291665Y-76969560D01*
X98293492Y-76970317D01*
X98299792Y-76974282D01*
X98395030Y-77021901D01*
X98408761Y-77027156D01*
X98411450Y-77027347D01*
X98413939Y-77028378D01*
X98428571Y-77029819D01*
X98619047Y-77029819D01*
X98633679Y-77028378D01*
X98636168Y-77027346D01*
X98638856Y-77027156D01*
X98652588Y-77021901D01*
X98747826Y-76974282D01*
X98754125Y-76970317D01*
X98755953Y-76969560D01*
X98758009Y-76967872D01*
X98760269Y-76966450D01*
X98761569Y-76964950D01*
X98767319Y-76960232D01*
X98814937Y-76912613D01*
X98819655Y-76906863D01*
X98821154Y-76905564D01*
X98822575Y-76903305D01*
X98824265Y-76901247D01*
X98825022Y-76899417D01*
X98828986Y-76893121D01*
X98876605Y-76797883D01*
X98881860Y-76784152D01*
X98882051Y-76781462D01*
X98883082Y-76778974D01*
X98884523Y-76764342D01*
X98884523Y-76612105D01*
X99163684Y-76612105D01*
X99164536Y-76624090D01*
X99164536Y-76636117D01*
X99165568Y-76638608D01*
X99165759Y-76641295D01*
X99171133Y-76652044D01*
X99175735Y-76663153D01*
X99177640Y-76665058D01*
X99178845Y-76667468D01*
X99187927Y-76675345D01*
X99196427Y-76683845D01*
X99198915Y-76684875D01*
X99200952Y-76686642D01*
X99212355Y-76690443D01*
X99223463Y-76695044D01*
X99227289Y-76695420D01*
X99228715Y-76695896D01*
X99230689Y-76695755D01*
X99238095Y-76696485D01*
X99639285Y-76696485D01*
X99639285Y-76954819D01*
X99640726Y-76969451D01*
X99651925Y-76996487D01*
X99672617Y-77017179D01*
X99699653Y-77028378D01*
X99728917Y-77028378D01*
X99755953Y-77017179D01*
X99776645Y-76996487D01*
X99787844Y-76969451D01*
X99789285Y-76954819D01*
X99789285Y-76696485D01*
X99857142Y-76696485D01*
X99871774Y-76695044D01*
X99898810Y-76683845D01*
X99919502Y-76663153D01*
X99930701Y-76636117D01*
X99930701Y-76606853D01*
X99919502Y-76579817D01*
X99898810Y-76559125D01*
X99871774Y-76547926D01*
X99857142Y-76546485D01*
X99789285Y-76546485D01*
X99789285Y-76288152D01*
X99787844Y-76273520D01*
X99776645Y-76246484D01*
X99755953Y-76225792D01*
X99728917Y-76214593D01*
X99699653Y-76214593D01*
X99672617Y-76225792D01*
X99651925Y-76246484D01*
X99640726Y-76273520D01*
X99639285Y-76288152D01*
X99639285Y-76546485D01*
X99342152Y-76546485D01*
X99547341Y-75930918D01*
X99550601Y-75916581D01*
X99548526Y-75887391D01*
X99535440Y-75861217D01*
X99513332Y-75842043D01*
X99485570Y-75832789D01*
X99456380Y-75834864D01*
X99430207Y-75847951D01*
X99411033Y-75870058D01*
X99405039Y-75883483D01*
X99166944Y-76597768D01*
X99165294Y-76605021D01*
X99164536Y-76606853D01*
X99164536Y-76608358D01*
X99163684Y-76612105D01*
X98884523Y-76612105D01*
X98884523Y-75954819D01*
X98883082Y-75940187D01*
X98871883Y-75913151D01*
X98851191Y-75892459D01*
X98824155Y-75881260D01*
X98794891Y-75881260D01*
X98767855Y-75892459D01*
X98747163Y-75913151D01*
X98735964Y-75940187D01*
X98734523Y-75954819D01*
X98734523Y-76746637D01*
X98700264Y-76815153D01*
X98669857Y-76845561D01*
X98601342Y-76879819D01*
X98446276Y-76879819D01*
X98377760Y-76845561D01*
X98347353Y-76815153D01*
X98313095Y-76746637D01*
X98313095Y-75954819D01*
X98311654Y-75940187D01*
X98300455Y-75913151D01*
X98279763Y-75892459D01*
X98252727Y-75881260D01*
X98223463Y-75881260D01*
X98196427Y-75892459D01*
X98175735Y-75913151D01*
X98164536Y-75940187D01*
X98163095Y-75954819D01*
X98051984Y-75954819D01*
X98051984Y-75721678D01*
X100041812Y-75721678D01*
X100041812Y-77140930D01*
G37*
G36*
X93534193Y-70200930D02*
G01*
X91591984Y-70200930D01*
X91591984Y-69014819D01*
X91703095Y-69014819D01*
X91703095Y-69824342D01*
X91704536Y-69838974D01*
X91705567Y-69841463D01*
X91705758Y-69844151D01*
X91711013Y-69857883D01*
X91758632Y-69953121D01*
X91762595Y-69959417D01*
X91763353Y-69961247D01*
X91765042Y-69963305D01*
X91766464Y-69965564D01*
X91767962Y-69966863D01*
X91772680Y-69972612D01*
X91820299Y-70020232D01*
X91826048Y-70024950D01*
X91827349Y-70026450D01*
X91829608Y-70027872D01*
X91831665Y-70029560D01*
X91833492Y-70030317D01*
X91839792Y-70034282D01*
X91935030Y-70081901D01*
X91948761Y-70087156D01*
X91951450Y-70087347D01*
X91953939Y-70088378D01*
X91968571Y-70089819D01*
X92159047Y-70089819D01*
X92173679Y-70088378D01*
X92176168Y-70087346D01*
X92178856Y-70087156D01*
X92192588Y-70081901D01*
X92287826Y-70034282D01*
X92294125Y-70030317D01*
X92295953Y-70029560D01*
X92298009Y-70027872D01*
X92300269Y-70026450D01*
X92301569Y-70024950D01*
X92307319Y-70020232D01*
X92354937Y-69972613D01*
X92359655Y-69966863D01*
X92361154Y-69965564D01*
X92362575Y-69963305D01*
X92364265Y-69961247D01*
X92365022Y-69959417D01*
X92368986Y-69953121D01*
X92416605Y-69857883D01*
X92421860Y-69844152D01*
X92422051Y-69841462D01*
X92423082Y-69838974D01*
X92424523Y-69824342D01*
X92424523Y-69291152D01*
X92703684Y-69291152D01*
X92705758Y-69320342D01*
X92718845Y-69346517D01*
X92740953Y-69365690D01*
X92768714Y-69374944D01*
X92797904Y-69372870D01*
X92811636Y-69367615D01*
X92906874Y-69319996D01*
X92913173Y-69316031D01*
X92915001Y-69315274D01*
X92917057Y-69313585D01*
X92919317Y-69312164D01*
X92920616Y-69310665D01*
X92926366Y-69305947D01*
X92988809Y-69243504D01*
X92988809Y-69939819D01*
X92778095Y-69939819D01*
X92763463Y-69941260D01*
X92736427Y-69952459D01*
X92715735Y-69973151D01*
X92704536Y-70000187D01*
X92704536Y-70029451D01*
X92715735Y-70056487D01*
X92736427Y-70077179D01*
X92763463Y-70088378D01*
X92778095Y-70089819D01*
X93349523Y-70089819D01*
X93364155Y-70088378D01*
X93391191Y-70077179D01*
X93411883Y-70056487D01*
X93423082Y-70029451D01*
X93423082Y-70000187D01*
X93411883Y-69973151D01*
X93391191Y-69952459D01*
X93364155Y-69941260D01*
X93349523Y-69939819D01*
X93138809Y-69939819D01*
X93138809Y-69014819D01*
X93138803Y-69014766D01*
X93138809Y-69014740D01*
X93138793Y-69014663D01*
X93137368Y-69000187D01*
X93134526Y-68993326D01*
X93133070Y-68986045D01*
X93128980Y-68979938D01*
X93126169Y-68973151D01*
X93120920Y-68967902D01*
X93116787Y-68961730D01*
X93110670Y-68957652D01*
X93105477Y-68952459D01*
X93098617Y-68949617D01*
X93092438Y-68945498D01*
X93085229Y-68944072D01*
X93078441Y-68941260D01*
X93071014Y-68941260D01*
X93063730Y-68939819D01*
X93056525Y-68941260D01*
X93049177Y-68941260D01*
X93042316Y-68944101D01*
X93035036Y-68945558D01*
X93028930Y-68949646D01*
X93022141Y-68952459D01*
X93016890Y-68957709D01*
X93010721Y-68961841D01*
X93001500Y-68973099D01*
X93001449Y-68973151D01*
X93001439Y-68973173D01*
X93001405Y-68973216D01*
X92910285Y-69109896D01*
X92828906Y-69191275D01*
X92744554Y-69233451D01*
X92732111Y-69241283D01*
X92712938Y-69263391D01*
X92703684Y-69291152D01*
X92424523Y-69291152D01*
X92424523Y-69014819D01*
X92423082Y-69000187D01*
X92411883Y-68973151D01*
X92391191Y-68952459D01*
X92364155Y-68941260D01*
X92334891Y-68941260D01*
X92307855Y-68952459D01*
X92287163Y-68973151D01*
X92275964Y-69000187D01*
X92274523Y-69014819D01*
X92274523Y-69806637D01*
X92240264Y-69875153D01*
X92209857Y-69905561D01*
X92141342Y-69939819D01*
X91986276Y-69939819D01*
X91917760Y-69905561D01*
X91887353Y-69875153D01*
X91853095Y-69806637D01*
X91853095Y-69014819D01*
X91851654Y-69000187D01*
X91840455Y-68973151D01*
X91819763Y-68952459D01*
X91792727Y-68941260D01*
X91763463Y-68941260D01*
X91736427Y-68952459D01*
X91715735Y-68973151D01*
X91704536Y-69000187D01*
X91703095Y-69014819D01*
X91591984Y-69014819D01*
X91591984Y-68828708D01*
X93534193Y-68828708D01*
X93534193Y-70200930D01*
G37*
X92058333Y-76359580D02*
X92010714Y-76407200D01*
X92010714Y-76407200D02*
X91867857Y-76454819D01*
X91867857Y-76454819D02*
X91772619Y-76454819D01*
X91772619Y-76454819D02*
X91629762Y-76407200D01*
X91629762Y-76407200D02*
X91534524Y-76311961D01*
X91534524Y-76311961D02*
X91486905Y-76216723D01*
X91486905Y-76216723D02*
X91439286Y-76026247D01*
X91439286Y-76026247D02*
X91439286Y-75883390D01*
X91439286Y-75883390D02*
X91486905Y-75692914D01*
X91486905Y-75692914D02*
X91534524Y-75597676D01*
X91534524Y-75597676D02*
X91629762Y-75502438D01*
X91629762Y-75502438D02*
X91772619Y-75454819D01*
X91772619Y-75454819D02*
X91867857Y-75454819D01*
X91867857Y-75454819D02*
X92010714Y-75502438D01*
X92010714Y-75502438D02*
X92058333Y-75550057D01*
X92963095Y-75454819D02*
X92486905Y-75454819D01*
X92486905Y-75454819D02*
X92439286Y-75931009D01*
X92439286Y-75931009D02*
X92486905Y-75883390D01*
X92486905Y-75883390D02*
X92582143Y-75835771D01*
X92582143Y-75835771D02*
X92820238Y-75835771D01*
X92820238Y-75835771D02*
X92915476Y-75883390D01*
X92915476Y-75883390D02*
X92963095Y-75931009D01*
X92963095Y-75931009D02*
X93010714Y-76026247D01*
X93010714Y-76026247D02*
X93010714Y-76264342D01*
X93010714Y-76264342D02*
X92963095Y-76359580D01*
X92963095Y-76359580D02*
X92915476Y-76407200D01*
X92915476Y-76407200D02*
X92820238Y-76454819D01*
X92820238Y-76454819D02*
X92582143Y-76454819D01*
X92582143Y-76454819D02*
X92486905Y-76407200D01*
X92486905Y-76407200D02*
X92439286Y-76359580D01*
X91844580Y-51141666D02*
X91892200Y-51189285D01*
X91892200Y-51189285D02*
X91939819Y-51332142D01*
X91939819Y-51332142D02*
X91939819Y-51427380D01*
X91939819Y-51427380D02*
X91892200Y-51570237D01*
X91892200Y-51570237D02*
X91796961Y-51665475D01*
X91796961Y-51665475D02*
X91701723Y-51713094D01*
X91701723Y-51713094D02*
X91511247Y-51760713D01*
X91511247Y-51760713D02*
X91368390Y-51760713D01*
X91368390Y-51760713D02*
X91177914Y-51713094D01*
X91177914Y-51713094D02*
X91082676Y-51665475D01*
X91082676Y-51665475D02*
X90987438Y-51570237D01*
X90987438Y-51570237D02*
X90939819Y-51427380D01*
X90939819Y-51427380D02*
X90939819Y-51332142D01*
X90939819Y-51332142D02*
X90987438Y-51189285D01*
X90987438Y-51189285D02*
X91035057Y-51141666D01*
X90939819Y-50808332D02*
X90939819Y-50141666D01*
X90939819Y-50141666D02*
X91939819Y-50570237D01*
G36*
X95495634Y-59640930D02*
G01*
X93551984Y-59640930D01*
X93551984Y-58454819D01*
X93663095Y-58454819D01*
X93663095Y-59264342D01*
X93664536Y-59278974D01*
X93665567Y-59281463D01*
X93665758Y-59284151D01*
X93671013Y-59297883D01*
X93718632Y-59393121D01*
X93722595Y-59399417D01*
X93723353Y-59401247D01*
X93725042Y-59403305D01*
X93726464Y-59405564D01*
X93727962Y-59406863D01*
X93732680Y-59412612D01*
X93780299Y-59460232D01*
X93786048Y-59464950D01*
X93787349Y-59466450D01*
X93789608Y-59467872D01*
X93791665Y-59469560D01*
X93793492Y-59470317D01*
X93799792Y-59474282D01*
X93895030Y-59521901D01*
X93908761Y-59527156D01*
X93911450Y-59527347D01*
X93913939Y-59528378D01*
X93928571Y-59529819D01*
X94119047Y-59529819D01*
X94133679Y-59528378D01*
X94136168Y-59527346D01*
X94138856Y-59527156D01*
X94152588Y-59521901D01*
X94247826Y-59474282D01*
X94254125Y-59470317D01*
X94255953Y-59469560D01*
X94258009Y-59467872D01*
X94260269Y-59466450D01*
X94261569Y-59464950D01*
X94267319Y-59460232D01*
X94314937Y-59412613D01*
X94319655Y-59406863D01*
X94321154Y-59405564D01*
X94322575Y-59403305D01*
X94324265Y-59401247D01*
X94325022Y-59399417D01*
X94328986Y-59393121D01*
X94376605Y-59297883D01*
X94381860Y-59284152D01*
X94382051Y-59281462D01*
X94383082Y-59278974D01*
X94384523Y-59264342D01*
X94384523Y-58454819D01*
X94383082Y-58440187D01*
X94616917Y-58440187D01*
X94616917Y-58469451D01*
X94628116Y-58496487D01*
X94648808Y-58517179D01*
X94675844Y-58528378D01*
X94690476Y-58529819D01*
X95144241Y-58529819D01*
X94919747Y-58786383D01*
X94915225Y-58792707D01*
X94913830Y-58794103D01*
X94913281Y-58795426D01*
X94911196Y-58798344D01*
X94907294Y-58809881D01*
X94902631Y-58821139D01*
X94902631Y-58823669D01*
X94901821Y-58826065D01*
X94902631Y-58838218D01*
X94902631Y-58850403D01*
X94903598Y-58852739D01*
X94903767Y-58855263D01*
X94909169Y-58866188D01*
X94913830Y-58877439D01*
X94915616Y-58879225D01*
X94916739Y-58881495D01*
X94925911Y-58889520D01*
X94934522Y-58898131D01*
X94936858Y-58899099D01*
X94938763Y-58900765D01*
X94950300Y-58904666D01*
X94961558Y-58909330D01*
X94965128Y-58909681D01*
X94966484Y-58910140D01*
X94968451Y-58910008D01*
X94976190Y-58910771D01*
X95101342Y-58910771D01*
X95169858Y-58945029D01*
X95200265Y-58975436D01*
X95234523Y-59043952D01*
X95234523Y-59246637D01*
X95200264Y-59315153D01*
X95169857Y-59345561D01*
X95101342Y-59379819D01*
X94851038Y-59379819D01*
X94782522Y-59345561D01*
X94743510Y-59306548D01*
X94732144Y-59297220D01*
X94705108Y-59286021D01*
X94675845Y-59286021D01*
X94648809Y-59297219D01*
X94628116Y-59317912D01*
X94616917Y-59344948D01*
X94616917Y-59374211D01*
X94628115Y-59401247D01*
X94637442Y-59412612D01*
X94685061Y-59460232D01*
X94690810Y-59464950D01*
X94692111Y-59466450D01*
X94694370Y-59467872D01*
X94696427Y-59469560D01*
X94698254Y-59470317D01*
X94704554Y-59474282D01*
X94799792Y-59521901D01*
X94813523Y-59527156D01*
X94816212Y-59527347D01*
X94818701Y-59528378D01*
X94833333Y-59529819D01*
X95119047Y-59529819D01*
X95133679Y-59528378D01*
X95136168Y-59527346D01*
X95138856Y-59527156D01*
X95152588Y-59521901D01*
X95247826Y-59474282D01*
X95254125Y-59470317D01*
X95255953Y-59469560D01*
X95258009Y-59467872D01*
X95260269Y-59466450D01*
X95261569Y-59464950D01*
X95267319Y-59460232D01*
X95314937Y-59412613D01*
X95319655Y-59406863D01*
X95321154Y-59405564D01*
X95322575Y-59403305D01*
X95324265Y-59401247D01*
X95325022Y-59399417D01*
X95328986Y-59393121D01*
X95376605Y-59297883D01*
X95381860Y-59284152D01*
X95382051Y-59281462D01*
X95383082Y-59278974D01*
X95384523Y-59264342D01*
X95384523Y-59026247D01*
X95383082Y-59011615D01*
X95382051Y-59009126D01*
X95381860Y-59006437D01*
X95376605Y-58992706D01*
X95328986Y-58897468D01*
X95325021Y-58891168D01*
X95324264Y-58889341D01*
X95322575Y-58887284D01*
X95321154Y-58885025D01*
X95319655Y-58883725D01*
X95314937Y-58877976D01*
X95267318Y-58830357D01*
X95261568Y-58825638D01*
X95260269Y-58824140D01*
X95258009Y-58822718D01*
X95255953Y-58821030D01*
X95254125Y-58820272D01*
X95247826Y-58816308D01*
X95152588Y-58768689D01*
X95139070Y-58763516D01*
X95365966Y-58504207D01*
X95370487Y-58497882D01*
X95371883Y-58496487D01*
X95372431Y-58495163D01*
X95374517Y-58492246D01*
X95378418Y-58480708D01*
X95383082Y-58469451D01*
X95383082Y-58466920D01*
X95383892Y-58464525D01*
X95383082Y-58452371D01*
X95383082Y-58440187D01*
X95382114Y-58437850D01*
X95381946Y-58435327D01*
X95376543Y-58424401D01*
X95371883Y-58413151D01*
X95370096Y-58411364D01*
X95368974Y-58409095D01*
X95359801Y-58401069D01*
X95351191Y-58392459D01*
X95348854Y-58391490D01*
X95346950Y-58389825D01*
X95335412Y-58385923D01*
X95324155Y-58381260D01*
X95320584Y-58380908D01*
X95319229Y-58380450D01*
X95317261Y-58380581D01*
X95309523Y-58379819D01*
X94690476Y-58379819D01*
X94675844Y-58381260D01*
X94648808Y-58392459D01*
X94628116Y-58413151D01*
X94616917Y-58440187D01*
X94383082Y-58440187D01*
X94371883Y-58413151D01*
X94351191Y-58392459D01*
X94324155Y-58381260D01*
X94294891Y-58381260D01*
X94267855Y-58392459D01*
X94247163Y-58413151D01*
X94235964Y-58440187D01*
X94234523Y-58454819D01*
X94234523Y-59246637D01*
X94200264Y-59315153D01*
X94169857Y-59345561D01*
X94101342Y-59379819D01*
X93946276Y-59379819D01*
X93877760Y-59345561D01*
X93847353Y-59315153D01*
X93813095Y-59246637D01*
X93813095Y-58454819D01*
X93811654Y-58440187D01*
X93800455Y-58413151D01*
X93779763Y-58392459D01*
X93752727Y-58381260D01*
X93723463Y-58381260D01*
X93696427Y-58392459D01*
X93675735Y-58413151D01*
X93664536Y-58440187D01*
X93663095Y-58454819D01*
X93551984Y-58454819D01*
X93551984Y-58268708D01*
X95495634Y-58268708D01*
X95495634Y-59640930D01*
G37*
X111384819Y-56491666D02*
X110908628Y-56824999D01*
X111384819Y-57063094D02*
X110384819Y-57063094D01*
X110384819Y-57063094D02*
X110384819Y-56682142D01*
X110384819Y-56682142D02*
X110432438Y-56586904D01*
X110432438Y-56586904D02*
X110480057Y-56539285D01*
X110480057Y-56539285D02*
X110575295Y-56491666D01*
X110575295Y-56491666D02*
X110718152Y-56491666D01*
X110718152Y-56491666D02*
X110813390Y-56539285D01*
X110813390Y-56539285D02*
X110861009Y-56586904D01*
X110861009Y-56586904D02*
X110908628Y-56682142D01*
X110908628Y-56682142D02*
X110908628Y-57063094D01*
X110384819Y-56158332D02*
X110384819Y-55491666D01*
X110384819Y-55491666D02*
X111384819Y-55920237D01*
X109884819Y-56341666D02*
X109408628Y-56674999D01*
X109884819Y-56913094D02*
X108884819Y-56913094D01*
X108884819Y-56913094D02*
X108884819Y-56532142D01*
X108884819Y-56532142D02*
X108932438Y-56436904D01*
X108932438Y-56436904D02*
X108980057Y-56389285D01*
X108980057Y-56389285D02*
X109075295Y-56341666D01*
X109075295Y-56341666D02*
X109218152Y-56341666D01*
X109218152Y-56341666D02*
X109313390Y-56389285D01*
X109313390Y-56389285D02*
X109361009Y-56436904D01*
X109361009Y-56436904D02*
X109408628Y-56532142D01*
X109408628Y-56532142D02*
X109408628Y-56913094D01*
X108884819Y-55484523D02*
X108884819Y-55674999D01*
X108884819Y-55674999D02*
X108932438Y-55770237D01*
X108932438Y-55770237D02*
X108980057Y-55817856D01*
X108980057Y-55817856D02*
X109122914Y-55913094D01*
X109122914Y-55913094D02*
X109313390Y-55960713D01*
X109313390Y-55960713D02*
X109694342Y-55960713D01*
X109694342Y-55960713D02*
X109789580Y-55913094D01*
X109789580Y-55913094D02*
X109837200Y-55865475D01*
X109837200Y-55865475D02*
X109884819Y-55770237D01*
X109884819Y-55770237D02*
X109884819Y-55579761D01*
X109884819Y-55579761D02*
X109837200Y-55484523D01*
X109837200Y-55484523D02*
X109789580Y-55436904D01*
X109789580Y-55436904D02*
X109694342Y-55389285D01*
X109694342Y-55389285D02*
X109456247Y-55389285D01*
X109456247Y-55389285D02*
X109361009Y-55436904D01*
X109361009Y-55436904D02*
X109313390Y-55484523D01*
X109313390Y-55484523D02*
X109265771Y-55579761D01*
X109265771Y-55579761D02*
X109265771Y-55770237D01*
X109265771Y-55770237D02*
X109313390Y-55865475D01*
X109313390Y-55865475D02*
X109361009Y-55913094D01*
X109361009Y-55913094D02*
X109456247Y-55960713D01*
X81388333Y-53359819D02*
X81055000Y-52883628D01*
X80816905Y-53359819D02*
X80816905Y-52359819D01*
X80816905Y-52359819D02*
X81197857Y-52359819D01*
X81197857Y-52359819D02*
X81293095Y-52407438D01*
X81293095Y-52407438D02*
X81340714Y-52455057D01*
X81340714Y-52455057D02*
X81388333Y-52550295D01*
X81388333Y-52550295D02*
X81388333Y-52693152D01*
X81388333Y-52693152D02*
X81340714Y-52788390D01*
X81340714Y-52788390D02*
X81293095Y-52836009D01*
X81293095Y-52836009D02*
X81197857Y-52883628D01*
X81197857Y-52883628D02*
X80816905Y-52883628D01*
X82293095Y-52359819D02*
X81816905Y-52359819D01*
X81816905Y-52359819D02*
X81769286Y-52836009D01*
X81769286Y-52836009D02*
X81816905Y-52788390D01*
X81816905Y-52788390D02*
X81912143Y-52740771D01*
X81912143Y-52740771D02*
X82150238Y-52740771D01*
X82150238Y-52740771D02*
X82245476Y-52788390D01*
X82245476Y-52788390D02*
X82293095Y-52836009D01*
X82293095Y-52836009D02*
X82340714Y-52931247D01*
X82340714Y-52931247D02*
X82340714Y-53169342D01*
X82340714Y-53169342D02*
X82293095Y-53264580D01*
X82293095Y-53264580D02*
X82245476Y-53312200D01*
X82245476Y-53312200D02*
X82150238Y-53359819D01*
X82150238Y-53359819D02*
X81912143Y-53359819D01*
X81912143Y-53359819D02*
X81816905Y-53312200D01*
X81816905Y-53312200D02*
X81769286Y-53264580D01*
X83409819Y-53363094D02*
X82409819Y-53363094D01*
X82409819Y-53363094D02*
X82409819Y-52982142D01*
X82409819Y-52982142D02*
X82457438Y-52886904D01*
X82457438Y-52886904D02*
X82505057Y-52839285D01*
X82505057Y-52839285D02*
X82600295Y-52791666D01*
X82600295Y-52791666D02*
X82743152Y-52791666D01*
X82743152Y-52791666D02*
X82838390Y-52839285D01*
X82838390Y-52839285D02*
X82886009Y-52886904D01*
X82886009Y-52886904D02*
X82933628Y-52982142D01*
X82933628Y-52982142D02*
X82933628Y-53363094D01*
X83409819Y-51839285D02*
X83409819Y-52410713D01*
X83409819Y-52124999D02*
X82409819Y-52124999D01*
X82409819Y-52124999D02*
X82552676Y-52220237D01*
X82552676Y-52220237D02*
X82647914Y-52315475D01*
X82647914Y-52315475D02*
X82695533Y-52410713D01*
X108833333Y-55645180D02*
X108833333Y-54930895D01*
X108833333Y-54930895D02*
X108880952Y-54788038D01*
X108880952Y-54788038D02*
X108976190Y-54692800D01*
X108976190Y-54692800D02*
X109119047Y-54645180D01*
X109119047Y-54645180D02*
X109214285Y-54645180D01*
X107833333Y-54645180D02*
X108404761Y-54645180D01*
X108119047Y-54645180D02*
X108119047Y-55645180D01*
X108119047Y-55645180D02*
X108214285Y-55502323D01*
X108214285Y-55502323D02*
X108309523Y-55407085D01*
X108309523Y-55407085D02*
X108404761Y-55359466D01*
X102208333Y-69414580D02*
X102160714Y-69462200D01*
X102160714Y-69462200D02*
X102017857Y-69509819D01*
X102017857Y-69509819D02*
X101922619Y-69509819D01*
X101922619Y-69509819D02*
X101779762Y-69462200D01*
X101779762Y-69462200D02*
X101684524Y-69366961D01*
X101684524Y-69366961D02*
X101636905Y-69271723D01*
X101636905Y-69271723D02*
X101589286Y-69081247D01*
X101589286Y-69081247D02*
X101589286Y-68938390D01*
X101589286Y-68938390D02*
X101636905Y-68747914D01*
X101636905Y-68747914D02*
X101684524Y-68652676D01*
X101684524Y-68652676D02*
X101779762Y-68557438D01*
X101779762Y-68557438D02*
X101922619Y-68509819D01*
X101922619Y-68509819D02*
X102017857Y-68509819D01*
X102017857Y-68509819D02*
X102160714Y-68557438D01*
X102160714Y-68557438D02*
X102208333Y-68605057D01*
X103065476Y-68509819D02*
X102875000Y-68509819D01*
X102875000Y-68509819D02*
X102779762Y-68557438D01*
X102779762Y-68557438D02*
X102732143Y-68605057D01*
X102732143Y-68605057D02*
X102636905Y-68747914D01*
X102636905Y-68747914D02*
X102589286Y-68938390D01*
X102589286Y-68938390D02*
X102589286Y-69319342D01*
X102589286Y-69319342D02*
X102636905Y-69414580D01*
X102636905Y-69414580D02*
X102684524Y-69462200D01*
X102684524Y-69462200D02*
X102779762Y-69509819D01*
X102779762Y-69509819D02*
X102970238Y-69509819D01*
X102970238Y-69509819D02*
X103065476Y-69462200D01*
X103065476Y-69462200D02*
X103113095Y-69414580D01*
X103113095Y-69414580D02*
X103160714Y-69319342D01*
X103160714Y-69319342D02*
X103160714Y-69081247D01*
X103160714Y-69081247D02*
X103113095Y-68986009D01*
X103113095Y-68986009D02*
X103065476Y-68938390D01*
X103065476Y-68938390D02*
X102970238Y-68890771D01*
X102970238Y-68890771D02*
X102779762Y-68890771D01*
X102779762Y-68890771D02*
X102684524Y-68938390D01*
X102684524Y-68938390D02*
X102636905Y-68986009D01*
X102636905Y-68986009D02*
X102589286Y-69081247D01*
X61761905Y-72954819D02*
X61761905Y-71954819D01*
X61761905Y-71954819D02*
X62142857Y-71954819D01*
X62142857Y-71954819D02*
X62238095Y-72002438D01*
X62238095Y-72002438D02*
X62285714Y-72050057D01*
X62285714Y-72050057D02*
X62333333Y-72145295D01*
X62333333Y-72145295D02*
X62333333Y-72288152D01*
X62333333Y-72288152D02*
X62285714Y-72383390D01*
X62285714Y-72383390D02*
X62238095Y-72431009D01*
X62238095Y-72431009D02*
X62142857Y-72478628D01*
X62142857Y-72478628D02*
X61761905Y-72478628D01*
X62761905Y-72954819D02*
X62761905Y-71954819D01*
X62761905Y-71954819D02*
X63000000Y-71954819D01*
X63000000Y-71954819D02*
X63142857Y-72002438D01*
X63142857Y-72002438D02*
X63238095Y-72097676D01*
X63238095Y-72097676D02*
X63285714Y-72192914D01*
X63285714Y-72192914D02*
X63333333Y-72383390D01*
X63333333Y-72383390D02*
X63333333Y-72526247D01*
X63333333Y-72526247D02*
X63285714Y-72716723D01*
X63285714Y-72716723D02*
X63238095Y-72811961D01*
X63238095Y-72811961D02*
X63142857Y-72907200D01*
X63142857Y-72907200D02*
X63000000Y-72954819D01*
X63000000Y-72954819D02*
X62761905Y-72954819D01*
X64190476Y-72288152D02*
X64190476Y-72954819D01*
X63952381Y-71907200D02*
X63714286Y-72621485D01*
X63714286Y-72621485D02*
X64333333Y-72621485D01*
X96761905Y-66884819D02*
X96761905Y-65884819D01*
X96761905Y-65884819D02*
X97000000Y-65884819D01*
X97000000Y-65884819D02*
X97142857Y-65932438D01*
X97142857Y-65932438D02*
X97238095Y-66027676D01*
X97238095Y-66027676D02*
X97285714Y-66122914D01*
X97285714Y-66122914D02*
X97333333Y-66313390D01*
X97333333Y-66313390D02*
X97333333Y-66456247D01*
X97333333Y-66456247D02*
X97285714Y-66646723D01*
X97285714Y-66646723D02*
X97238095Y-66741961D01*
X97238095Y-66741961D02*
X97142857Y-66837200D01*
X97142857Y-66837200D02*
X97000000Y-66884819D01*
X97000000Y-66884819D02*
X96761905Y-66884819D01*
X98285714Y-66884819D02*
X97714286Y-66884819D01*
X98000000Y-66884819D02*
X98000000Y-65884819D01*
X98000000Y-65884819D02*
X97904762Y-66027676D01*
X97904762Y-66027676D02*
X97809524Y-66122914D01*
X97809524Y-66122914D02*
X97714286Y-66170533D01*
X79523809Y-80428628D02*
X79523809Y-80904819D01*
X79190476Y-79904819D02*
X79523809Y-80428628D01*
X79523809Y-80428628D02*
X79857142Y-79904819D01*
X80714285Y-80904819D02*
X80142857Y-80904819D01*
X80428571Y-80904819D02*
X80428571Y-79904819D01*
X80428571Y-79904819D02*
X80333333Y-80047676D01*
X80333333Y-80047676D02*
X80238095Y-80142914D01*
X80238095Y-80142914D02*
X80142857Y-80190533D01*
G36*
X108102343Y-82567990D02*
G01*
X108176456Y-82642103D01*
X108214949Y-82719090D01*
X108258333Y-82892624D01*
X108258333Y-83017013D01*
X108214949Y-83190547D01*
X108176455Y-83267534D01*
X108102343Y-83341647D01*
X107987830Y-83379819D01*
X107836905Y-83379819D01*
X107836905Y-82529819D01*
X107987830Y-82529819D01*
X108102343Y-82567990D01*
G37*
G36*
X108519444Y-83640930D02*
G01*
X105480556Y-83640930D01*
X105480556Y-82883390D01*
X105591667Y-82883390D01*
X105591667Y-83026247D01*
X105591918Y-83028800D01*
X105591756Y-83029893D01*
X105592565Y-83035366D01*
X105593108Y-83040879D01*
X105593530Y-83041900D01*
X105593906Y-83044437D01*
X105641525Y-83234913D01*
X105641910Y-83235992D01*
X105641949Y-83236532D01*
X105644276Y-83242613D01*
X105646472Y-83248759D01*
X105646794Y-83249194D01*
X105647204Y-83250264D01*
X105694823Y-83345502D01*
X105698786Y-83351798D01*
X105699544Y-83353628D01*
X105701233Y-83355686D01*
X105702655Y-83357945D01*
X105704153Y-83359244D01*
X105708872Y-83364994D01*
X105804110Y-83460233D01*
X105815475Y-83469561D01*
X105817965Y-83470592D01*
X105820000Y-83472357D01*
X105833426Y-83478351D01*
X105976282Y-83525970D01*
X105983537Y-83527619D01*
X105985368Y-83528378D01*
X105988021Y-83528639D01*
X105990619Y-83529230D01*
X105992593Y-83529089D01*
X106000000Y-83529819D01*
X106095238Y-83529819D01*
X106102643Y-83529089D01*
X106104618Y-83529230D01*
X106107215Y-83528639D01*
X106109870Y-83528378D01*
X106111701Y-83527619D01*
X106118955Y-83525970D01*
X106261812Y-83478351D01*
X106275237Y-83472357D01*
X106277272Y-83470591D01*
X106279763Y-83469560D01*
X106291129Y-83460232D01*
X106338747Y-83412613D01*
X106348075Y-83401247D01*
X106355356Y-83383668D01*
X106359273Y-83374212D01*
X106360714Y-83359580D01*
X106360714Y-83026247D01*
X106359273Y-83011615D01*
X106348074Y-82984579D01*
X106327382Y-82963887D01*
X106300346Y-82952688D01*
X106285714Y-82951247D01*
X106095238Y-82951247D01*
X106080606Y-82952688D01*
X106053570Y-82963887D01*
X106032878Y-82984579D01*
X106021679Y-83011615D01*
X106021679Y-83040879D01*
X106032878Y-83067915D01*
X106053570Y-83088607D01*
X106080606Y-83099806D01*
X106095238Y-83101247D01*
X106210714Y-83101247D01*
X106210714Y-83328514D01*
X106197581Y-83341647D01*
X106083068Y-83379819D01*
X106012170Y-83379819D01*
X105897657Y-83341648D01*
X105823544Y-83267534D01*
X105785050Y-83190547D01*
X105741667Y-83017013D01*
X105741667Y-82892624D01*
X105785050Y-82719090D01*
X105823544Y-82642103D01*
X105897657Y-82567990D01*
X106012170Y-82529819D01*
X106125152Y-82529819D01*
X106204554Y-82569520D01*
X106218285Y-82574775D01*
X106247475Y-82576849D01*
X106275237Y-82567595D01*
X106297344Y-82548422D01*
X106310432Y-82522247D01*
X106312506Y-82493057D01*
X106303252Y-82465296D01*
X106294166Y-82454819D01*
X106639286Y-82454819D01*
X106639286Y-83454819D01*
X106640727Y-83469451D01*
X106651926Y-83496487D01*
X106672618Y-83517179D01*
X106699654Y-83528378D01*
X106728918Y-83528378D01*
X106755954Y-83517179D01*
X106776646Y-83496487D01*
X106787845Y-83469451D01*
X106789286Y-83454819D01*
X106789286Y-82737235D01*
X107220596Y-83492030D01*
X107222785Y-83495114D01*
X107223354Y-83496487D01*
X107224751Y-83497884D01*
X107229106Y-83504019D01*
X107236994Y-83510127D01*
X107244046Y-83517179D01*
X107248464Y-83519009D01*
X107252244Y-83521936D01*
X107261865Y-83524560D01*
X107271082Y-83528378D01*
X107275863Y-83528378D01*
X107280475Y-83529636D01*
X107290372Y-83528378D01*
X107300346Y-83528378D01*
X107304761Y-83526548D01*
X107309505Y-83525946D01*
X107318169Y-83520995D01*
X107327382Y-83517179D01*
X107330760Y-83513800D01*
X107334914Y-83511427D01*
X107341023Y-83503537D01*
X107348074Y-83496487D01*
X107349903Y-83492070D01*
X107352831Y-83488290D01*
X107355455Y-83478666D01*
X107359273Y-83469451D01*
X107360009Y-83461968D01*
X107360531Y-83460058D01*
X107360343Y-83458582D01*
X107360714Y-83454819D01*
X107360714Y-82454819D01*
X107686905Y-82454819D01*
X107686905Y-83454819D01*
X107688346Y-83469451D01*
X107699545Y-83496487D01*
X107720237Y-83517179D01*
X107747273Y-83528378D01*
X107761905Y-83529819D01*
X108000000Y-83529819D01*
X108007405Y-83529089D01*
X108009380Y-83529230D01*
X108011977Y-83528639D01*
X108014632Y-83528378D01*
X108016463Y-83527619D01*
X108023717Y-83525970D01*
X108166574Y-83478351D01*
X108179999Y-83472357D01*
X108182034Y-83470591D01*
X108184525Y-83469560D01*
X108195890Y-83460233D01*
X108291129Y-83364993D01*
X108295846Y-83359244D01*
X108297345Y-83357945D01*
X108298766Y-83355686D01*
X108300456Y-83353628D01*
X108301213Y-83351798D01*
X108305177Y-83345502D01*
X108352796Y-83250264D01*
X108353205Y-83249194D01*
X108353528Y-83248759D01*
X108355720Y-83242622D01*
X108358051Y-83236533D01*
X108358089Y-83235992D01*
X108358475Y-83234913D01*
X108406094Y-83044437D01*
X108406469Y-83041900D01*
X108406892Y-83040879D01*
X108407434Y-83035366D01*
X108408244Y-83029893D01*
X108408081Y-83028800D01*
X108408333Y-83026247D01*
X108408333Y-82883390D01*
X108408081Y-82880836D01*
X108408244Y-82879744D01*
X108407434Y-82874270D01*
X108406892Y-82868758D01*
X108406469Y-82867736D01*
X108406094Y-82865200D01*
X108358475Y-82674724D01*
X108358089Y-82673644D01*
X108358051Y-82673104D01*
X108355720Y-82667014D01*
X108353528Y-82660878D01*
X108353205Y-82660442D01*
X108352796Y-82659373D01*
X108305177Y-82564135D01*
X108301214Y-82557840D01*
X108300456Y-82556008D01*
X108298764Y-82553946D01*
X108297345Y-82551692D01*
X108295848Y-82550393D01*
X108291128Y-82544643D01*
X108195890Y-82449405D01*
X108184525Y-82440078D01*
X108182034Y-82439046D01*
X108179999Y-82437281D01*
X108166574Y-82431287D01*
X108023717Y-82383668D01*
X108016463Y-82382018D01*
X108014632Y-82381260D01*
X108011977Y-82380998D01*
X108009380Y-82380408D01*
X108007405Y-82380548D01*
X108000000Y-82379819D01*
X107761905Y-82379819D01*
X107747273Y-82381260D01*
X107720237Y-82392459D01*
X107699545Y-82413151D01*
X107688346Y-82440187D01*
X107686905Y-82454819D01*
X107360714Y-82454819D01*
X107359273Y-82440187D01*
X107348074Y-82413151D01*
X107327382Y-82392459D01*
X107300346Y-82381260D01*
X107271082Y-82381260D01*
X107244046Y-82392459D01*
X107223354Y-82413151D01*
X107212155Y-82440187D01*
X107210714Y-82454819D01*
X107210714Y-83172402D01*
X106779404Y-82417609D01*
X106777215Y-82414525D01*
X106776646Y-82413151D01*
X106775246Y-82411751D01*
X106770894Y-82405619D01*
X106763004Y-82399509D01*
X106755954Y-82392459D01*
X106751537Y-82390629D01*
X106747757Y-82387702D01*
X106738133Y-82385077D01*
X106728918Y-82381260D01*
X106724137Y-82381260D01*
X106719525Y-82380002D01*
X106709628Y-82381260D01*
X106699654Y-82381260D01*
X106695238Y-82383089D01*
X106690495Y-82383692D01*
X106681830Y-82388642D01*
X106672618Y-82392459D01*
X106669239Y-82395837D01*
X106665086Y-82398211D01*
X106658976Y-82406100D01*
X106651926Y-82413151D01*
X106650096Y-82417567D01*
X106647169Y-82421348D01*
X106644544Y-82430971D01*
X106640727Y-82440187D01*
X106639990Y-82447669D01*
X106639469Y-82449580D01*
X106639656Y-82451055D01*
X106639286Y-82454819D01*
X106294166Y-82454819D01*
X106284079Y-82443188D01*
X106271636Y-82435356D01*
X106176398Y-82387737D01*
X106162666Y-82382482D01*
X106159978Y-82382291D01*
X106157489Y-82381260D01*
X106142857Y-82379819D01*
X106000000Y-82379819D01*
X105992593Y-82380548D01*
X105990619Y-82380408D01*
X105988021Y-82380998D01*
X105985368Y-82381260D01*
X105983537Y-82382018D01*
X105976282Y-82383668D01*
X105833426Y-82431287D01*
X105820000Y-82437281D01*
X105817965Y-82439045D01*
X105815475Y-82440077D01*
X105804110Y-82449405D01*
X105708872Y-82544643D01*
X105704153Y-82550392D01*
X105702655Y-82551692D01*
X105701233Y-82553951D01*
X105699545Y-82556008D01*
X105698787Y-82557835D01*
X105694823Y-82564135D01*
X105647204Y-82659373D01*
X105646794Y-82660442D01*
X105646472Y-82660878D01*
X105644276Y-82667023D01*
X105641949Y-82673105D01*
X105641910Y-82673644D01*
X105641525Y-82674724D01*
X105593906Y-82865200D01*
X105593530Y-82867736D01*
X105593108Y-82868758D01*
X105592565Y-82874270D01*
X105591756Y-82879744D01*
X105591918Y-82880836D01*
X105591667Y-82883390D01*
X105480556Y-82883390D01*
X105480556Y-82268708D01*
X108519444Y-82268708D01*
X108519444Y-83640930D01*
G37*
X61761905Y-63454819D02*
X61761905Y-62454819D01*
X61761905Y-62454819D02*
X62142857Y-62454819D01*
X62142857Y-62454819D02*
X62238095Y-62502438D01*
X62238095Y-62502438D02*
X62285714Y-62550057D01*
X62285714Y-62550057D02*
X62333333Y-62645295D01*
X62333333Y-62645295D02*
X62333333Y-62788152D01*
X62333333Y-62788152D02*
X62285714Y-62883390D01*
X62285714Y-62883390D02*
X62238095Y-62931009D01*
X62238095Y-62931009D02*
X62142857Y-62978628D01*
X62142857Y-62978628D02*
X61761905Y-62978628D01*
X62761905Y-63454819D02*
X62761905Y-62454819D01*
X62761905Y-62454819D02*
X63000000Y-62454819D01*
X63000000Y-62454819D02*
X63142857Y-62502438D01*
X63142857Y-62502438D02*
X63238095Y-62597676D01*
X63238095Y-62597676D02*
X63285714Y-62692914D01*
X63285714Y-62692914D02*
X63333333Y-62883390D01*
X63333333Y-62883390D02*
X63333333Y-63026247D01*
X63333333Y-63026247D02*
X63285714Y-63216723D01*
X63285714Y-63216723D02*
X63238095Y-63311961D01*
X63238095Y-63311961D02*
X63142857Y-63407200D01*
X63142857Y-63407200D02*
X63000000Y-63454819D01*
X63000000Y-63454819D02*
X62761905Y-63454819D01*
X63666667Y-62454819D02*
X64285714Y-62454819D01*
X64285714Y-62454819D02*
X63952381Y-62835771D01*
X63952381Y-62835771D02*
X64095238Y-62835771D01*
X64095238Y-62835771D02*
X64190476Y-62883390D01*
X64190476Y-62883390D02*
X64238095Y-62931009D01*
X64238095Y-62931009D02*
X64285714Y-63026247D01*
X64285714Y-63026247D02*
X64285714Y-63264342D01*
X64285714Y-63264342D02*
X64238095Y-63359580D01*
X64238095Y-63359580D02*
X64190476Y-63407200D01*
X64190476Y-63407200D02*
X64095238Y-63454819D01*
X64095238Y-63454819D02*
X63809524Y-63454819D01*
X63809524Y-63454819D02*
X63714286Y-63407200D01*
X63714286Y-63407200D02*
X63666667Y-63359580D01*
X86833333Y-78359580D02*
X86785714Y-78407200D01*
X86785714Y-78407200D02*
X86642857Y-78454819D01*
X86642857Y-78454819D02*
X86547619Y-78454819D01*
X86547619Y-78454819D02*
X86404762Y-78407200D01*
X86404762Y-78407200D02*
X86309524Y-78311961D01*
X86309524Y-78311961D02*
X86261905Y-78216723D01*
X86261905Y-78216723D02*
X86214286Y-78026247D01*
X86214286Y-78026247D02*
X86214286Y-77883390D01*
X86214286Y-77883390D02*
X86261905Y-77692914D01*
X86261905Y-77692914D02*
X86309524Y-77597676D01*
X86309524Y-77597676D02*
X86404762Y-77502438D01*
X86404762Y-77502438D02*
X86547619Y-77454819D01*
X86547619Y-77454819D02*
X86642857Y-77454819D01*
X86642857Y-77454819D02*
X86785714Y-77502438D01*
X86785714Y-77502438D02*
X86833333Y-77550057D01*
X87690476Y-77788152D02*
X87690476Y-78454819D01*
X87452381Y-77407200D02*
X87214286Y-78121485D01*
X87214286Y-78121485D02*
X87833333Y-78121485D01*
X82384819Y-62166666D02*
X81908628Y-62499999D01*
X82384819Y-62738094D02*
X81384819Y-62738094D01*
X81384819Y-62738094D02*
X81384819Y-62357142D01*
X81384819Y-62357142D02*
X81432438Y-62261904D01*
X81432438Y-62261904D02*
X81480057Y-62214285D01*
X81480057Y-62214285D02*
X81575295Y-62166666D01*
X81575295Y-62166666D02*
X81718152Y-62166666D01*
X81718152Y-62166666D02*
X81813390Y-62214285D01*
X81813390Y-62214285D02*
X81861009Y-62261904D01*
X81861009Y-62261904D02*
X81908628Y-62357142D01*
X81908628Y-62357142D02*
X81908628Y-62738094D01*
X81384819Y-61833332D02*
X81384819Y-61214285D01*
X81384819Y-61214285D02*
X81765771Y-61547618D01*
X81765771Y-61547618D02*
X81765771Y-61404761D01*
X81765771Y-61404761D02*
X81813390Y-61309523D01*
X81813390Y-61309523D02*
X81861009Y-61261904D01*
X81861009Y-61261904D02*
X81956247Y-61214285D01*
X81956247Y-61214285D02*
X82194342Y-61214285D01*
X82194342Y-61214285D02*
X82289580Y-61261904D01*
X82289580Y-61261904D02*
X82337200Y-61309523D01*
X82337200Y-61309523D02*
X82384819Y-61404761D01*
X82384819Y-61404761D02*
X82384819Y-61690475D01*
X82384819Y-61690475D02*
X82337200Y-61785713D01*
X82337200Y-61785713D02*
X82289580Y-61833332D01*
X71384819Y-65666666D02*
X70908628Y-65999999D01*
X71384819Y-66238094D02*
X70384819Y-66238094D01*
X70384819Y-66238094D02*
X70384819Y-65857142D01*
X70384819Y-65857142D02*
X70432438Y-65761904D01*
X70432438Y-65761904D02*
X70480057Y-65714285D01*
X70480057Y-65714285D02*
X70575295Y-65666666D01*
X70575295Y-65666666D02*
X70718152Y-65666666D01*
X70718152Y-65666666D02*
X70813390Y-65714285D01*
X70813390Y-65714285D02*
X70861009Y-65761904D01*
X70861009Y-65761904D02*
X70908628Y-65857142D01*
X70908628Y-65857142D02*
X70908628Y-66238094D01*
X71384819Y-64714285D02*
X71384819Y-65285713D01*
X71384819Y-64999999D02*
X70384819Y-64999999D01*
X70384819Y-64999999D02*
X70527676Y-65095237D01*
X70527676Y-65095237D02*
X70622914Y-65190475D01*
X70622914Y-65190475D02*
X70670533Y-65285713D01*
X93295833Y-66884819D02*
X92962500Y-66408628D01*
X92724405Y-66884819D02*
X92724405Y-65884819D01*
X92724405Y-65884819D02*
X93105357Y-65884819D01*
X93105357Y-65884819D02*
X93200595Y-65932438D01*
X93200595Y-65932438D02*
X93248214Y-65980057D01*
X93248214Y-65980057D02*
X93295833Y-66075295D01*
X93295833Y-66075295D02*
X93295833Y-66218152D01*
X93295833Y-66218152D02*
X93248214Y-66313390D01*
X93248214Y-66313390D02*
X93200595Y-66361009D01*
X93200595Y-66361009D02*
X93105357Y-66408628D01*
X93105357Y-66408628D02*
X92724405Y-66408628D01*
X94152976Y-66218152D02*
X94152976Y-66884819D01*
X93914881Y-65837200D02*
X93676786Y-66551485D01*
X93676786Y-66551485D02*
X94295833Y-66551485D01*
G36*
X73220764Y-48971672D02*
G01*
X73249285Y-49028714D01*
X73249285Y-49044762D01*
X72923095Y-49109999D01*
X72923095Y-49028714D01*
X72951615Y-48971672D01*
X73008657Y-48943152D01*
X73163723Y-48943152D01*
X73220764Y-48971672D01*
G37*
G36*
X74106428Y-49440847D02*
G01*
X74068485Y-49459819D01*
X73865800Y-49459819D01*
X73808758Y-49431298D01*
X73780238Y-49374256D01*
X73780238Y-49314428D01*
X73808758Y-49257386D01*
X73865800Y-49228866D01*
X74086190Y-49228866D01*
X74100822Y-49227425D01*
X74103311Y-49226393D01*
X74105999Y-49226203D01*
X74106428Y-49226038D01*
X74106428Y-49440847D01*
G37*
G36*
X75011190Y-48962123D02*
G01*
X75011190Y-49440847D01*
X74973247Y-49459819D01*
X74818181Y-49459819D01*
X74749665Y-49425561D01*
X74719258Y-49395153D01*
X74685000Y-49326637D01*
X74685000Y-49076333D01*
X74719258Y-49007817D01*
X74749665Y-48977410D01*
X74818181Y-48943152D01*
X74973247Y-48943152D01*
X75011190Y-48962123D01*
G37*
G36*
X75887431Y-48971672D02*
G01*
X75915952Y-49028714D01*
X75915952Y-49044762D01*
X75589762Y-49109999D01*
X75589762Y-49028714D01*
X75618282Y-48971672D01*
X75675324Y-48943152D01*
X75830390Y-48943152D01*
X75887431Y-48971672D01*
G37*
G36*
X70517953Y-48644077D02*
G01*
X70548360Y-48674484D01*
X70582618Y-48743000D01*
X70582618Y-48850447D01*
X70548360Y-48918963D01*
X70517953Y-48949370D01*
X70449437Y-48983628D01*
X70161190Y-48983628D01*
X70161190Y-48609819D01*
X70449437Y-48609819D01*
X70517953Y-48644077D01*
G37*
G36*
X76889908Y-49720930D02*
G01*
X68471508Y-49720930D01*
X68471508Y-48534819D01*
X68582619Y-48534819D01*
X68582619Y-49534819D01*
X68584060Y-49549451D01*
X68595259Y-49576487D01*
X68615951Y-49597179D01*
X68642987Y-49608378D01*
X68672251Y-49608378D01*
X68699287Y-49597179D01*
X68719979Y-49576487D01*
X68731178Y-49549451D01*
X68732619Y-49534819D01*
X68732619Y-48725295D01*
X69011190Y-48725295D01*
X69011190Y-48820533D01*
X69012631Y-48835165D01*
X69013662Y-48837654D01*
X69013853Y-48840342D01*
X69019108Y-48854074D01*
X69066727Y-48949312D01*
X69070691Y-48955611D01*
X69071449Y-48957439D01*
X69073137Y-48959495D01*
X69074559Y-48961755D01*
X69076057Y-48963054D01*
X69080776Y-48968804D01*
X69128395Y-49016423D01*
X69134144Y-49021141D01*
X69135444Y-49022640D01*
X69137703Y-49024061D01*
X69139760Y-49025750D01*
X69141587Y-49026507D01*
X69147887Y-49030472D01*
X69243125Y-49078091D01*
X69244194Y-49078500D01*
X69244630Y-49078823D01*
X69250766Y-49081015D01*
X69256856Y-49083346D01*
X69257396Y-49083384D01*
X69258476Y-49083770D01*
X69440966Y-49129392D01*
X69517953Y-49167886D01*
X69548360Y-49198293D01*
X69582618Y-49266809D01*
X69582618Y-49326637D01*
X69548359Y-49395153D01*
X69517952Y-49425561D01*
X69449437Y-49459819D01*
X69241217Y-49459819D01*
X69109907Y-49416049D01*
X69095570Y-49412789D01*
X69066380Y-49414864D01*
X69040207Y-49427950D01*
X69021033Y-49450057D01*
X69011779Y-49477820D01*
X69013854Y-49507010D01*
X69026940Y-49533183D01*
X69049047Y-49552357D01*
X69062473Y-49558351D01*
X69205329Y-49605970D01*
X69212584Y-49607619D01*
X69214415Y-49608378D01*
X69217068Y-49608639D01*
X69219666Y-49609230D01*
X69221640Y-49609089D01*
X69229047Y-49609819D01*
X69467142Y-49609819D01*
X69481774Y-49608378D01*
X69484263Y-49607346D01*
X69486951Y-49607156D01*
X69500683Y-49601901D01*
X69595921Y-49554282D01*
X69602220Y-49550317D01*
X69604048Y-49549560D01*
X69606104Y-49547872D01*
X69608364Y-49546450D01*
X69609664Y-49544950D01*
X69615414Y-49540232D01*
X69663032Y-49492613D01*
X69667750Y-49486863D01*
X69669249Y-49485564D01*
X69670670Y-49483305D01*
X69672360Y-49481247D01*
X69673117Y-49479417D01*
X69677081Y-49473121D01*
X69724700Y-49377883D01*
X69729955Y-49364152D01*
X69730146Y-49361462D01*
X69731177Y-49358974D01*
X69732618Y-49344342D01*
X69732618Y-49249104D01*
X69731177Y-49234472D01*
X69730146Y-49231983D01*
X69729955Y-49229294D01*
X69724700Y-49215563D01*
X69677081Y-49120325D01*
X69673116Y-49114025D01*
X69672359Y-49112198D01*
X69670670Y-49110141D01*
X69669249Y-49107882D01*
X69667750Y-49106582D01*
X69663032Y-49100833D01*
X69615413Y-49053214D01*
X69609663Y-49048495D01*
X69608364Y-49046997D01*
X69606104Y-49045575D01*
X69604048Y-49043887D01*
X69602220Y-49043129D01*
X69595921Y-49039165D01*
X69500683Y-48991546D01*
X69499613Y-48991136D01*
X69499178Y-48990814D01*
X69493032Y-48988618D01*
X69486951Y-48986291D01*
X69486411Y-48986252D01*
X69485332Y-48985867D01*
X69302842Y-48940244D01*
X69225855Y-48901751D01*
X69195448Y-48871344D01*
X69161190Y-48802828D01*
X69161190Y-48743000D01*
X69195448Y-48674484D01*
X69225855Y-48644077D01*
X69294371Y-48609819D01*
X69502591Y-48609819D01*
X69633900Y-48653589D01*
X69648237Y-48656849D01*
X69677427Y-48654774D01*
X69703601Y-48641688D01*
X69722775Y-48619580D01*
X69732029Y-48591818D01*
X69729954Y-48562628D01*
X69716867Y-48536455D01*
X69714981Y-48534819D01*
X70011190Y-48534819D01*
X70011190Y-49534819D01*
X70012631Y-49549451D01*
X70023830Y-49576487D01*
X70044522Y-49597179D01*
X70071558Y-49608378D01*
X70100822Y-49608378D01*
X70127858Y-49597179D01*
X70148550Y-49576487D01*
X70159749Y-49549451D01*
X70161190Y-49534819D01*
X70161190Y-49133628D01*
X70467142Y-49133628D01*
X70481774Y-49132187D01*
X70484263Y-49131155D01*
X70486951Y-49130965D01*
X70500683Y-49125710D01*
X70595921Y-49078091D01*
X70602220Y-49074126D01*
X70604048Y-49073369D01*
X70606104Y-49071680D01*
X70608364Y-49070259D01*
X70609663Y-49068760D01*
X70615413Y-49064042D01*
X70663032Y-49016423D01*
X70667750Y-49010673D01*
X70669249Y-49009374D01*
X70670670Y-49007114D01*
X70672359Y-49005058D01*
X70673116Y-49003230D01*
X70677081Y-48996931D01*
X70724700Y-48901693D01*
X70729955Y-48887962D01*
X70730146Y-48885272D01*
X70731177Y-48882784D01*
X70732618Y-48868152D01*
X70732618Y-48725295D01*
X70731177Y-48710663D01*
X70730146Y-48708174D01*
X70729955Y-48705485D01*
X70724700Y-48691754D01*
X70677081Y-48596516D01*
X70673116Y-48590216D01*
X70672359Y-48588389D01*
X70670670Y-48586332D01*
X70669249Y-48584073D01*
X70667750Y-48582773D01*
X70663032Y-48577024D01*
X70620827Y-48534819D01*
X71773095Y-48534819D01*
X71773095Y-49534819D01*
X71774536Y-49549451D01*
X71785735Y-49576487D01*
X71806427Y-49597179D01*
X71833463Y-49608378D01*
X71862727Y-49608378D01*
X71889763Y-49597179D01*
X71910455Y-49576487D01*
X71921654Y-49549451D01*
X71923095Y-49534819D01*
X71923095Y-49086009D01*
X72344523Y-49086009D01*
X72344523Y-49534819D01*
X72345964Y-49549451D01*
X72357163Y-49576487D01*
X72377855Y-49597179D01*
X72404891Y-49608378D01*
X72434155Y-49608378D01*
X72461191Y-49597179D01*
X72481883Y-49576487D01*
X72493082Y-49549451D01*
X72494523Y-49534819D01*
X72494523Y-49011009D01*
X72773095Y-49011009D01*
X72773095Y-49391961D01*
X72774536Y-49406593D01*
X72775567Y-49409082D01*
X72775758Y-49411770D01*
X72781013Y-49425502D01*
X72828632Y-49520741D01*
X72830172Y-49523187D01*
X72830557Y-49524342D01*
X72831803Y-49525779D01*
X72836464Y-49533183D01*
X72843566Y-49539342D01*
X72849730Y-49546450D01*
X72857135Y-49551111D01*
X72858572Y-49552357D01*
X72859725Y-49552741D01*
X72862173Y-49554282D01*
X72957411Y-49601901D01*
X72971142Y-49607156D01*
X72973831Y-49607347D01*
X72976320Y-49608378D01*
X72990952Y-49609819D01*
X73181428Y-49609819D01*
X73196060Y-49608378D01*
X73198549Y-49607346D01*
X73201237Y-49607156D01*
X73214969Y-49601901D01*
X73310207Y-49554282D01*
X73322650Y-49546450D01*
X73341823Y-49524342D01*
X73351077Y-49496581D01*
X73349003Y-49467391D01*
X73335915Y-49441216D01*
X73313808Y-49422043D01*
X73286046Y-49412789D01*
X73256856Y-49414863D01*
X73243125Y-49420118D01*
X73163723Y-49459819D01*
X73008657Y-49459819D01*
X72951615Y-49431298D01*
X72923095Y-49374256D01*
X72923095Y-49296723D01*
X73630238Y-49296723D01*
X73630238Y-49391961D01*
X73631679Y-49406593D01*
X73632710Y-49409082D01*
X73632901Y-49411770D01*
X73638156Y-49425502D01*
X73685775Y-49520741D01*
X73687315Y-49523187D01*
X73687700Y-49524342D01*
X73688946Y-49525779D01*
X73693607Y-49533183D01*
X73700709Y-49539342D01*
X73706873Y-49546450D01*
X73714278Y-49551111D01*
X73715715Y-49552357D01*
X73716868Y-49552741D01*
X73719316Y-49554282D01*
X73814554Y-49601901D01*
X73828285Y-49607156D01*
X73830974Y-49607347D01*
X73833463Y-49608378D01*
X73848095Y-49609819D01*
X74086190Y-49609819D01*
X74100822Y-49608378D01*
X74103311Y-49607346D01*
X74105999Y-49607156D01*
X74119731Y-49601901D01*
X74136231Y-49593650D01*
X74139760Y-49597179D01*
X74166796Y-49608378D01*
X74196060Y-49608378D01*
X74223096Y-49597179D01*
X74243788Y-49576487D01*
X74254987Y-49549451D01*
X74256428Y-49534819D01*
X74256428Y-49058628D01*
X74535000Y-49058628D01*
X74535000Y-49344342D01*
X74536441Y-49358974D01*
X74537472Y-49361463D01*
X74537663Y-49364151D01*
X74542918Y-49377883D01*
X74590537Y-49473121D01*
X74594500Y-49479417D01*
X74595258Y-49481247D01*
X74596947Y-49483305D01*
X74598369Y-49485564D01*
X74599867Y-49486863D01*
X74604585Y-49492612D01*
X74652204Y-49540232D01*
X74657953Y-49544950D01*
X74659254Y-49546450D01*
X74661513Y-49547872D01*
X74663570Y-49549560D01*
X74665397Y-49550317D01*
X74671697Y-49554282D01*
X74766935Y-49601901D01*
X74780666Y-49607156D01*
X74783355Y-49607347D01*
X74785844Y-49608378D01*
X74800476Y-49609819D01*
X74990952Y-49609819D01*
X75005584Y-49608378D01*
X75008073Y-49607346D01*
X75010761Y-49607156D01*
X75024493Y-49601901D01*
X75040993Y-49593650D01*
X75044522Y-49597179D01*
X75071558Y-49608378D01*
X75100822Y-49608378D01*
X75127858Y-49597179D01*
X75148550Y-49576487D01*
X75159749Y-49549451D01*
X75161190Y-49534819D01*
X75161190Y-49011009D01*
X75439762Y-49011009D01*
X75439762Y-49391961D01*
X75441203Y-49406593D01*
X75442234Y-49409082D01*
X75442425Y-49411770D01*
X75447680Y-49425502D01*
X75495299Y-49520741D01*
X75496839Y-49523187D01*
X75497224Y-49524342D01*
X75498470Y-49525779D01*
X75503131Y-49533183D01*
X75510233Y-49539342D01*
X75516397Y-49546450D01*
X75523802Y-49551111D01*
X75525239Y-49552357D01*
X75526392Y-49552741D01*
X75528840Y-49554282D01*
X75624078Y-49601901D01*
X75637809Y-49607156D01*
X75640498Y-49607347D01*
X75642987Y-49608378D01*
X75657619Y-49609819D01*
X75848095Y-49609819D01*
X75862727Y-49608378D01*
X75865216Y-49607346D01*
X75867904Y-49607156D01*
X75881636Y-49601901D01*
X75976874Y-49554282D01*
X75989317Y-49546450D01*
X76008490Y-49524342D01*
X76017744Y-49496581D01*
X76015670Y-49467391D01*
X76002582Y-49441216D01*
X75980475Y-49422043D01*
X75952713Y-49412789D01*
X75923523Y-49414863D01*
X75909792Y-49420118D01*
X75830390Y-49459819D01*
X75675324Y-49459819D01*
X75618282Y-49431298D01*
X75589762Y-49374256D01*
X75589762Y-49262970D01*
X76005660Y-49179791D01*
X76019726Y-49175508D01*
X76025831Y-49171419D01*
X76032620Y-49168607D01*
X76037872Y-49163354D01*
X76044040Y-49159224D01*
X76048114Y-49153113D01*
X76053312Y-49147915D01*
X76056155Y-49141051D01*
X76060272Y-49134876D01*
X76061697Y-49127670D01*
X76064511Y-49120879D01*
X76065952Y-49106247D01*
X76065952Y-49011009D01*
X76064511Y-48996377D01*
X76063480Y-48993888D01*
X76063289Y-48991199D01*
X76058034Y-48977468D01*
X76010415Y-48882230D01*
X76008874Y-48879782D01*
X76008490Y-48878629D01*
X76007244Y-48877192D01*
X76002583Y-48869787D01*
X76000698Y-48868152D01*
X76344524Y-48868152D01*
X76344524Y-49534819D01*
X76345965Y-49549451D01*
X76357164Y-49576487D01*
X76377856Y-49597179D01*
X76404892Y-49608378D01*
X76434156Y-49608378D01*
X76461192Y-49597179D01*
X76481884Y-49576487D01*
X76493083Y-49549451D01*
X76494524Y-49534819D01*
X76494524Y-49076333D01*
X76528782Y-49007817D01*
X76559189Y-48977410D01*
X76627705Y-48943152D01*
X76705238Y-48943152D01*
X76719870Y-48941711D01*
X76746906Y-48930512D01*
X76767598Y-48909820D01*
X76778797Y-48882784D01*
X76778797Y-48853520D01*
X76767598Y-48826484D01*
X76746906Y-48805792D01*
X76719870Y-48794593D01*
X76705238Y-48793152D01*
X76610000Y-48793152D01*
X76595368Y-48794593D01*
X76592879Y-48795623D01*
X76590190Y-48795815D01*
X76576459Y-48801070D01*
X76489389Y-48844604D01*
X76481884Y-48826484D01*
X76461192Y-48805792D01*
X76434156Y-48794593D01*
X76404892Y-48794593D01*
X76377856Y-48805792D01*
X76357164Y-48826484D01*
X76345965Y-48853520D01*
X76344524Y-48868152D01*
X76000698Y-48868152D01*
X75995478Y-48863625D01*
X75989317Y-48856521D01*
X75981911Y-48851859D01*
X75980475Y-48850614D01*
X75979321Y-48850229D01*
X75976874Y-48848689D01*
X75881636Y-48801070D01*
X75867904Y-48795815D01*
X75865216Y-48795624D01*
X75862727Y-48794593D01*
X75848095Y-48793152D01*
X75657619Y-48793152D01*
X75642987Y-48794593D01*
X75640498Y-48795623D01*
X75637809Y-48795815D01*
X75624078Y-48801070D01*
X75528840Y-48848689D01*
X75526392Y-48850229D01*
X75525239Y-48850614D01*
X75523802Y-48851859D01*
X75516397Y-48856521D01*
X75510235Y-48863625D01*
X75503131Y-48869787D01*
X75498469Y-48877192D01*
X75497224Y-48878629D01*
X75496839Y-48879782D01*
X75495299Y-48882230D01*
X75447680Y-48977468D01*
X75442425Y-48991200D01*
X75442234Y-48993887D01*
X75441203Y-48996377D01*
X75439762Y-49011009D01*
X75161190Y-49011009D01*
X75161190Y-48534819D01*
X75159749Y-48520187D01*
X75148550Y-48493151D01*
X75127858Y-48472459D01*
X75100822Y-48461260D01*
X75071558Y-48461260D01*
X75044522Y-48472459D01*
X75023830Y-48493151D01*
X75012631Y-48520187D01*
X75011190Y-48534819D01*
X75011190Y-48795979D01*
X75010761Y-48795815D01*
X75008073Y-48795624D01*
X75005584Y-48794593D01*
X74990952Y-48793152D01*
X74800476Y-48793152D01*
X74785844Y-48794593D01*
X74783355Y-48795623D01*
X74780666Y-48795815D01*
X74766935Y-48801070D01*
X74671697Y-48848689D01*
X74665397Y-48852653D01*
X74663570Y-48853411D01*
X74661513Y-48855099D01*
X74659254Y-48856521D01*
X74657954Y-48858019D01*
X74652205Y-48862738D01*
X74604586Y-48910357D01*
X74599867Y-48916106D01*
X74598369Y-48917406D01*
X74596947Y-48919665D01*
X74595259Y-48921722D01*
X74594501Y-48923549D01*
X74590537Y-48929849D01*
X74542918Y-49025087D01*
X74537663Y-49038819D01*
X74537472Y-49041506D01*
X74536441Y-49043996D01*
X74535000Y-49058628D01*
X74256428Y-49058628D01*
X74256428Y-49011009D01*
X74254987Y-48996377D01*
X74253956Y-48993888D01*
X74253765Y-48991199D01*
X74248510Y-48977468D01*
X74200891Y-48882230D01*
X74199350Y-48879782D01*
X74198966Y-48878629D01*
X74197720Y-48877192D01*
X74193059Y-48869787D01*
X74185954Y-48863625D01*
X74179793Y-48856521D01*
X74172387Y-48851859D01*
X74170951Y-48850614D01*
X74169797Y-48850229D01*
X74167350Y-48848689D01*
X74072112Y-48801070D01*
X74058380Y-48795815D01*
X74055692Y-48795624D01*
X74053203Y-48794593D01*
X74038571Y-48793152D01*
X73848095Y-48793152D01*
X73833463Y-48794593D01*
X73830974Y-48795623D01*
X73828285Y-48795815D01*
X73814554Y-48801070D01*
X73719316Y-48848689D01*
X73706873Y-48856521D01*
X73687700Y-48878629D01*
X73678446Y-48906390D01*
X73680520Y-48935580D01*
X73693607Y-48961755D01*
X73715715Y-48980928D01*
X73743476Y-48990182D01*
X73772666Y-48988108D01*
X73786398Y-48982853D01*
X73865800Y-48943152D01*
X74020866Y-48943152D01*
X74077907Y-48971672D01*
X74106428Y-49028714D01*
X74106428Y-49059894D01*
X74068485Y-49078866D01*
X73848095Y-49078866D01*
X73833463Y-49080307D01*
X73830974Y-49081337D01*
X73828285Y-49081529D01*
X73814554Y-49086784D01*
X73719316Y-49134403D01*
X73716868Y-49135943D01*
X73715715Y-49136328D01*
X73714278Y-49137573D01*
X73706873Y-49142235D01*
X73700711Y-49149339D01*
X73693607Y-49155501D01*
X73688945Y-49162906D01*
X73687700Y-49164343D01*
X73687315Y-49165496D01*
X73685775Y-49167944D01*
X73638156Y-49263182D01*
X73632901Y-49276914D01*
X73632710Y-49279601D01*
X73631679Y-49282091D01*
X73630238Y-49296723D01*
X72923095Y-49296723D01*
X72923095Y-49262970D01*
X73338993Y-49179791D01*
X73353059Y-49175508D01*
X73359164Y-49171419D01*
X73365953Y-49168607D01*
X73371205Y-49163354D01*
X73377373Y-49159224D01*
X73381447Y-49153113D01*
X73386645Y-49147915D01*
X73389488Y-49141051D01*
X73393605Y-49134876D01*
X73395030Y-49127670D01*
X73397844Y-49120879D01*
X73399285Y-49106247D01*
X73399285Y-49011009D01*
X73397844Y-48996377D01*
X73396813Y-48993888D01*
X73396622Y-48991199D01*
X73391367Y-48977468D01*
X73343748Y-48882230D01*
X73342207Y-48879782D01*
X73341823Y-48878629D01*
X73340577Y-48877192D01*
X73335916Y-48869787D01*
X73328811Y-48863625D01*
X73322650Y-48856521D01*
X73315244Y-48851859D01*
X73313808Y-48850614D01*
X73312654Y-48850229D01*
X73310207Y-48848689D01*
X73214969Y-48801070D01*
X73201237Y-48795815D01*
X73198549Y-48795624D01*
X73196060Y-48794593D01*
X73181428Y-48793152D01*
X72990952Y-48793152D01*
X72976320Y-48794593D01*
X72973831Y-48795623D01*
X72971142Y-48795815D01*
X72957411Y-48801070D01*
X72862173Y-48848689D01*
X72859725Y-48850229D01*
X72858572Y-48850614D01*
X72857135Y-48851859D01*
X72849730Y-48856521D01*
X72843568Y-48863625D01*
X72836464Y-48869787D01*
X72831802Y-48877192D01*
X72830557Y-48878629D01*
X72830172Y-48879782D01*
X72828632Y-48882230D01*
X72781013Y-48977468D01*
X72775758Y-48991200D01*
X72775567Y-48993887D01*
X72774536Y-48996377D01*
X72773095Y-49011009D01*
X72494523Y-49011009D01*
X72494523Y-48534819D01*
X72493082Y-48520187D01*
X72481883Y-48493151D01*
X72461191Y-48472459D01*
X72434155Y-48461260D01*
X72404891Y-48461260D01*
X72377855Y-48472459D01*
X72357163Y-48493151D01*
X72345964Y-48520187D01*
X72344523Y-48534819D01*
X72344523Y-48936009D01*
X71923095Y-48936009D01*
X71923095Y-48534819D01*
X71921654Y-48520187D01*
X71910455Y-48493151D01*
X71889763Y-48472459D01*
X71862727Y-48461260D01*
X71833463Y-48461260D01*
X71806427Y-48472459D01*
X71785735Y-48493151D01*
X71774536Y-48520187D01*
X71773095Y-48534819D01*
X70620827Y-48534819D01*
X70615413Y-48529405D01*
X70609663Y-48524686D01*
X70608364Y-48523188D01*
X70606104Y-48521766D01*
X70604048Y-48520078D01*
X70602220Y-48519320D01*
X70595921Y-48515356D01*
X70500683Y-48467737D01*
X70486951Y-48462482D01*
X70484263Y-48462291D01*
X70481774Y-48461260D01*
X70467142Y-48459819D01*
X70086190Y-48459819D01*
X70071558Y-48461260D01*
X70044522Y-48472459D01*
X70023830Y-48493151D01*
X70012631Y-48520187D01*
X70011190Y-48534819D01*
X69714981Y-48534819D01*
X69694760Y-48517281D01*
X69681335Y-48511287D01*
X69538478Y-48463668D01*
X69531224Y-48462018D01*
X69529393Y-48461260D01*
X69526738Y-48460998D01*
X69524141Y-48460408D01*
X69522166Y-48460548D01*
X69514761Y-48459819D01*
X69276666Y-48459819D01*
X69262034Y-48461260D01*
X69259545Y-48462290D01*
X69256856Y-48462482D01*
X69243125Y-48467737D01*
X69147887Y-48515356D01*
X69141587Y-48519320D01*
X69139760Y-48520078D01*
X69137703Y-48521766D01*
X69135444Y-48523188D01*
X69134144Y-48524686D01*
X69128395Y-48529405D01*
X69080776Y-48577024D01*
X69076057Y-48582773D01*
X69074559Y-48584073D01*
X69073137Y-48586332D01*
X69071449Y-48588389D01*
X69070691Y-48590216D01*
X69066727Y-48596516D01*
X69019108Y-48691754D01*
X69013853Y-48705486D01*
X69013662Y-48708173D01*
X69012631Y-48710663D01*
X69011190Y-48725295D01*
X68732619Y-48725295D01*
X68732619Y-48534819D01*
X68731178Y-48520187D01*
X68719979Y-48493151D01*
X68699287Y-48472459D01*
X68672251Y-48461260D01*
X68642987Y-48461260D01*
X68615951Y-48472459D01*
X68595259Y-48493151D01*
X68584060Y-48520187D01*
X68582619Y-48534819D01*
X68471508Y-48534819D01*
X68471508Y-48348708D01*
X76889908Y-48348708D01*
X76889908Y-49720930D01*
G37*
X80738095Y-63442319D02*
X80738095Y-64251842D01*
X80738095Y-64251842D02*
X80785714Y-64347080D01*
X80785714Y-64347080D02*
X80833333Y-64394700D01*
X80833333Y-64394700D02*
X80928571Y-64442319D01*
X80928571Y-64442319D02*
X81119047Y-64442319D01*
X81119047Y-64442319D02*
X81214285Y-64394700D01*
X81214285Y-64394700D02*
X81261904Y-64347080D01*
X81261904Y-64347080D02*
X81309523Y-64251842D01*
X81309523Y-64251842D02*
X81309523Y-63442319D01*
X81738095Y-63537557D02*
X81785714Y-63489938D01*
X81785714Y-63489938D02*
X81880952Y-63442319D01*
X81880952Y-63442319D02*
X82119047Y-63442319D01*
X82119047Y-63442319D02*
X82214285Y-63489938D01*
X82214285Y-63489938D02*
X82261904Y-63537557D01*
X82261904Y-63537557D02*
X82309523Y-63632795D01*
X82309523Y-63632795D02*
X82309523Y-63728033D01*
X82309523Y-63728033D02*
X82261904Y-63870890D01*
X82261904Y-63870890D02*
X81690476Y-64442319D01*
X81690476Y-64442319D02*
X82309523Y-64442319D01*
X87429580Y-70666666D02*
X87477200Y-70714285D01*
X87477200Y-70714285D02*
X87524819Y-70857142D01*
X87524819Y-70857142D02*
X87524819Y-70952380D01*
X87524819Y-70952380D02*
X87477200Y-71095237D01*
X87477200Y-71095237D02*
X87381961Y-71190475D01*
X87381961Y-71190475D02*
X87286723Y-71238094D01*
X87286723Y-71238094D02*
X87096247Y-71285713D01*
X87096247Y-71285713D02*
X86953390Y-71285713D01*
X86953390Y-71285713D02*
X86762914Y-71238094D01*
X86762914Y-71238094D02*
X86667676Y-71190475D01*
X86667676Y-71190475D02*
X86572438Y-71095237D01*
X86572438Y-71095237D02*
X86524819Y-70952380D01*
X86524819Y-70952380D02*
X86524819Y-70857142D01*
X86524819Y-70857142D02*
X86572438Y-70714285D01*
X86572438Y-70714285D02*
X86620057Y-70666666D01*
X87524819Y-69714285D02*
X87524819Y-70285713D01*
X87524819Y-69999999D02*
X86524819Y-69999999D01*
X86524819Y-69999999D02*
X86667676Y-70095237D01*
X86667676Y-70095237D02*
X86762914Y-70190475D01*
X86762914Y-70190475D02*
X86810533Y-70285713D01*
X86559819Y-62166666D02*
X86083628Y-62499999D01*
X86559819Y-62738094D02*
X85559819Y-62738094D01*
X85559819Y-62738094D02*
X85559819Y-62357142D01*
X85559819Y-62357142D02*
X85607438Y-62261904D01*
X85607438Y-62261904D02*
X85655057Y-62214285D01*
X85655057Y-62214285D02*
X85750295Y-62166666D01*
X85750295Y-62166666D02*
X85893152Y-62166666D01*
X85893152Y-62166666D02*
X85988390Y-62214285D01*
X85988390Y-62214285D02*
X86036009Y-62261904D01*
X86036009Y-62261904D02*
X86083628Y-62357142D01*
X86083628Y-62357142D02*
X86083628Y-62738094D01*
X85655057Y-61785713D02*
X85607438Y-61738094D01*
X85607438Y-61738094D02*
X85559819Y-61642856D01*
X85559819Y-61642856D02*
X85559819Y-61404761D01*
X85559819Y-61404761D02*
X85607438Y-61309523D01*
X85607438Y-61309523D02*
X85655057Y-61261904D01*
X85655057Y-61261904D02*
X85750295Y-61214285D01*
X85750295Y-61214285D02*
X85845533Y-61214285D01*
X85845533Y-61214285D02*
X85988390Y-61261904D01*
X85988390Y-61261904D02*
X86559819Y-61833332D01*
X86559819Y-61833332D02*
X86559819Y-61214285D01*
X75333333Y-75409580D02*
X75285714Y-75457200D01*
X75285714Y-75457200D02*
X75142857Y-75504819D01*
X75142857Y-75504819D02*
X75047619Y-75504819D01*
X75047619Y-75504819D02*
X74904762Y-75457200D01*
X74904762Y-75457200D02*
X74809524Y-75361961D01*
X74809524Y-75361961D02*
X74761905Y-75266723D01*
X74761905Y-75266723D02*
X74714286Y-75076247D01*
X74714286Y-75076247D02*
X74714286Y-74933390D01*
X74714286Y-74933390D02*
X74761905Y-74742914D01*
X74761905Y-74742914D02*
X74809524Y-74647676D01*
X74809524Y-74647676D02*
X74904762Y-74552438D01*
X74904762Y-74552438D02*
X75047619Y-74504819D01*
X75047619Y-74504819D02*
X75142857Y-74504819D01*
X75142857Y-74504819D02*
X75285714Y-74552438D01*
X75285714Y-74552438D02*
X75333333Y-74600057D01*
X75666667Y-74504819D02*
X76285714Y-74504819D01*
X76285714Y-74504819D02*
X75952381Y-74885771D01*
X75952381Y-74885771D02*
X76095238Y-74885771D01*
X76095238Y-74885771D02*
X76190476Y-74933390D01*
X76190476Y-74933390D02*
X76238095Y-74981009D01*
X76238095Y-74981009D02*
X76285714Y-75076247D01*
X76285714Y-75076247D02*
X76285714Y-75314342D01*
X76285714Y-75314342D02*
X76238095Y-75409580D01*
X76238095Y-75409580D02*
X76190476Y-75457200D01*
X76190476Y-75457200D02*
X76095238Y-75504819D01*
X76095238Y-75504819D02*
X75809524Y-75504819D01*
X75809524Y-75504819D02*
X75714286Y-75457200D01*
X75714286Y-75457200D02*
X75666667Y-75409580D01*
X71929580Y-70666666D02*
X71977200Y-70714285D01*
X71977200Y-70714285D02*
X72024819Y-70857142D01*
X72024819Y-70857142D02*
X72024819Y-70952380D01*
X72024819Y-70952380D02*
X71977200Y-71095237D01*
X71977200Y-71095237D02*
X71881961Y-71190475D01*
X71881961Y-71190475D02*
X71786723Y-71238094D01*
X71786723Y-71238094D02*
X71596247Y-71285713D01*
X71596247Y-71285713D02*
X71453390Y-71285713D01*
X71453390Y-71285713D02*
X71262914Y-71238094D01*
X71262914Y-71238094D02*
X71167676Y-71190475D01*
X71167676Y-71190475D02*
X71072438Y-71095237D01*
X71072438Y-71095237D02*
X71024819Y-70952380D01*
X71024819Y-70952380D02*
X71024819Y-70857142D01*
X71024819Y-70857142D02*
X71072438Y-70714285D01*
X71072438Y-70714285D02*
X71120057Y-70666666D01*
X71120057Y-70285713D02*
X71072438Y-70238094D01*
X71072438Y-70238094D02*
X71024819Y-70142856D01*
X71024819Y-70142856D02*
X71024819Y-69904761D01*
X71024819Y-69904761D02*
X71072438Y-69809523D01*
X71072438Y-69809523D02*
X71120057Y-69761904D01*
X71120057Y-69761904D02*
X71215295Y-69714285D01*
X71215295Y-69714285D02*
X71310533Y-69714285D01*
X71310533Y-69714285D02*
X71453390Y-69761904D01*
X71453390Y-69761904D02*
X72024819Y-70333332D01*
X72024819Y-70333332D02*
X72024819Y-69714285D01*
X64421667Y-74007200D02*
X64564524Y-74054819D01*
X64564524Y-74054819D02*
X64802619Y-74054819D01*
X64802619Y-74054819D02*
X64897857Y-74007200D01*
X64897857Y-74007200D02*
X64945476Y-73959580D01*
X64945476Y-73959580D02*
X64993095Y-73864342D01*
X64993095Y-73864342D02*
X64993095Y-73769104D01*
X64993095Y-73769104D02*
X64945476Y-73673866D01*
X64945476Y-73673866D02*
X64897857Y-73626247D01*
X64897857Y-73626247D02*
X64802619Y-73578628D01*
X64802619Y-73578628D02*
X64612143Y-73531009D01*
X64612143Y-73531009D02*
X64516905Y-73483390D01*
X64516905Y-73483390D02*
X64469286Y-73435771D01*
X64469286Y-73435771D02*
X64421667Y-73340533D01*
X64421667Y-73340533D02*
X64421667Y-73245295D01*
X64421667Y-73245295D02*
X64469286Y-73150057D01*
X64469286Y-73150057D02*
X64516905Y-73102438D01*
X64516905Y-73102438D02*
X64612143Y-73054819D01*
X64612143Y-73054819D02*
X64850238Y-73054819D01*
X64850238Y-73054819D02*
X64993095Y-73102438D01*
X65326429Y-73054819D02*
X65564524Y-74054819D01*
X65564524Y-74054819D02*
X65755000Y-73340533D01*
X65755000Y-73340533D02*
X65945476Y-74054819D01*
X65945476Y-74054819D02*
X66183572Y-73054819D01*
X67088333Y-74054819D02*
X66516905Y-74054819D01*
X66802619Y-74054819D02*
X66802619Y-73054819D01*
X66802619Y-73054819D02*
X66707381Y-73197676D01*
X66707381Y-73197676D02*
X66612143Y-73292914D01*
X66612143Y-73292914D02*
X66516905Y-73340533D01*
X61761905Y-57954819D02*
X61761905Y-56954819D01*
X61761905Y-56954819D02*
X62142857Y-56954819D01*
X62142857Y-56954819D02*
X62238095Y-57002438D01*
X62238095Y-57002438D02*
X62285714Y-57050057D01*
X62285714Y-57050057D02*
X62333333Y-57145295D01*
X62333333Y-57145295D02*
X62333333Y-57288152D01*
X62333333Y-57288152D02*
X62285714Y-57383390D01*
X62285714Y-57383390D02*
X62238095Y-57431009D01*
X62238095Y-57431009D02*
X62142857Y-57478628D01*
X62142857Y-57478628D02*
X61761905Y-57478628D01*
X62761905Y-57954819D02*
X62761905Y-56954819D01*
X62761905Y-56954819D02*
X63000000Y-56954819D01*
X63000000Y-56954819D02*
X63142857Y-57002438D01*
X63142857Y-57002438D02*
X63238095Y-57097676D01*
X63238095Y-57097676D02*
X63285714Y-57192914D01*
X63285714Y-57192914D02*
X63333333Y-57383390D01*
X63333333Y-57383390D02*
X63333333Y-57526247D01*
X63333333Y-57526247D02*
X63285714Y-57716723D01*
X63285714Y-57716723D02*
X63238095Y-57811961D01*
X63238095Y-57811961D02*
X63142857Y-57907200D01*
X63142857Y-57907200D02*
X63000000Y-57954819D01*
X63000000Y-57954819D02*
X62761905Y-57954819D01*
X63714286Y-57050057D02*
X63761905Y-57002438D01*
X63761905Y-57002438D02*
X63857143Y-56954819D01*
X63857143Y-56954819D02*
X64095238Y-56954819D01*
X64095238Y-56954819D02*
X64190476Y-57002438D01*
X64190476Y-57002438D02*
X64238095Y-57050057D01*
X64238095Y-57050057D02*
X64285714Y-57145295D01*
X64285714Y-57145295D02*
X64285714Y-57240533D01*
X64285714Y-57240533D02*
X64238095Y-57383390D01*
X64238095Y-57383390D02*
X63666667Y-57954819D01*
X63666667Y-57954819D02*
X64285714Y-57954819D01*
D12*
%TO.C,C9*%
X105359420Y-71500000D02*
X105640580Y-71500000D01*
X105359420Y-72520000D02*
X105640580Y-72520000D01*
%TO.C,C8*%
X105359420Y-68990000D02*
X105640580Y-68990000D01*
X105359420Y-70010000D02*
X105640580Y-70010000D01*
%TO.C,U4*%
X100850000Y-75410000D02*
X97090000Y-75410000D01*
X100850000Y-68590000D02*
X97090000Y-68590000D01*
X97090000Y-75410000D02*
X97090000Y-74150000D01*
X97090000Y-68590000D02*
X97090000Y-69850000D01*
X102370000Y-75640000D02*
X101890000Y-75640000D01*
X102130000Y-75310000D01*
X102370000Y-75640000D01*
G36*
X102370000Y-75640000D02*
G01*
X101890000Y-75640000D01*
X102130000Y-75310000D01*
X102370000Y-75640000D01*
G37*
%TO.C,U1*%
X91175000Y-70675000D02*
X90815000Y-70675000D01*
X91175000Y-70315000D01*
X91175000Y-70675000D01*
G36*
X91175000Y-70675000D02*
G01*
X90815000Y-70675000D01*
X91175000Y-70315000D01*
X91175000Y-70675000D01*
G37*
D13*
X93875000Y-73375000D02*
X93875000Y-73225000D01*
X93875000Y-73375000D02*
X93725000Y-73375000D01*
X93875000Y-70675000D02*
X93875000Y-70825000D01*
X93725000Y-70675000D02*
X93875000Y-70675000D01*
X91175000Y-73385000D02*
X91325000Y-73385000D01*
X91175000Y-73375000D02*
X91175000Y-73225000D01*
D12*
%TO.C,C5*%
X92084420Y-75010000D02*
X92365580Y-75010000D01*
X92084420Y-73990000D02*
X92365580Y-73990000D01*
%TO.C,C7*%
X89545000Y-50834420D02*
X89545000Y-51115580D01*
X90565000Y-50834420D02*
X90565000Y-51115580D01*
%TO.C,U3*%
X91800000Y-47995000D02*
X91560000Y-47665000D01*
X92040000Y-47665000D01*
X91800000Y-47995000D01*
G36*
X91800000Y-47995000D02*
G01*
X91560000Y-47665000D01*
X92040000Y-47665000D01*
X91800000Y-47995000D01*
G37*
X94500000Y-58060000D02*
X96450000Y-58060000D01*
X94500000Y-58060000D02*
X92550000Y-58060000D01*
X94500000Y-47940000D02*
X96450000Y-47940000D01*
X94500000Y-47940000D02*
X92550000Y-47940000D01*
%TO.C,R7*%
X110022500Y-56087742D02*
X110022500Y-56562258D01*
X108977500Y-56087742D02*
X108977500Y-56562258D01*
%TO.C,R6*%
X108522500Y-55937742D02*
X108522500Y-56412258D01*
X107477500Y-55937742D02*
X107477500Y-56412258D01*
%TO.C,R5*%
X81792258Y-51997500D02*
X81317742Y-51997500D01*
X81792258Y-50952500D02*
X81317742Y-50952500D01*
%TO.C,P1*%
X86955000Y-56150000D02*
G75*
G02*
X86598045Y-56866725I-1400000J250000D01*
G01*
X86580000Y-49175000D02*
G75*
G02*
X86944880Y-49886402I-1025000J-975000D01*
G01*
X84530000Y-56875000D02*
G75*
G02*
X84165121Y-56163598I1024991J974993D01*
G01*
X84155000Y-49900000D02*
G75*
G02*
X84511955Y-49183275I1399998J-249999D01*
G01*
X83815000Y-49900000D02*
X84155000Y-49900000D01*
%TO.C,J1*%
X113170000Y-50250000D02*
X113170000Y-51950000D01*
X103830000Y-50250000D02*
X103830000Y-51950000D01*
%TO.C,C6*%
X102515580Y-68135000D02*
X102234420Y-68135000D01*
X102515580Y-67115000D02*
X102234420Y-67115000D01*
%TO.C,PD4*%
X64750000Y-69650000D02*
G75*
G02*
X61250000Y-69650000I-1750000J0D01*
G01*
X61250000Y-69650000D02*
G75*
G02*
X64750000Y-69650000I1750000J0D01*
G01*
%TO.C,D1*%
X96700000Y-65735000D02*
X98985000Y-65735000D01*
X98985000Y-64265000D02*
X96700000Y-64265000D01*
X98985000Y-65735000D02*
X98985000Y-64265000D01*
%TO.C,Y1*%
X82060000Y-76290000D02*
X77940000Y-76290000D01*
X82060000Y-79710000D02*
X82060000Y-76290000D01*
%TO.C,GND*%
X108750000Y-80000000D02*
G75*
G02*
X105250000Y-80000000I-1750000J0D01*
G01*
X105250000Y-80000000D02*
G75*
G02*
X108750000Y-80000000I1750000J0D01*
G01*
%TO.C,PD3*%
X64750000Y-65250000D02*
G75*
G02*
X61250000Y-65250000I-1750000J0D01*
G01*
X61250000Y-65250000D02*
G75*
G02*
X64750000Y-65250000I1750000J0D01*
G01*
%TO.C,C4*%
X83859420Y-76990000D02*
X84140580Y-76990000D01*
X83859420Y-78010000D02*
X84140580Y-78010000D01*
%TO.C,R3*%
X79977500Y-61762742D02*
X79977500Y-62237258D01*
X81022500Y-61762742D02*
X81022500Y-62237258D01*
%TO.C,R1*%
X68977500Y-65262742D02*
X68977500Y-65737258D01*
X70022500Y-65262742D02*
X70022500Y-65737258D01*
%TO.C,R4*%
X93699758Y-64477500D02*
X93225242Y-64477500D01*
X93699758Y-65522500D02*
X93225242Y-65522500D01*
%TO.C,ISP Header*%
X69960000Y-50080000D02*
X71340000Y-50080000D01*
X69960000Y-51460000D02*
X69960000Y-50080000D01*
X69960000Y-52730000D02*
X69960000Y-57920000D01*
X69960000Y-52730000D02*
X72610000Y-52730000D01*
X69960000Y-57920000D02*
X75260000Y-57920000D01*
X72610000Y-50080000D02*
X75260000Y-50080000D01*
X72610000Y-52730000D02*
X72610000Y-50080000D01*
X75260000Y-50080000D02*
X75260000Y-57920000D01*
%TO.C,U2*%
X77890000Y-66227500D02*
X78165000Y-66227500D01*
X77890000Y-66502500D02*
X77890000Y-66227500D01*
X77890000Y-73447500D02*
X77890000Y-73172500D01*
X78165000Y-73447500D02*
X77890000Y-73447500D01*
X84835000Y-66227500D02*
X85110000Y-66227500D01*
X85110000Y-66227500D02*
X85110000Y-66502500D01*
X85110000Y-73172500D02*
X85110000Y-73447500D01*
X85110000Y-73447500D02*
X84835000Y-73447500D01*
X77250000Y-66497500D02*
X76910000Y-66027500D01*
X77590000Y-66027500D01*
X77250000Y-66497500D01*
G36*
X77250000Y-66497500D02*
G01*
X76910000Y-66027500D01*
X77590000Y-66027500D01*
X77250000Y-66497500D01*
G37*
%TO.C,C1*%
X87990000Y-70640580D02*
X87990000Y-70359420D01*
X89010000Y-70640580D02*
X89010000Y-70359420D01*
%TO.C,R2*%
X84152500Y-61762742D02*
X84152500Y-62237258D01*
X85197500Y-61762742D02*
X85197500Y-62237258D01*
%TO.C,C3*%
X75359420Y-76990000D02*
X75640580Y-76990000D01*
X75359420Y-78010000D02*
X75640580Y-78010000D01*
%TO.C,C2*%
X72490000Y-70640580D02*
X72490000Y-70359420D01*
X73510000Y-70640580D02*
X73510000Y-70359420D01*
%TO.C,SW1*%
X61945000Y-74410000D02*
X61945000Y-74710000D01*
X61945000Y-74410000D02*
X69565000Y-74410000D01*
X61945000Y-76650000D02*
X61945000Y-79790000D01*
X61945000Y-81730000D02*
X61945000Y-82030000D01*
X69565000Y-74410000D02*
X69565000Y-74710000D01*
X69565000Y-76650000D02*
X69565000Y-79790000D01*
X69565000Y-81730000D02*
X69565000Y-82030000D01*
X69565000Y-82030000D02*
X61945000Y-82030000D01*
X68295000Y-78220000D02*
G75*
G02*
X63215000Y-78220000I-2540000J0D01*
G01*
X63215000Y-78220000D02*
G75*
G02*
X68295000Y-78220000I2540000J0D01*
G01*
%TO.C,PD2*%
X64750000Y-60200000D02*
G75*
G02*
X61250000Y-60200000I-1750000J0D01*
G01*
X61250000Y-60200000D02*
G75*
G02*
X64750000Y-60200000I1750000J0D01*
G01*
%TD*%
M02*
