%TF.GenerationSoftware,KiCad,Pcbnew,9.0.4*%
%TF.CreationDate,2026-05-12T14:01:29-04:00*%
%TF.ProjectId,ECET 230 - Design Option 3 - Panchal,45434554-2032-4333-9020-2d2044657369,rev?*%
%TF.SameCoordinates,Original*%
%TF.FileFunction,Paste,Top*%
%TF.FilePolarity,Positive*%
%FSLAX46Y46*%
G04 Gerber Fmt 4.6, Leading zero omitted, Abs format (unit mm)*
G04 Created by KiCad (PCBNEW 9.0.4) date 2026-05-12 14:01:29*
%MOMM*%
%LPD*%
G01*
G04 APERTURE LIST*
G04 Aperture macros list*
%AMRoundRect*
0 Rectangle with rounded corners*
0 $1 Rounding radius*
0 $2 $3 $4 $5 $6 $7 $8 $9 X,Y pos of 4 corners*
0 Add a 4 corners polygon primitive as box body*
4,1,4,$2,$3,$4,$5,$6,$7,$8,$9,$2,$3,0*
0 Add four circle primitives for the rounded corners*
1,1,$1+$1,$2,$3*
1,1,$1+$1,$4,$5*
1,1,$1+$1,$6,$7*
1,1,$1+$1,$8,$9*
0 Add four rect primitives between the rounded corners*
20,1,$1+$1,$2,$3,$4,$5,0*
20,1,$1+$1,$4,$5,$6,$7,0*
20,1,$1+$1,$6,$7,$8,$9,0*
20,1,$1+$1,$8,$9,$2,$3,0*%
G04 Aperture macros list end*
%ADD10RoundRect,0.225000X-0.225000X-0.250000X0.225000X-0.250000X0.225000X0.250000X-0.225000X0.250000X0*%
%ADD11RoundRect,0.375000X0.625000X0.375000X-0.625000X0.375000X-0.625000X-0.375000X0.625000X-0.375000X0*%
%ADD12RoundRect,0.500000X0.500000X1.400000X-0.500000X1.400000X-0.500000X-1.400000X0.500000X-1.400000X0*%
%ADD13R,0.350000X0.500000*%
%ADD14RoundRect,0.225000X-0.250000X0.225000X-0.250000X-0.225000X0.250000X-0.225000X0.250000X0.225000X0*%
%ADD15RoundRect,0.150000X-0.825000X-0.150000X0.825000X-0.150000X0.825000X0.150000X-0.825000X0.150000X0*%
%ADD16RoundRect,0.200000X-0.275000X0.200000X-0.275000X-0.200000X0.275000X-0.200000X0.275000X0.200000X0*%
%ADD17RoundRect,0.200000X0.200000X0.275000X-0.200000X0.275000X-0.200000X-0.275000X0.200000X-0.275000X0*%
%ADD18RoundRect,0.162500X0.637500X-0.162500X0.637500X0.162500X-0.637500X0.162500X-0.637500X-0.162500X0*%
%ADD19RoundRect,0.100000X0.295000X-0.100000X0.295000X0.100000X-0.295000X0.100000X-0.295000X-0.100000X0*%
%ADD20RoundRect,0.175000X0.175000X0.425000X-0.175000X0.425000X-0.175000X-0.425000X0.175000X-0.425000X0*%
%ADD21RoundRect,0.190000X-0.190000X-0.410000X0.190000X-0.410000X0.190000X0.410000X-0.190000X0.410000X0*%
%ADD22RoundRect,0.200000X-0.200000X-0.400000X0.200000X-0.400000X0.200000X0.400000X-0.200000X0.400000X0*%
%ADD23RoundRect,0.175000X-0.175000X-0.425000X0.175000X-0.425000X0.175000X0.425000X-0.175000X0.425000X0*%
%ADD24RoundRect,0.190000X0.190000X0.410000X-0.190000X0.410000X-0.190000X-0.410000X0.190000X-0.410000X0*%
%ADD25RoundRect,0.200000X0.200000X0.400000X-0.200000X0.400000X-0.200000X-0.400000X0.200000X-0.400000X0*%
%ADD26O,1.100000X1.700000*%
%ADD27RoundRect,0.225000X0.225000X0.250000X-0.225000X0.250000X-0.225000X-0.250000X0.225000X-0.250000X0*%
%ADD28RoundRect,0.218750X0.218750X0.256250X-0.218750X0.256250X-0.218750X-0.256250X0.218750X-0.256250X0*%
%ADD29RoundRect,0.250000X0.450000X0.350000X-0.450000X0.350000X-0.450000X-0.350000X0.450000X-0.350000X0*%
%ADD30RoundRect,0.137500X-0.600000X-0.137500X0.600000X-0.137500X0.600000X0.137500X-0.600000X0.137500X0*%
%ADD31RoundRect,0.137500X-0.137500X-0.600000X0.137500X-0.600000X0.137500X0.600000X-0.137500X0.600000X0*%
%ADD32RoundRect,0.225000X0.250000X-0.225000X0.250000X0.225000X-0.250000X0.225000X-0.250000X-0.225000X0*%
G04 APERTURE END LIST*
D10*
%TO.C,C9*%
X104725000Y-72010000D03*
X106275000Y-72010000D03*
%TD*%
%TO.C,C8*%
X104725000Y-69500000D03*
X106275000Y-69500000D03*
%TD*%
D11*
%TO.C,U4*%
X102150000Y-74300000D03*
X102150000Y-72000000D03*
D12*
X95850000Y-72000000D03*
D11*
X102150000Y-69700000D03*
%TD*%
D13*
%TO.C,U1*%
X91550000Y-73050000D03*
X92200000Y-73050000D03*
X92850000Y-73050000D03*
X93500000Y-73050000D03*
X93500000Y-71000000D03*
X92850000Y-71000000D03*
X92200000Y-71000000D03*
X91550000Y-71000000D03*
%TD*%
D10*
%TO.C,C5*%
X93000000Y-74500000D03*
X91450000Y-74500000D03*
%TD*%
D14*
%TO.C,C7*%
X90055000Y-51750000D03*
X90055000Y-50200000D03*
%TD*%
D15*
%TO.C,U3*%
X96975000Y-48555000D03*
X96975000Y-49825000D03*
X96975000Y-51095000D03*
X96975000Y-52365000D03*
X96975000Y-53635000D03*
X96975000Y-54905000D03*
X96975000Y-56175000D03*
X96975000Y-57445000D03*
X92025000Y-57445000D03*
X92025000Y-56175000D03*
X92025000Y-54905000D03*
X92025000Y-53635000D03*
X92025000Y-52365000D03*
X92025000Y-51095000D03*
X92025000Y-49825000D03*
X92025000Y-48555000D03*
%TD*%
D16*
%TO.C,R7*%
X109500000Y-55500000D03*
X109500000Y-57150000D03*
%TD*%
%TO.C,R6*%
X108000000Y-55350000D03*
X108000000Y-57000000D03*
%TD*%
D17*
%TO.C,R5*%
X82380000Y-51475000D03*
X80730000Y-51475000D03*
%TD*%
D18*
%TO.C,P1*%
X85555000Y-56975000D03*
X85555000Y-49075000D03*
D19*
X86825000Y-50225000D03*
X86825000Y-51025000D03*
X86825000Y-51825000D03*
X86825000Y-52625000D03*
X86825000Y-53425000D03*
X86825000Y-54225000D03*
X86825000Y-55025000D03*
X86825000Y-55825000D03*
X84285000Y-55825000D03*
X84285000Y-55025000D03*
X84285000Y-54225000D03*
X84285000Y-53425000D03*
X84285000Y-52625000D03*
X84285000Y-51825000D03*
X84285000Y-51025000D03*
X84285000Y-50225000D03*
%TD*%
D20*
%TO.C,J1*%
X109000000Y-53080000D03*
D21*
X106980000Y-53080000D03*
D22*
X105750000Y-53080000D03*
D23*
X108000000Y-53080000D03*
D24*
X110020000Y-53080000D03*
D25*
X111250000Y-53080000D03*
D26*
X112820000Y-53000000D03*
X112820000Y-49200000D03*
X104180000Y-53000000D03*
X104180000Y-49200000D03*
%TD*%
D27*
%TO.C,C6*%
X103150000Y-67625000D03*
X101600000Y-67625000D03*
%TD*%
D28*
%TO.C,D1*%
X98287500Y-65000000D03*
X96712500Y-65000000D03*
%TD*%
D29*
%TO.C,Y1*%
X81100000Y-77150000D03*
X78900000Y-77150000D03*
X78900000Y-78850000D03*
X81100000Y-78850000D03*
%TD*%
D10*
%TO.C,C4*%
X83225000Y-77500000D03*
X84775000Y-77500000D03*
%TD*%
D16*
%TO.C,R3*%
X80500000Y-61175000D03*
X80500000Y-62825000D03*
%TD*%
%TO.C,R1*%
X69500000Y-64675000D03*
X69500000Y-66325000D03*
%TD*%
D17*
%TO.C,R4*%
X94287500Y-65000000D03*
X92637500Y-65000000D03*
%TD*%
D30*
%TO.C,U2*%
X77337500Y-67037500D03*
X77337500Y-67837500D03*
X77337500Y-68637500D03*
X77337500Y-69437500D03*
X77337500Y-70237500D03*
X77337500Y-71037500D03*
X77337500Y-71837500D03*
X77337500Y-72637500D03*
D31*
X78700000Y-74000000D03*
X79500000Y-74000000D03*
X80300000Y-74000000D03*
X81100000Y-74000000D03*
X81900000Y-74000000D03*
X82700000Y-74000000D03*
X83500000Y-74000000D03*
X84300000Y-74000000D03*
D30*
X85662500Y-72637500D03*
X85662500Y-71837500D03*
X85662500Y-71037500D03*
X85662500Y-70237500D03*
X85662500Y-69437500D03*
X85662500Y-68637500D03*
X85662500Y-67837500D03*
X85662500Y-67037500D03*
D31*
X84300000Y-65675000D03*
X83500000Y-65675000D03*
X82700000Y-65675000D03*
X81900000Y-65675000D03*
X81100000Y-65675000D03*
X80300000Y-65675000D03*
X79500000Y-65675000D03*
X78700000Y-65675000D03*
%TD*%
D32*
%TO.C,C1*%
X88500000Y-71275000D03*
X88500000Y-69725000D03*
%TD*%
D16*
%TO.C,R2*%
X84675000Y-61175000D03*
X84675000Y-62825000D03*
%TD*%
D10*
%TO.C,C3*%
X74725000Y-77500000D03*
X76275000Y-77500000D03*
%TD*%
D32*
%TO.C,C2*%
X73000000Y-71275000D03*
X73000000Y-69725000D03*
%TD*%
M02*
