%TF.GenerationSoftware,KiCad,Pcbnew,9.0.4*%
%TF.CreationDate,2026-05-12T14:01:29-04:00*%
%TF.ProjectId,ECET 230 - Design Option 3 - Panchal,45434554-2032-4333-9020-2d2044657369,rev?*%
%TF.SameCoordinates,Original*%
%TF.FileFunction,Copper,L3,Inr*%
%TF.FilePolarity,Positive*%
%FSLAX46Y46*%
G04 Gerber Fmt 4.6, Leading zero omitted, Abs format (unit mm)*
G04 Created by KiCad (PCBNEW 9.0.4) date 2026-05-12 14:01:29*
%MOMM*%
%LPD*%
G01*
G04 APERTURE LIST*
%TA.AperFunction,HeatsinkPad*%
%ADD10O,1.100000X1.700000*%
%TD*%
%TA.AperFunction,ComponentPad*%
%ADD11C,2.800000*%
%TD*%
%TA.AperFunction,ComponentPad*%
%ADD12R,1.700000X1.700000*%
%TD*%
%TA.AperFunction,ComponentPad*%
%ADD13C,1.700000*%
%TD*%
%TA.AperFunction,ComponentPad*%
%ADD14C,1.397000*%
%TD*%
%TA.AperFunction,ViaPad*%
%ADD15C,0.600000*%
%TD*%
%TA.AperFunction,Conductor*%
%ADD16C,0.200000*%
%TD*%
G04 APERTURE END LIST*
D10*
%TO.N,GND*%
%TO.C,J1*%
X112820000Y-53000000D03*
X112820000Y-49200000D03*
X104180000Y-53000000D03*
X104180000Y-49200000D03*
%TD*%
D11*
%TO.N,Net-(U2-PD4)*%
%TO.C,PD4*%
X63000000Y-69650000D03*
%TD*%
%TO.N,GND*%
%TO.C,GND*%
X107000000Y-80000000D03*
%TD*%
%TO.N,Net-(U2-PD3)*%
%TO.C,PD3*%
X63000000Y-65250000D03*
%TD*%
D12*
%TO.N,Net-(J2-Pin_1)*%
%TO.C,ISP Header*%
X71340000Y-51460000D03*
D13*
%TO.N,VCC*%
X73880000Y-51460000D03*
%TO.N,Net-(J2-Pin_3)*%
X71340000Y-54000000D03*
%TO.N,Net-(J2-Pin_4)*%
X73880000Y-54000000D03*
%TO.N,Net-(J2-Pin_5)*%
X71340000Y-56540000D03*
%TO.N,GND*%
X73880000Y-56540000D03*
%TD*%
D14*
%TO.N,Net-(U2-PB0)*%
%TO.C,SW1*%
X61945000Y-75680000D03*
X69565000Y-75680000D03*
%TO.N,GND*%
X61945000Y-80760000D03*
X69565000Y-80760000D03*
%TD*%
D11*
%TO.N,Net-(U2-PD2)*%
%TO.C,PD2*%
X63000000Y-60200000D03*
%TD*%
D15*
%TO.N,VCC*%
X82939000Y-55004786D03*
X84285000Y-55025000D03*
%TO.N,GND*%
X91524998Y-71000000D03*
X75000000Y-56000000D03*
X80730000Y-51475000D03*
%TO.N,VCC*%
X72000000Y-65000000D03*
X80500000Y-61175000D03*
%TO.N,Net-(U2-PD0)*%
X92025000Y-49825000D03*
%TO.N,Net-(U2-PD1)*%
X92025000Y-51095000D03*
%TO.N,Net-(U2-PD0)*%
X80300000Y-65675000D03*
%TO.N,Net-(U2-PD1)*%
X79477196Y-65536261D03*
%TO.N,Net-(U1-SCK)*%
X80500000Y-62825000D03*
X81503394Y-64492761D03*
%TO.N,VCC*%
X80000000Y-71000000D03*
%TO.N,GND*%
X81744614Y-71650000D03*
X90055000Y-50200000D03*
X86825000Y-50225000D03*
%TO.N,Net-(U2-PD3)*%
X77646025Y-67012500D03*
%TO.N,Net-(U2-PD2)*%
X78640422Y-65685635D03*
%TO.N,GND*%
X99500000Y-65000000D03*
X103000000Y-66000000D03*
%TO.N,VCC*%
X105500000Y-57500000D03*
X106000000Y-55500000D03*
%TO.N,Net-(U1-SCK)*%
X82000000Y-67500000D03*
%TO.N,Net-(U1-SDI)*%
X92670114Y-70316170D03*
%TO.N,VCC*%
X85555000Y-47475000D03*
X85555000Y-51025000D03*
X74606048Y-70300000D03*
X75627880Y-68627880D03*
%TO.N,GND*%
X92200000Y-73700000D03*
X73880000Y-66325000D03*
X86000000Y-76000000D03*
X73880000Y-60880000D03*
X72000000Y-68000000D03*
%TO.N,Net-(U2-PD6)*%
X79500000Y-73850000D03*
X79994329Y-75924911D03*
%TO.N,Net-(U2-PD7)*%
X80772980Y-75688488D03*
X80500000Y-72500000D03*
%TO.N,Net-(J2-Pin_3)*%
X68500000Y-54000000D03*
%TO.N,Net-(U1-SDI)*%
X83500000Y-62500000D03*
X83500000Y-62500000D03*
X82700000Y-65675000D03*
%TO.N,Net-(J2-Pin_5)*%
X73000000Y-68000000D03*
X77649954Y-64850000D03*
%TO.N,VCC*%
X87702000Y-72000000D03*
X85500000Y-71862500D03*
%TD*%
D16*
%TO.N,VCC*%
X80500000Y-61175000D02*
X75825000Y-61175000D01*
X75825000Y-61175000D02*
X72000000Y-65000000D01*
%TO.N,Net-(U2-PD2)*%
X63000000Y-60200000D02*
X68485635Y-65685635D01*
X68485635Y-65685635D02*
X78640422Y-65685635D01*
%TO.N,Net-(U2-PD3)*%
X64762500Y-67012500D02*
X77646025Y-67012500D01*
X63000000Y-65250000D02*
X64762500Y-67012500D01*
%TD*%
M02*
